G75*
%MOIN*%
%OFA0B0*%
%FSLAX25Y25*%
%IPPOS*%
%LPD*%
%AMOC8*
5,1,8,0,0,1.08239X$1,22.5*
%
%ADD10C,0.00000*%
%ADD11C,0.00600*%
%ADD12C,0.01000*%
%ADD13C,0.00500*%
%ADD14R,0.02000X0.10000*%
%ADD15R,0.10000X0.02000*%
%ADD16C,0.00400*%
%ADD17R,0.02400X0.03400*%
%ADD18R,0.03400X0.02400*%
%ADD19C,0.00700*%
%ADD20C,0.01600*%
%ADD21C,0.00800*%
D10*
X0006250Y0003667D02*
X0006250Y0200517D01*
X0203100Y0200517D01*
X0203100Y0003667D01*
X0006250Y0003667D01*
D11*
X0027750Y0046167D02*
X0034750Y0046167D01*
X0034810Y0046169D01*
X0034871Y0046174D01*
X0034930Y0046183D01*
X0034989Y0046196D01*
X0035048Y0046212D01*
X0035105Y0046232D01*
X0035160Y0046255D01*
X0035215Y0046282D01*
X0035267Y0046311D01*
X0035318Y0046344D01*
X0035367Y0046380D01*
X0035413Y0046418D01*
X0035457Y0046460D01*
X0035499Y0046504D01*
X0035537Y0046550D01*
X0035573Y0046599D01*
X0035606Y0046650D01*
X0035635Y0046702D01*
X0035662Y0046757D01*
X0035685Y0046812D01*
X0035705Y0046869D01*
X0035721Y0046928D01*
X0035734Y0046987D01*
X0035743Y0047046D01*
X0035748Y0047107D01*
X0035750Y0047167D01*
X0035750Y0048667D01*
X0035250Y0049167D01*
X0035250Y0068167D01*
X0035750Y0068667D01*
X0035750Y0070167D01*
X0035748Y0070227D01*
X0035743Y0070288D01*
X0035734Y0070347D01*
X0035721Y0070406D01*
X0035705Y0070465D01*
X0035685Y0070522D01*
X0035662Y0070577D01*
X0035635Y0070632D01*
X0035606Y0070684D01*
X0035573Y0070735D01*
X0035537Y0070784D01*
X0035499Y0070830D01*
X0035457Y0070874D01*
X0035413Y0070916D01*
X0035367Y0070954D01*
X0035318Y0070990D01*
X0035267Y0071023D01*
X0035215Y0071052D01*
X0035160Y0071079D01*
X0035105Y0071102D01*
X0035048Y0071122D01*
X0034989Y0071138D01*
X0034930Y0071151D01*
X0034871Y0071160D01*
X0034810Y0071165D01*
X0034750Y0071167D01*
X0027750Y0071167D01*
X0027690Y0071165D01*
X0027629Y0071160D01*
X0027570Y0071151D01*
X0027511Y0071138D01*
X0027452Y0071122D01*
X0027395Y0071102D01*
X0027340Y0071079D01*
X0027285Y0071052D01*
X0027233Y0071023D01*
X0027182Y0070990D01*
X0027133Y0070954D01*
X0027087Y0070916D01*
X0027043Y0070874D01*
X0027001Y0070830D01*
X0026963Y0070784D01*
X0026927Y0070735D01*
X0026894Y0070684D01*
X0026865Y0070632D01*
X0026838Y0070577D01*
X0026815Y0070522D01*
X0026795Y0070465D01*
X0026779Y0070406D01*
X0026766Y0070347D01*
X0026757Y0070288D01*
X0026752Y0070227D01*
X0026750Y0070167D01*
X0026750Y0068667D01*
X0027250Y0068167D01*
X0027250Y0049167D01*
X0026750Y0048667D01*
X0026750Y0047167D01*
X0026752Y0047107D01*
X0026757Y0047046D01*
X0026766Y0046987D01*
X0026779Y0046928D01*
X0026795Y0046869D01*
X0026815Y0046812D01*
X0026838Y0046757D01*
X0026865Y0046702D01*
X0026894Y0046650D01*
X0026927Y0046599D01*
X0026963Y0046550D01*
X0027001Y0046504D01*
X0027043Y0046460D01*
X0027087Y0046418D01*
X0027133Y0046380D01*
X0027182Y0046344D01*
X0027233Y0046311D01*
X0027285Y0046282D01*
X0027340Y0046255D01*
X0027395Y0046232D01*
X0027452Y0046212D01*
X0027511Y0046196D01*
X0027570Y0046183D01*
X0027629Y0046174D01*
X0027690Y0046169D01*
X0027750Y0046167D01*
X0046750Y0047167D02*
X0046750Y0048667D01*
X0047250Y0049167D01*
X0047250Y0068167D01*
X0046750Y0068667D01*
X0046750Y0070167D01*
X0046752Y0070227D01*
X0046757Y0070288D01*
X0046766Y0070347D01*
X0046779Y0070406D01*
X0046795Y0070465D01*
X0046815Y0070522D01*
X0046838Y0070577D01*
X0046865Y0070632D01*
X0046894Y0070684D01*
X0046927Y0070735D01*
X0046963Y0070784D01*
X0047001Y0070830D01*
X0047043Y0070874D01*
X0047087Y0070916D01*
X0047133Y0070954D01*
X0047182Y0070990D01*
X0047233Y0071023D01*
X0047285Y0071052D01*
X0047340Y0071079D01*
X0047395Y0071102D01*
X0047452Y0071122D01*
X0047511Y0071138D01*
X0047570Y0071151D01*
X0047629Y0071160D01*
X0047690Y0071165D01*
X0047750Y0071167D01*
X0054750Y0071167D01*
X0054810Y0071165D01*
X0054871Y0071160D01*
X0054930Y0071151D01*
X0054989Y0071138D01*
X0055048Y0071122D01*
X0055105Y0071102D01*
X0055160Y0071079D01*
X0055215Y0071052D01*
X0055267Y0071023D01*
X0055318Y0070990D01*
X0055367Y0070954D01*
X0055413Y0070916D01*
X0055457Y0070874D01*
X0055499Y0070830D01*
X0055537Y0070784D01*
X0055573Y0070735D01*
X0055606Y0070684D01*
X0055635Y0070632D01*
X0055662Y0070577D01*
X0055685Y0070522D01*
X0055705Y0070465D01*
X0055721Y0070406D01*
X0055734Y0070347D01*
X0055743Y0070288D01*
X0055748Y0070227D01*
X0055750Y0070167D01*
X0055750Y0068667D01*
X0055250Y0068167D01*
X0055250Y0049167D01*
X0055750Y0048667D01*
X0055750Y0047167D01*
X0055748Y0047107D01*
X0055743Y0047046D01*
X0055734Y0046987D01*
X0055721Y0046928D01*
X0055705Y0046869D01*
X0055685Y0046812D01*
X0055662Y0046757D01*
X0055635Y0046702D01*
X0055606Y0046650D01*
X0055573Y0046599D01*
X0055537Y0046550D01*
X0055499Y0046504D01*
X0055457Y0046460D01*
X0055413Y0046418D01*
X0055367Y0046380D01*
X0055318Y0046344D01*
X0055267Y0046311D01*
X0055215Y0046282D01*
X0055160Y0046255D01*
X0055105Y0046232D01*
X0055048Y0046212D01*
X0054989Y0046196D01*
X0054930Y0046183D01*
X0054871Y0046174D01*
X0054810Y0046169D01*
X0054750Y0046167D01*
X0047750Y0046167D01*
X0047690Y0046169D01*
X0047629Y0046174D01*
X0047570Y0046183D01*
X0047511Y0046196D01*
X0047452Y0046212D01*
X0047395Y0046232D01*
X0047340Y0046255D01*
X0047285Y0046282D01*
X0047233Y0046311D01*
X0047182Y0046344D01*
X0047133Y0046380D01*
X0047087Y0046418D01*
X0047043Y0046460D01*
X0047001Y0046504D01*
X0046963Y0046550D01*
X0046927Y0046599D01*
X0046894Y0046650D01*
X0046865Y0046702D01*
X0046838Y0046757D01*
X0046815Y0046812D01*
X0046795Y0046869D01*
X0046779Y0046928D01*
X0046766Y0046987D01*
X0046757Y0047046D01*
X0046752Y0047107D01*
X0046750Y0047167D01*
X0056750Y0047667D02*
X0056750Y0039667D01*
X0056752Y0039607D01*
X0056757Y0039546D01*
X0056766Y0039487D01*
X0056779Y0039428D01*
X0056795Y0039369D01*
X0056815Y0039312D01*
X0056838Y0039257D01*
X0056865Y0039202D01*
X0056894Y0039150D01*
X0056927Y0039099D01*
X0056963Y0039050D01*
X0057001Y0039004D01*
X0057043Y0038960D01*
X0057087Y0038918D01*
X0057133Y0038880D01*
X0057182Y0038844D01*
X0057233Y0038811D01*
X0057285Y0038782D01*
X0057340Y0038755D01*
X0057395Y0038732D01*
X0057452Y0038712D01*
X0057511Y0038696D01*
X0057570Y0038683D01*
X0057629Y0038674D01*
X0057690Y0038669D01*
X0057750Y0038667D01*
X0074750Y0038667D01*
X0074810Y0038669D01*
X0074871Y0038674D01*
X0074930Y0038683D01*
X0074989Y0038696D01*
X0075048Y0038712D01*
X0075105Y0038732D01*
X0075160Y0038755D01*
X0075215Y0038782D01*
X0075267Y0038811D01*
X0075318Y0038844D01*
X0075367Y0038880D01*
X0075413Y0038918D01*
X0075457Y0038960D01*
X0075499Y0039004D01*
X0075537Y0039050D01*
X0075573Y0039099D01*
X0075606Y0039150D01*
X0075635Y0039202D01*
X0075662Y0039257D01*
X0075685Y0039312D01*
X0075705Y0039369D01*
X0075721Y0039428D01*
X0075734Y0039487D01*
X0075743Y0039546D01*
X0075748Y0039607D01*
X0075750Y0039667D01*
X0075750Y0047667D01*
X0075748Y0047727D01*
X0075743Y0047788D01*
X0075734Y0047847D01*
X0075721Y0047906D01*
X0075705Y0047965D01*
X0075685Y0048022D01*
X0075662Y0048077D01*
X0075635Y0048132D01*
X0075606Y0048184D01*
X0075573Y0048235D01*
X0075537Y0048284D01*
X0075499Y0048330D01*
X0075457Y0048374D01*
X0075413Y0048416D01*
X0075367Y0048454D01*
X0075318Y0048490D01*
X0075267Y0048523D01*
X0075215Y0048552D01*
X0075160Y0048579D01*
X0075105Y0048602D01*
X0075048Y0048622D01*
X0074989Y0048638D01*
X0074930Y0048651D01*
X0074871Y0048660D01*
X0074810Y0048665D01*
X0074750Y0048667D01*
X0057750Y0048667D01*
X0057690Y0048665D01*
X0057629Y0048660D01*
X0057570Y0048651D01*
X0057511Y0048638D01*
X0057452Y0048622D01*
X0057395Y0048602D01*
X0057340Y0048579D01*
X0057285Y0048552D01*
X0057233Y0048523D01*
X0057182Y0048490D01*
X0057133Y0048454D01*
X0057087Y0048416D01*
X0057043Y0048374D01*
X0057001Y0048330D01*
X0056963Y0048284D01*
X0056927Y0048235D01*
X0056894Y0048184D01*
X0056865Y0048132D01*
X0056838Y0048077D01*
X0056815Y0048022D01*
X0056795Y0047965D01*
X0056779Y0047906D01*
X0056766Y0047847D01*
X0056757Y0047788D01*
X0056752Y0047727D01*
X0056750Y0047667D01*
X0064750Y0043667D02*
X0065250Y0043667D01*
X0067250Y0043667D02*
X0067750Y0043667D01*
X0091250Y0028667D02*
X0091250Y0168167D01*
X0091250Y0168667D02*
X0096250Y0168667D01*
X0096252Y0168527D01*
X0096258Y0168387D01*
X0096268Y0168247D01*
X0096281Y0168107D01*
X0096299Y0167968D01*
X0096321Y0167829D01*
X0096346Y0167692D01*
X0096375Y0167554D01*
X0096408Y0167418D01*
X0096445Y0167283D01*
X0096486Y0167149D01*
X0096531Y0167016D01*
X0096579Y0166884D01*
X0096631Y0166754D01*
X0096686Y0166625D01*
X0096745Y0166498D01*
X0096808Y0166372D01*
X0096874Y0166248D01*
X0096943Y0166127D01*
X0097016Y0166007D01*
X0097093Y0165889D01*
X0097172Y0165774D01*
X0097255Y0165660D01*
X0097341Y0165550D01*
X0097430Y0165441D01*
X0097522Y0165335D01*
X0097617Y0165232D01*
X0097714Y0165131D01*
X0097815Y0165034D01*
X0097918Y0164939D01*
X0098024Y0164847D01*
X0098133Y0164758D01*
X0098243Y0164672D01*
X0098357Y0164589D01*
X0098472Y0164510D01*
X0098590Y0164433D01*
X0098710Y0164360D01*
X0098831Y0164291D01*
X0098955Y0164225D01*
X0099081Y0164162D01*
X0099208Y0164103D01*
X0099337Y0164048D01*
X0099467Y0163996D01*
X0099599Y0163948D01*
X0099732Y0163903D01*
X0099866Y0163862D01*
X0100001Y0163825D01*
X0100137Y0163792D01*
X0100275Y0163763D01*
X0100412Y0163738D01*
X0100551Y0163716D01*
X0100690Y0163698D01*
X0100830Y0163685D01*
X0100970Y0163675D01*
X0101110Y0163669D01*
X0101250Y0163667D01*
X0101390Y0163669D01*
X0101530Y0163675D01*
X0101670Y0163685D01*
X0101810Y0163698D01*
X0101949Y0163716D01*
X0102088Y0163738D01*
X0102225Y0163763D01*
X0102363Y0163792D01*
X0102499Y0163825D01*
X0102634Y0163862D01*
X0102768Y0163903D01*
X0102901Y0163948D01*
X0103033Y0163996D01*
X0103163Y0164048D01*
X0103292Y0164103D01*
X0103419Y0164162D01*
X0103545Y0164225D01*
X0103669Y0164291D01*
X0103790Y0164360D01*
X0103910Y0164433D01*
X0104028Y0164510D01*
X0104143Y0164589D01*
X0104257Y0164672D01*
X0104367Y0164758D01*
X0104476Y0164847D01*
X0104582Y0164939D01*
X0104685Y0165034D01*
X0104786Y0165131D01*
X0104883Y0165232D01*
X0104978Y0165335D01*
X0105070Y0165441D01*
X0105159Y0165550D01*
X0105245Y0165660D01*
X0105328Y0165774D01*
X0105407Y0165889D01*
X0105484Y0166007D01*
X0105557Y0166127D01*
X0105626Y0166248D01*
X0105692Y0166372D01*
X0105755Y0166498D01*
X0105814Y0166625D01*
X0105869Y0166754D01*
X0105921Y0166884D01*
X0105969Y0167016D01*
X0106014Y0167149D01*
X0106055Y0167283D01*
X0106092Y0167418D01*
X0106125Y0167554D01*
X0106154Y0167692D01*
X0106179Y0167829D01*
X0106201Y0167968D01*
X0106219Y0168107D01*
X0106232Y0168247D01*
X0106242Y0168387D01*
X0106248Y0168527D01*
X0106250Y0168667D01*
X0111250Y0168667D01*
X0111250Y0028667D01*
X0091250Y0028667D01*
X0106250Y0019667D02*
X0106404Y0019665D01*
X0106558Y0019659D01*
X0106712Y0019649D01*
X0106866Y0019635D01*
X0107019Y0019618D01*
X0107171Y0019596D01*
X0107323Y0019570D01*
X0107475Y0019541D01*
X0107625Y0019507D01*
X0107775Y0019470D01*
X0107923Y0019429D01*
X0108071Y0019384D01*
X0108217Y0019335D01*
X0108362Y0019283D01*
X0108505Y0019227D01*
X0108648Y0019167D01*
X0108788Y0019104D01*
X0108927Y0019037D01*
X0109064Y0018966D01*
X0109199Y0018892D01*
X0109332Y0018815D01*
X0109464Y0018734D01*
X0109593Y0018650D01*
X0109720Y0018562D01*
X0109844Y0018471D01*
X0109966Y0018378D01*
X0110086Y0018280D01*
X0110203Y0018180D01*
X0110318Y0018077D01*
X0110430Y0017971D01*
X0110539Y0017863D01*
X0110645Y0017751D01*
X0110749Y0017637D01*
X0110849Y0017520D01*
X0110947Y0017401D01*
X0111041Y0017279D01*
X0111132Y0017154D01*
X0106250Y0007667D02*
X0106098Y0007669D01*
X0105947Y0007675D01*
X0105796Y0007684D01*
X0105644Y0007698D01*
X0105494Y0007715D01*
X0105344Y0007736D01*
X0105194Y0007761D01*
X0105045Y0007789D01*
X0104897Y0007822D01*
X0104750Y0007858D01*
X0104603Y0007897D01*
X0104458Y0007941D01*
X0104314Y0007988D01*
X0104171Y0008039D01*
X0104030Y0008093D01*
X0103889Y0008151D01*
X0103751Y0008212D01*
X0103614Y0008277D01*
X0103478Y0008346D01*
X0103345Y0008417D01*
X0103213Y0008492D01*
X0103083Y0008571D01*
X0102956Y0008652D01*
X0102830Y0008737D01*
X0102706Y0008825D01*
X0102585Y0008916D01*
X0102466Y0009010D01*
X0102350Y0009108D01*
X0102236Y0009208D01*
X0102124Y0009310D01*
X0102016Y0009416D01*
X0101910Y0009524D01*
X0101806Y0009635D01*
X0101706Y0009749D01*
X0101608Y0009865D01*
X0101514Y0009984D01*
X0106250Y0007667D02*
X0106402Y0007669D01*
X0106553Y0007675D01*
X0106704Y0007684D01*
X0106856Y0007698D01*
X0107006Y0007715D01*
X0107156Y0007736D01*
X0107306Y0007761D01*
X0107455Y0007789D01*
X0107603Y0007822D01*
X0107750Y0007858D01*
X0107897Y0007897D01*
X0108042Y0007941D01*
X0108186Y0007988D01*
X0108329Y0008039D01*
X0108470Y0008093D01*
X0108611Y0008151D01*
X0108749Y0008212D01*
X0108886Y0008277D01*
X0109022Y0008346D01*
X0109155Y0008417D01*
X0109287Y0008492D01*
X0109417Y0008571D01*
X0109544Y0008652D01*
X0109670Y0008737D01*
X0109794Y0008825D01*
X0109915Y0008916D01*
X0110034Y0009010D01*
X0110150Y0009108D01*
X0110264Y0009208D01*
X0110376Y0009310D01*
X0110484Y0009416D01*
X0110590Y0009524D01*
X0110694Y0009635D01*
X0110794Y0009749D01*
X0110892Y0009865D01*
X0110986Y0009984D01*
X0106250Y0019667D02*
X0106100Y0019665D01*
X0105949Y0019659D01*
X0105799Y0019650D01*
X0105650Y0019637D01*
X0105500Y0019620D01*
X0105351Y0019599D01*
X0105203Y0019575D01*
X0105055Y0019547D01*
X0104908Y0019515D01*
X0104762Y0019480D01*
X0104617Y0019440D01*
X0104473Y0019398D01*
X0104330Y0019351D01*
X0104188Y0019301D01*
X0104047Y0019248D01*
X0103908Y0019191D01*
X0103770Y0019131D01*
X0103634Y0019067D01*
X0103500Y0019000D01*
X0103367Y0018929D01*
X0103236Y0018855D01*
X0103107Y0018778D01*
X0102980Y0018697D01*
X0102855Y0018614D01*
X0102732Y0018527D01*
X0102611Y0018438D01*
X0102493Y0018345D01*
X0102377Y0018249D01*
X0102263Y0018151D01*
X0102152Y0018050D01*
X0102043Y0017945D01*
X0101938Y0017839D01*
X0101834Y0017729D01*
X0101734Y0017617D01*
X0101636Y0017503D01*
X0101542Y0017386D01*
X0101450Y0017267D01*
X0128750Y0017167D02*
X0128750Y0010167D01*
X0128752Y0010107D01*
X0128757Y0010046D01*
X0128766Y0009987D01*
X0128779Y0009928D01*
X0128795Y0009869D01*
X0128815Y0009812D01*
X0128838Y0009757D01*
X0128865Y0009702D01*
X0128894Y0009650D01*
X0128927Y0009599D01*
X0128963Y0009550D01*
X0129001Y0009504D01*
X0129043Y0009460D01*
X0129087Y0009418D01*
X0129133Y0009380D01*
X0129182Y0009344D01*
X0129233Y0009311D01*
X0129285Y0009282D01*
X0129340Y0009255D01*
X0129395Y0009232D01*
X0129452Y0009212D01*
X0129511Y0009196D01*
X0129570Y0009183D01*
X0129629Y0009174D01*
X0129690Y0009169D01*
X0129750Y0009167D01*
X0131250Y0009167D01*
X0131750Y0009667D01*
X0150750Y0009667D01*
X0151250Y0009167D01*
X0152750Y0009167D01*
X0152810Y0009169D01*
X0152871Y0009174D01*
X0152930Y0009183D01*
X0152989Y0009196D01*
X0153048Y0009212D01*
X0153105Y0009232D01*
X0153160Y0009255D01*
X0153215Y0009282D01*
X0153267Y0009311D01*
X0153318Y0009344D01*
X0153367Y0009380D01*
X0153413Y0009418D01*
X0153457Y0009460D01*
X0153499Y0009504D01*
X0153537Y0009550D01*
X0153573Y0009599D01*
X0153606Y0009650D01*
X0153635Y0009702D01*
X0153662Y0009757D01*
X0153685Y0009812D01*
X0153705Y0009869D01*
X0153721Y0009928D01*
X0153734Y0009987D01*
X0153743Y0010046D01*
X0153748Y0010107D01*
X0153750Y0010167D01*
X0153750Y0017167D01*
X0153748Y0017227D01*
X0153743Y0017288D01*
X0153734Y0017347D01*
X0153721Y0017406D01*
X0153705Y0017465D01*
X0153685Y0017522D01*
X0153662Y0017577D01*
X0153635Y0017632D01*
X0153606Y0017684D01*
X0153573Y0017735D01*
X0153537Y0017784D01*
X0153499Y0017830D01*
X0153457Y0017874D01*
X0153413Y0017916D01*
X0153367Y0017954D01*
X0153318Y0017990D01*
X0153267Y0018023D01*
X0153215Y0018052D01*
X0153160Y0018079D01*
X0153105Y0018102D01*
X0153048Y0018122D01*
X0152989Y0018138D01*
X0152930Y0018151D01*
X0152871Y0018160D01*
X0152810Y0018165D01*
X0152750Y0018167D01*
X0151250Y0018167D01*
X0150750Y0017667D01*
X0131750Y0017667D01*
X0131250Y0018167D01*
X0129750Y0018167D01*
X0129690Y0018165D01*
X0129629Y0018160D01*
X0129570Y0018151D01*
X0129511Y0018138D01*
X0129452Y0018122D01*
X0129395Y0018102D01*
X0129340Y0018079D01*
X0129285Y0018052D01*
X0129233Y0018023D01*
X0129182Y0017990D01*
X0129133Y0017954D01*
X0129087Y0017916D01*
X0129043Y0017874D01*
X0129001Y0017830D01*
X0128963Y0017784D01*
X0128927Y0017735D01*
X0128894Y0017684D01*
X0128865Y0017632D01*
X0128838Y0017577D01*
X0128815Y0017522D01*
X0128795Y0017465D01*
X0128779Y0017406D01*
X0128766Y0017347D01*
X0128757Y0017288D01*
X0128752Y0017227D01*
X0128750Y0017167D01*
X0131550Y0023967D02*
X0134753Y0023967D01*
X0135820Y0025034D01*
X0135820Y0029305D01*
X0134753Y0030372D01*
X0131550Y0030372D01*
X0131550Y0023967D01*
X0137995Y0025034D02*
X0139063Y0023967D01*
X0142266Y0023967D01*
X0142266Y0027169D01*
X0141198Y0028237D01*
X0139063Y0028237D01*
X0139063Y0026102D02*
X0142266Y0026102D01*
X0144441Y0023967D02*
X0144441Y0028237D01*
X0147644Y0028237D01*
X0148711Y0027169D01*
X0148711Y0023967D01*
X0150886Y0023967D02*
X0153022Y0023967D01*
X0151954Y0023967D02*
X0151954Y0028237D01*
X0150886Y0028237D01*
X0151954Y0030372D02*
X0151954Y0031440D01*
X0155183Y0027169D02*
X0156251Y0028237D01*
X0158386Y0028237D01*
X0159454Y0027169D01*
X0159454Y0026102D01*
X0155183Y0026102D01*
X0155183Y0027169D02*
X0155183Y0025034D01*
X0156251Y0023967D01*
X0158386Y0023967D01*
X0161629Y0023967D02*
X0163764Y0023967D01*
X0162697Y0023967D02*
X0162697Y0030372D01*
X0161629Y0030372D01*
X0172371Y0029305D02*
X0172371Y0028237D01*
X0173439Y0027169D01*
X0175574Y0027169D01*
X0176642Y0026102D01*
X0176642Y0025034D01*
X0175574Y0023967D01*
X0173439Y0023967D01*
X0172371Y0025034D01*
X0172371Y0029305D02*
X0173439Y0030372D01*
X0175574Y0030372D01*
X0176642Y0029305D01*
X0178817Y0027169D02*
X0178817Y0025034D01*
X0179885Y0023967D01*
X0182020Y0023967D01*
X0183087Y0025034D01*
X0183087Y0027169D01*
X0182020Y0028237D01*
X0179885Y0028237D01*
X0178817Y0027169D01*
X0185262Y0028237D02*
X0185262Y0025034D01*
X0186330Y0023967D01*
X0189533Y0023967D01*
X0189533Y0028237D01*
X0191708Y0028237D02*
X0191708Y0023967D01*
X0191708Y0026102D02*
X0193843Y0028237D01*
X0194911Y0028237D01*
X0197079Y0027169D02*
X0198147Y0028237D01*
X0201350Y0028237D01*
X0200282Y0026102D02*
X0198147Y0026102D01*
X0197079Y0027169D01*
X0197079Y0023967D02*
X0200282Y0023967D01*
X0201350Y0025034D01*
X0200282Y0026102D01*
X0139063Y0026102D02*
X0137995Y0025034D01*
X0134750Y0094167D02*
X0131750Y0097167D01*
X0131750Y0110167D01*
X0134750Y0113167D01*
X0159250Y0113167D01*
X0159326Y0113165D01*
X0159402Y0113159D01*
X0159477Y0113150D01*
X0159552Y0113136D01*
X0159626Y0113119D01*
X0159699Y0113098D01*
X0159771Y0113074D01*
X0159842Y0113045D01*
X0159911Y0113014D01*
X0159978Y0112979D01*
X0160043Y0112940D01*
X0160107Y0112898D01*
X0160168Y0112853D01*
X0160227Y0112805D01*
X0160283Y0112754D01*
X0160337Y0112700D01*
X0160388Y0112644D01*
X0160436Y0112585D01*
X0160481Y0112524D01*
X0160523Y0112460D01*
X0160562Y0112395D01*
X0160597Y0112328D01*
X0160628Y0112259D01*
X0160657Y0112188D01*
X0160681Y0112116D01*
X0160702Y0112043D01*
X0160719Y0111969D01*
X0160733Y0111894D01*
X0160742Y0111819D01*
X0160748Y0111743D01*
X0160750Y0111667D01*
X0160750Y0095667D01*
X0160748Y0095591D01*
X0160742Y0095515D01*
X0160733Y0095440D01*
X0160719Y0095365D01*
X0160702Y0095291D01*
X0160681Y0095218D01*
X0160657Y0095146D01*
X0160628Y0095075D01*
X0160597Y0095006D01*
X0160562Y0094939D01*
X0160523Y0094874D01*
X0160481Y0094810D01*
X0160436Y0094749D01*
X0160388Y0094690D01*
X0160337Y0094634D01*
X0160283Y0094580D01*
X0160227Y0094529D01*
X0160168Y0094481D01*
X0160107Y0094436D01*
X0160043Y0094394D01*
X0159978Y0094355D01*
X0159911Y0094320D01*
X0159842Y0094289D01*
X0159771Y0094260D01*
X0159699Y0094236D01*
X0159626Y0094215D01*
X0159552Y0094198D01*
X0159477Y0094184D01*
X0159402Y0094175D01*
X0159326Y0094169D01*
X0159250Y0094167D01*
X0134750Y0094167D01*
X0143750Y0098867D02*
X0143750Y0103667D01*
X0143750Y0108467D01*
X0145750Y0108467D01*
X0145750Y0098867D01*
X0143750Y0098867D01*
X0143750Y0103667D02*
X0140250Y0103667D01*
X0139250Y0107767D02*
X0139250Y0110267D01*
X0140550Y0109067D02*
X0137950Y0109067D01*
X0148750Y0103667D02*
X0152250Y0103667D01*
X0182750Y0141167D02*
X0189750Y0141167D01*
X0189810Y0141169D01*
X0189871Y0141174D01*
X0189930Y0141183D01*
X0189989Y0141196D01*
X0190048Y0141212D01*
X0190105Y0141232D01*
X0190160Y0141255D01*
X0190215Y0141282D01*
X0190267Y0141311D01*
X0190318Y0141344D01*
X0190367Y0141380D01*
X0190413Y0141418D01*
X0190457Y0141460D01*
X0190499Y0141504D01*
X0190537Y0141550D01*
X0190573Y0141599D01*
X0190606Y0141650D01*
X0190635Y0141702D01*
X0190662Y0141757D01*
X0190685Y0141812D01*
X0190705Y0141869D01*
X0190721Y0141928D01*
X0190734Y0141987D01*
X0190743Y0142046D01*
X0190748Y0142107D01*
X0190750Y0142167D01*
X0190750Y0143667D01*
X0190250Y0144167D01*
X0190250Y0163167D01*
X0190750Y0163667D01*
X0190750Y0165167D01*
X0190748Y0165227D01*
X0190743Y0165288D01*
X0190734Y0165347D01*
X0190721Y0165406D01*
X0190705Y0165465D01*
X0190685Y0165522D01*
X0190662Y0165577D01*
X0190635Y0165632D01*
X0190606Y0165684D01*
X0190573Y0165735D01*
X0190537Y0165784D01*
X0190499Y0165830D01*
X0190457Y0165874D01*
X0190413Y0165916D01*
X0190367Y0165954D01*
X0190318Y0165990D01*
X0190267Y0166023D01*
X0190215Y0166052D01*
X0190160Y0166079D01*
X0190105Y0166102D01*
X0190048Y0166122D01*
X0189989Y0166138D01*
X0189930Y0166151D01*
X0189871Y0166160D01*
X0189810Y0166165D01*
X0189750Y0166167D01*
X0182750Y0166167D01*
X0182690Y0166165D01*
X0182629Y0166160D01*
X0182570Y0166151D01*
X0182511Y0166138D01*
X0182452Y0166122D01*
X0182395Y0166102D01*
X0182340Y0166079D01*
X0182285Y0166052D01*
X0182233Y0166023D01*
X0182182Y0165990D01*
X0182133Y0165954D01*
X0182087Y0165916D01*
X0182043Y0165874D01*
X0182001Y0165830D01*
X0181963Y0165784D01*
X0181927Y0165735D01*
X0181894Y0165684D01*
X0181865Y0165632D01*
X0181838Y0165577D01*
X0181815Y0165522D01*
X0181795Y0165465D01*
X0181779Y0165406D01*
X0181766Y0165347D01*
X0181757Y0165288D01*
X0181752Y0165227D01*
X0181750Y0165167D01*
X0181750Y0163667D01*
X0182250Y0163167D01*
X0182250Y0144167D01*
X0181750Y0143667D01*
X0181750Y0142167D01*
X0181752Y0142107D01*
X0181757Y0142046D01*
X0181766Y0141987D01*
X0181779Y0141928D01*
X0181795Y0141869D01*
X0181815Y0141812D01*
X0181838Y0141757D01*
X0181865Y0141702D01*
X0181894Y0141650D01*
X0181927Y0141599D01*
X0181963Y0141550D01*
X0182001Y0141504D01*
X0182043Y0141460D01*
X0182087Y0141418D01*
X0182133Y0141380D01*
X0182182Y0141344D01*
X0182233Y0141311D01*
X0182285Y0141282D01*
X0182340Y0141255D01*
X0182395Y0141232D01*
X0182452Y0141212D01*
X0182511Y0141196D01*
X0182570Y0141183D01*
X0182629Y0141174D01*
X0182690Y0141169D01*
X0182750Y0141167D01*
X0167750Y0169167D02*
X0154750Y0169167D01*
X0151750Y0172167D01*
X0151750Y0196667D01*
X0150750Y0197667D02*
X0150750Y0189667D01*
X0150748Y0189607D01*
X0150743Y0189546D01*
X0150734Y0189487D01*
X0150721Y0189428D01*
X0150705Y0189369D01*
X0150685Y0189312D01*
X0150662Y0189257D01*
X0150635Y0189202D01*
X0150606Y0189150D01*
X0150573Y0189099D01*
X0150537Y0189050D01*
X0150499Y0189004D01*
X0150457Y0188960D01*
X0150413Y0188918D01*
X0150367Y0188880D01*
X0150318Y0188844D01*
X0150267Y0188811D01*
X0150215Y0188782D01*
X0150160Y0188755D01*
X0150105Y0188732D01*
X0150048Y0188712D01*
X0149989Y0188696D01*
X0149930Y0188683D01*
X0149871Y0188674D01*
X0149810Y0188669D01*
X0149750Y0188667D01*
X0132750Y0188667D01*
X0132690Y0188669D01*
X0132629Y0188674D01*
X0132570Y0188683D01*
X0132511Y0188696D01*
X0132452Y0188712D01*
X0132395Y0188732D01*
X0132340Y0188755D01*
X0132285Y0188782D01*
X0132233Y0188811D01*
X0132182Y0188844D01*
X0132133Y0188880D01*
X0132087Y0188918D01*
X0132043Y0188960D01*
X0132001Y0189004D01*
X0131963Y0189050D01*
X0131927Y0189099D01*
X0131894Y0189150D01*
X0131865Y0189202D01*
X0131838Y0189257D01*
X0131815Y0189312D01*
X0131795Y0189369D01*
X0131779Y0189428D01*
X0131766Y0189487D01*
X0131757Y0189546D01*
X0131752Y0189607D01*
X0131750Y0189667D01*
X0131750Y0197667D01*
X0131752Y0197727D01*
X0131757Y0197788D01*
X0131766Y0197847D01*
X0131779Y0197906D01*
X0131795Y0197965D01*
X0131815Y0198022D01*
X0131838Y0198077D01*
X0131865Y0198132D01*
X0131894Y0198184D01*
X0131927Y0198235D01*
X0131963Y0198284D01*
X0132001Y0198330D01*
X0132043Y0198374D01*
X0132087Y0198416D01*
X0132133Y0198454D01*
X0132182Y0198490D01*
X0132233Y0198523D01*
X0132285Y0198552D01*
X0132340Y0198579D01*
X0132395Y0198602D01*
X0132452Y0198622D01*
X0132511Y0198638D01*
X0132570Y0198651D01*
X0132629Y0198660D01*
X0132690Y0198665D01*
X0132750Y0198667D01*
X0149750Y0198667D01*
X0149810Y0198665D01*
X0149871Y0198660D01*
X0149930Y0198651D01*
X0149989Y0198638D01*
X0150048Y0198622D01*
X0150105Y0198602D01*
X0150160Y0198579D01*
X0150215Y0198552D01*
X0150267Y0198523D01*
X0150318Y0198490D01*
X0150367Y0198454D01*
X0150413Y0198416D01*
X0150457Y0198374D01*
X0150499Y0198330D01*
X0150537Y0198284D01*
X0150573Y0198235D01*
X0150606Y0198184D01*
X0150635Y0198132D01*
X0150662Y0198077D01*
X0150685Y0198022D01*
X0150705Y0197965D01*
X0150721Y0197906D01*
X0150734Y0197847D01*
X0150743Y0197788D01*
X0150748Y0197727D01*
X0150750Y0197667D01*
X0153250Y0198167D02*
X0169250Y0198167D01*
X0169326Y0198165D01*
X0169402Y0198159D01*
X0169477Y0198150D01*
X0169552Y0198136D01*
X0169626Y0198119D01*
X0169699Y0198098D01*
X0169771Y0198074D01*
X0169842Y0198045D01*
X0169911Y0198014D01*
X0169978Y0197979D01*
X0170043Y0197940D01*
X0170107Y0197898D01*
X0170168Y0197853D01*
X0170227Y0197805D01*
X0170283Y0197754D01*
X0170337Y0197700D01*
X0170388Y0197644D01*
X0170436Y0197585D01*
X0170481Y0197524D01*
X0170523Y0197460D01*
X0170562Y0197395D01*
X0170597Y0197328D01*
X0170628Y0197259D01*
X0170657Y0197188D01*
X0170681Y0197116D01*
X0170702Y0197043D01*
X0170719Y0196969D01*
X0170733Y0196894D01*
X0170742Y0196819D01*
X0170748Y0196743D01*
X0170750Y0196667D01*
X0170750Y0172167D01*
X0167750Y0169167D01*
X0161250Y0177667D02*
X0161250Y0181167D01*
X0156450Y0181167D01*
X0156450Y0183167D01*
X0166050Y0183167D01*
X0166050Y0181167D01*
X0161250Y0181167D01*
X0157150Y0176667D02*
X0154650Y0176667D01*
X0155850Y0177967D02*
X0155850Y0175367D01*
X0150750Y0177167D02*
X0150750Y0185167D01*
X0150748Y0185227D01*
X0150743Y0185288D01*
X0150734Y0185347D01*
X0150721Y0185406D01*
X0150705Y0185465D01*
X0150685Y0185522D01*
X0150662Y0185577D01*
X0150635Y0185632D01*
X0150606Y0185684D01*
X0150573Y0185735D01*
X0150537Y0185784D01*
X0150499Y0185830D01*
X0150457Y0185874D01*
X0150413Y0185916D01*
X0150367Y0185954D01*
X0150318Y0185990D01*
X0150267Y0186023D01*
X0150215Y0186052D01*
X0150160Y0186079D01*
X0150105Y0186102D01*
X0150048Y0186122D01*
X0149989Y0186138D01*
X0149930Y0186151D01*
X0149871Y0186160D01*
X0149810Y0186165D01*
X0149750Y0186167D01*
X0132750Y0186167D01*
X0132690Y0186165D01*
X0132629Y0186160D01*
X0132570Y0186151D01*
X0132511Y0186138D01*
X0132452Y0186122D01*
X0132395Y0186102D01*
X0132340Y0186079D01*
X0132285Y0186052D01*
X0132233Y0186023D01*
X0132182Y0185990D01*
X0132133Y0185954D01*
X0132087Y0185916D01*
X0132043Y0185874D01*
X0132001Y0185830D01*
X0131963Y0185784D01*
X0131927Y0185735D01*
X0131894Y0185684D01*
X0131865Y0185632D01*
X0131838Y0185577D01*
X0131815Y0185522D01*
X0131795Y0185465D01*
X0131779Y0185406D01*
X0131766Y0185347D01*
X0131757Y0185288D01*
X0131752Y0185227D01*
X0131750Y0185167D01*
X0131750Y0177167D01*
X0131752Y0177107D01*
X0131757Y0177046D01*
X0131766Y0176987D01*
X0131779Y0176928D01*
X0131795Y0176869D01*
X0131815Y0176812D01*
X0131838Y0176757D01*
X0131865Y0176702D01*
X0131894Y0176650D01*
X0131927Y0176599D01*
X0131963Y0176550D01*
X0132001Y0176504D01*
X0132043Y0176460D01*
X0132087Y0176418D01*
X0132133Y0176380D01*
X0132182Y0176344D01*
X0132233Y0176311D01*
X0132285Y0176282D01*
X0132340Y0176255D01*
X0132395Y0176232D01*
X0132452Y0176212D01*
X0132511Y0176196D01*
X0132570Y0176183D01*
X0132629Y0176174D01*
X0132690Y0176169D01*
X0132750Y0176167D01*
X0149750Y0176167D01*
X0149810Y0176169D01*
X0149871Y0176174D01*
X0149930Y0176183D01*
X0149989Y0176196D01*
X0150048Y0176212D01*
X0150105Y0176232D01*
X0150160Y0176255D01*
X0150215Y0176282D01*
X0150267Y0176311D01*
X0150318Y0176344D01*
X0150367Y0176380D01*
X0150413Y0176418D01*
X0150457Y0176460D01*
X0150499Y0176504D01*
X0150537Y0176550D01*
X0150573Y0176599D01*
X0150606Y0176650D01*
X0150635Y0176702D01*
X0150662Y0176757D01*
X0150685Y0176812D01*
X0150705Y0176869D01*
X0150721Y0176928D01*
X0150734Y0176987D01*
X0150743Y0177046D01*
X0150748Y0177107D01*
X0150750Y0177167D01*
X0149750Y0173667D02*
X0132750Y0173667D01*
X0132690Y0173665D01*
X0132629Y0173660D01*
X0132570Y0173651D01*
X0132511Y0173638D01*
X0132452Y0173622D01*
X0132395Y0173602D01*
X0132340Y0173579D01*
X0132285Y0173552D01*
X0132233Y0173523D01*
X0132182Y0173490D01*
X0132133Y0173454D01*
X0132087Y0173416D01*
X0132043Y0173374D01*
X0132001Y0173330D01*
X0131963Y0173284D01*
X0131927Y0173235D01*
X0131894Y0173184D01*
X0131865Y0173132D01*
X0131838Y0173077D01*
X0131815Y0173022D01*
X0131795Y0172965D01*
X0131779Y0172906D01*
X0131766Y0172847D01*
X0131757Y0172788D01*
X0131752Y0172727D01*
X0131750Y0172667D01*
X0131750Y0164667D01*
X0131752Y0164607D01*
X0131757Y0164546D01*
X0131766Y0164487D01*
X0131779Y0164428D01*
X0131795Y0164369D01*
X0131815Y0164312D01*
X0131838Y0164257D01*
X0131865Y0164202D01*
X0131894Y0164150D01*
X0131927Y0164099D01*
X0131963Y0164050D01*
X0132001Y0164004D01*
X0132043Y0163960D01*
X0132087Y0163918D01*
X0132133Y0163880D01*
X0132182Y0163844D01*
X0132233Y0163811D01*
X0132285Y0163782D01*
X0132340Y0163755D01*
X0132395Y0163732D01*
X0132452Y0163712D01*
X0132511Y0163696D01*
X0132570Y0163683D01*
X0132629Y0163674D01*
X0132690Y0163669D01*
X0132750Y0163667D01*
X0149750Y0163667D01*
X0149810Y0163669D01*
X0149871Y0163674D01*
X0149930Y0163683D01*
X0149989Y0163696D01*
X0150048Y0163712D01*
X0150105Y0163732D01*
X0150160Y0163755D01*
X0150215Y0163782D01*
X0150267Y0163811D01*
X0150318Y0163844D01*
X0150367Y0163880D01*
X0150413Y0163918D01*
X0150457Y0163960D01*
X0150499Y0164004D01*
X0150537Y0164050D01*
X0150573Y0164099D01*
X0150606Y0164150D01*
X0150635Y0164202D01*
X0150662Y0164257D01*
X0150685Y0164312D01*
X0150705Y0164369D01*
X0150721Y0164428D01*
X0150734Y0164487D01*
X0150743Y0164546D01*
X0150748Y0164607D01*
X0150750Y0164667D01*
X0150750Y0172667D01*
X0150748Y0172727D01*
X0150743Y0172788D01*
X0150734Y0172847D01*
X0150721Y0172906D01*
X0150705Y0172965D01*
X0150685Y0173022D01*
X0150662Y0173077D01*
X0150635Y0173132D01*
X0150606Y0173184D01*
X0150573Y0173235D01*
X0150537Y0173284D01*
X0150499Y0173330D01*
X0150457Y0173374D01*
X0150413Y0173416D01*
X0150367Y0173454D01*
X0150318Y0173490D01*
X0150267Y0173523D01*
X0150215Y0173552D01*
X0150160Y0173579D01*
X0150105Y0173602D01*
X0150048Y0173622D01*
X0149989Y0173638D01*
X0149930Y0173651D01*
X0149871Y0173660D01*
X0149810Y0173665D01*
X0149750Y0173667D01*
X0142750Y0168667D02*
X0142250Y0168667D01*
X0140250Y0168667D02*
X0139750Y0168667D01*
X0139750Y0181167D02*
X0140250Y0181167D01*
X0142250Y0181167D02*
X0142750Y0181167D01*
X0142750Y0193667D02*
X0142250Y0193667D01*
X0140250Y0193667D02*
X0139750Y0193667D01*
X0151750Y0196667D02*
X0151752Y0196743D01*
X0151758Y0196819D01*
X0151767Y0196894D01*
X0151781Y0196969D01*
X0151798Y0197043D01*
X0151819Y0197116D01*
X0151843Y0197188D01*
X0151872Y0197259D01*
X0151903Y0197328D01*
X0151938Y0197395D01*
X0151977Y0197460D01*
X0152019Y0197524D01*
X0152064Y0197585D01*
X0152112Y0197644D01*
X0152163Y0197700D01*
X0152217Y0197754D01*
X0152273Y0197805D01*
X0152332Y0197853D01*
X0152393Y0197898D01*
X0152457Y0197940D01*
X0152522Y0197979D01*
X0152589Y0198014D01*
X0152658Y0198045D01*
X0152729Y0198074D01*
X0152801Y0198098D01*
X0152874Y0198119D01*
X0152948Y0198136D01*
X0153023Y0198150D01*
X0153098Y0198159D01*
X0153174Y0198165D01*
X0153250Y0198167D01*
X0161250Y0189667D02*
X0161250Y0186167D01*
X0186250Y0194667D02*
X0186404Y0194665D01*
X0186558Y0194659D01*
X0186712Y0194649D01*
X0186866Y0194635D01*
X0187019Y0194618D01*
X0187171Y0194596D01*
X0187323Y0194570D01*
X0187475Y0194541D01*
X0187625Y0194507D01*
X0187775Y0194470D01*
X0187923Y0194429D01*
X0188071Y0194384D01*
X0188217Y0194335D01*
X0188362Y0194283D01*
X0188505Y0194227D01*
X0188648Y0194167D01*
X0188788Y0194104D01*
X0188927Y0194037D01*
X0189064Y0193966D01*
X0189199Y0193892D01*
X0189332Y0193815D01*
X0189464Y0193734D01*
X0189593Y0193650D01*
X0189720Y0193562D01*
X0189844Y0193471D01*
X0189966Y0193378D01*
X0190086Y0193280D01*
X0190203Y0193180D01*
X0190318Y0193077D01*
X0190430Y0192971D01*
X0190539Y0192863D01*
X0190645Y0192751D01*
X0190749Y0192637D01*
X0190849Y0192520D01*
X0190947Y0192401D01*
X0191041Y0192279D01*
X0191132Y0192154D01*
X0186250Y0182667D02*
X0186098Y0182669D01*
X0185947Y0182675D01*
X0185796Y0182684D01*
X0185644Y0182698D01*
X0185494Y0182715D01*
X0185344Y0182736D01*
X0185194Y0182761D01*
X0185045Y0182789D01*
X0184897Y0182822D01*
X0184750Y0182858D01*
X0184603Y0182897D01*
X0184458Y0182941D01*
X0184314Y0182988D01*
X0184171Y0183039D01*
X0184030Y0183093D01*
X0183889Y0183151D01*
X0183751Y0183212D01*
X0183614Y0183277D01*
X0183478Y0183346D01*
X0183345Y0183417D01*
X0183213Y0183492D01*
X0183083Y0183571D01*
X0182956Y0183652D01*
X0182830Y0183737D01*
X0182706Y0183825D01*
X0182585Y0183916D01*
X0182466Y0184010D01*
X0182350Y0184108D01*
X0182236Y0184208D01*
X0182124Y0184310D01*
X0182016Y0184416D01*
X0181910Y0184524D01*
X0181806Y0184635D01*
X0181706Y0184749D01*
X0181608Y0184865D01*
X0181514Y0184984D01*
X0186250Y0182667D02*
X0186402Y0182669D01*
X0186553Y0182675D01*
X0186704Y0182684D01*
X0186856Y0182698D01*
X0187006Y0182715D01*
X0187156Y0182736D01*
X0187306Y0182761D01*
X0187455Y0182789D01*
X0187603Y0182822D01*
X0187750Y0182858D01*
X0187897Y0182897D01*
X0188042Y0182941D01*
X0188186Y0182988D01*
X0188329Y0183039D01*
X0188470Y0183093D01*
X0188611Y0183151D01*
X0188749Y0183212D01*
X0188886Y0183277D01*
X0189022Y0183346D01*
X0189155Y0183417D01*
X0189287Y0183492D01*
X0189417Y0183571D01*
X0189544Y0183652D01*
X0189670Y0183737D01*
X0189794Y0183825D01*
X0189915Y0183916D01*
X0190034Y0184010D01*
X0190150Y0184108D01*
X0190264Y0184208D01*
X0190376Y0184310D01*
X0190484Y0184416D01*
X0190590Y0184524D01*
X0190694Y0184635D01*
X0190794Y0184749D01*
X0190892Y0184865D01*
X0190986Y0184984D01*
X0186250Y0194667D02*
X0186100Y0194665D01*
X0185949Y0194659D01*
X0185799Y0194650D01*
X0185650Y0194637D01*
X0185500Y0194620D01*
X0185351Y0194599D01*
X0185203Y0194575D01*
X0185055Y0194547D01*
X0184908Y0194515D01*
X0184762Y0194480D01*
X0184617Y0194440D01*
X0184473Y0194398D01*
X0184330Y0194351D01*
X0184188Y0194301D01*
X0184047Y0194248D01*
X0183908Y0194191D01*
X0183770Y0194131D01*
X0183634Y0194067D01*
X0183500Y0194000D01*
X0183367Y0193929D01*
X0183236Y0193855D01*
X0183107Y0193778D01*
X0182980Y0193697D01*
X0182855Y0193614D01*
X0182732Y0193527D01*
X0182611Y0193438D01*
X0182493Y0193345D01*
X0182377Y0193249D01*
X0182263Y0193151D01*
X0182152Y0193050D01*
X0182043Y0192945D01*
X0181938Y0192839D01*
X0181834Y0192729D01*
X0181734Y0192617D01*
X0181636Y0192503D01*
X0181542Y0192386D01*
X0181450Y0192267D01*
D12*
X0179304Y0184698D02*
X0179403Y0184529D01*
X0179507Y0184363D01*
X0179614Y0184199D01*
X0179725Y0184038D01*
X0179840Y0183880D01*
X0179959Y0183725D01*
X0180082Y0183572D01*
X0180208Y0183423D01*
X0180338Y0183277D01*
X0180472Y0183134D01*
X0180609Y0182994D01*
X0180749Y0182858D01*
X0180893Y0182725D01*
X0181040Y0182596D01*
X0181190Y0182470D01*
X0181343Y0182349D01*
X0181499Y0182230D01*
X0181658Y0182116D01*
X0181819Y0182006D01*
X0181984Y0181900D01*
X0182150Y0181797D01*
X0182320Y0181699D01*
X0182491Y0181605D01*
X0182665Y0181515D01*
X0182841Y0181430D01*
X0183019Y0181348D01*
X0183199Y0181272D01*
X0183381Y0181199D01*
X0183564Y0181131D01*
X0183749Y0181068D01*
X0183936Y0181009D01*
X0184124Y0180955D01*
X0184313Y0180905D01*
X0184503Y0180860D01*
X0184695Y0180820D01*
X0184887Y0180784D01*
X0185080Y0180753D01*
X0185274Y0180727D01*
X0185469Y0180705D01*
X0185664Y0180689D01*
X0185859Y0180677D01*
X0186055Y0180669D01*
X0186250Y0180667D01*
X0179191Y0192432D02*
X0179284Y0192600D01*
X0179380Y0192766D01*
X0179480Y0192930D01*
X0179585Y0193091D01*
X0179693Y0193250D01*
X0179805Y0193406D01*
X0179921Y0193560D01*
X0180040Y0193710D01*
X0180163Y0193858D01*
X0180289Y0194003D01*
X0180419Y0194144D01*
X0180552Y0194283D01*
X0180689Y0194418D01*
X0180829Y0194550D01*
X0180971Y0194678D01*
X0181117Y0194803D01*
X0181266Y0194925D01*
X0181418Y0195043D01*
X0181572Y0195157D01*
X0181730Y0195267D01*
X0181889Y0195374D01*
X0182052Y0195477D01*
X0182217Y0195576D01*
X0182384Y0195671D01*
X0182553Y0195761D01*
X0182724Y0195848D01*
X0182898Y0195931D01*
X0183073Y0196009D01*
X0183251Y0196083D01*
X0183430Y0196153D01*
X0183610Y0196219D01*
X0183792Y0196280D01*
X0183976Y0196337D01*
X0184161Y0196389D01*
X0184347Y0196437D01*
X0184534Y0196481D01*
X0184722Y0196520D01*
X0184911Y0196554D01*
X0185101Y0196584D01*
X0185291Y0196609D01*
X0185482Y0196630D01*
X0185674Y0196646D01*
X0185866Y0196658D01*
X0186058Y0196665D01*
X0186250Y0196667D01*
X0192357Y0183499D02*
X0192230Y0183353D01*
X0192101Y0183211D01*
X0191967Y0183071D01*
X0191831Y0182935D01*
X0191691Y0182802D01*
X0191548Y0182672D01*
X0191401Y0182546D01*
X0191252Y0182424D01*
X0191100Y0182305D01*
X0190945Y0182190D01*
X0190788Y0182078D01*
X0190628Y0181971D01*
X0190465Y0181867D01*
X0190299Y0181768D01*
X0190132Y0181672D01*
X0189962Y0181580D01*
X0189790Y0181493D01*
X0189616Y0181409D01*
X0189440Y0181330D01*
X0189262Y0181256D01*
X0189082Y0181185D01*
X0188901Y0181119D01*
X0188718Y0181057D01*
X0188534Y0181000D01*
X0188348Y0180947D01*
X0188161Y0180899D01*
X0187973Y0180855D01*
X0187784Y0180816D01*
X0187594Y0180781D01*
X0187404Y0180751D01*
X0187213Y0180725D01*
X0187021Y0180704D01*
X0186828Y0180688D01*
X0186636Y0180676D01*
X0186443Y0180669D01*
X0186250Y0180667D01*
X0192396Y0193789D02*
X0192269Y0193937D01*
X0192139Y0194082D01*
X0192006Y0194223D01*
X0191869Y0194362D01*
X0191729Y0194497D01*
X0191585Y0194628D01*
X0191438Y0194756D01*
X0191289Y0194881D01*
X0191136Y0195002D01*
X0190981Y0195119D01*
X0190822Y0195232D01*
X0190661Y0195341D01*
X0190497Y0195446D01*
X0190331Y0195548D01*
X0190162Y0195645D01*
X0189992Y0195738D01*
X0189818Y0195827D01*
X0189643Y0195912D01*
X0189466Y0195992D01*
X0189287Y0196068D01*
X0189106Y0196140D01*
X0188923Y0196207D01*
X0188739Y0196270D01*
X0188553Y0196328D01*
X0188366Y0196382D01*
X0188178Y0196431D01*
X0187988Y0196476D01*
X0187798Y0196516D01*
X0187606Y0196551D01*
X0187414Y0196582D01*
X0187221Y0196608D01*
X0187027Y0196629D01*
X0186833Y0196646D01*
X0186639Y0196658D01*
X0186445Y0196665D01*
X0186250Y0196667D01*
X0142250Y0196667D02*
X0142250Y0193667D01*
X0142250Y0190667D01*
X0140250Y0190667D02*
X0140250Y0193667D01*
X0140250Y0196667D01*
X0140250Y0184167D02*
X0140250Y0181167D01*
X0140250Y0178167D01*
X0142250Y0178167D02*
X0142250Y0181167D01*
X0142250Y0184167D01*
X0142250Y0171667D02*
X0142250Y0168667D01*
X0142250Y0165667D01*
X0140250Y0165667D02*
X0140250Y0168667D01*
X0140250Y0171667D01*
X0067250Y0046667D02*
X0067250Y0043667D01*
X0067250Y0040667D01*
X0065250Y0040667D02*
X0065250Y0043667D01*
X0065250Y0046667D01*
X0099304Y0009698D02*
X0099403Y0009529D01*
X0099507Y0009363D01*
X0099614Y0009199D01*
X0099725Y0009038D01*
X0099840Y0008880D01*
X0099959Y0008725D01*
X0100082Y0008572D01*
X0100208Y0008423D01*
X0100338Y0008277D01*
X0100472Y0008134D01*
X0100609Y0007994D01*
X0100749Y0007858D01*
X0100893Y0007725D01*
X0101040Y0007596D01*
X0101190Y0007470D01*
X0101343Y0007349D01*
X0101499Y0007230D01*
X0101658Y0007116D01*
X0101819Y0007006D01*
X0101984Y0006900D01*
X0102150Y0006797D01*
X0102320Y0006699D01*
X0102491Y0006605D01*
X0102665Y0006515D01*
X0102841Y0006430D01*
X0103019Y0006348D01*
X0103199Y0006272D01*
X0103381Y0006199D01*
X0103564Y0006131D01*
X0103749Y0006068D01*
X0103936Y0006009D01*
X0104124Y0005955D01*
X0104313Y0005905D01*
X0104503Y0005860D01*
X0104695Y0005820D01*
X0104887Y0005784D01*
X0105080Y0005753D01*
X0105274Y0005727D01*
X0105469Y0005705D01*
X0105664Y0005689D01*
X0105859Y0005677D01*
X0106055Y0005669D01*
X0106250Y0005667D01*
X0099191Y0017432D02*
X0099284Y0017600D01*
X0099380Y0017766D01*
X0099480Y0017930D01*
X0099585Y0018091D01*
X0099693Y0018250D01*
X0099805Y0018406D01*
X0099921Y0018560D01*
X0100040Y0018710D01*
X0100163Y0018858D01*
X0100289Y0019003D01*
X0100419Y0019144D01*
X0100552Y0019283D01*
X0100689Y0019418D01*
X0100829Y0019550D01*
X0100971Y0019678D01*
X0101117Y0019803D01*
X0101266Y0019925D01*
X0101418Y0020043D01*
X0101572Y0020157D01*
X0101730Y0020267D01*
X0101889Y0020374D01*
X0102052Y0020477D01*
X0102217Y0020576D01*
X0102384Y0020671D01*
X0102553Y0020761D01*
X0102724Y0020848D01*
X0102898Y0020931D01*
X0103073Y0021009D01*
X0103251Y0021083D01*
X0103430Y0021153D01*
X0103610Y0021219D01*
X0103792Y0021280D01*
X0103976Y0021337D01*
X0104161Y0021389D01*
X0104347Y0021437D01*
X0104534Y0021481D01*
X0104722Y0021520D01*
X0104911Y0021554D01*
X0105101Y0021584D01*
X0105291Y0021609D01*
X0105482Y0021630D01*
X0105674Y0021646D01*
X0105866Y0021658D01*
X0106058Y0021665D01*
X0106250Y0021667D01*
X0112357Y0008499D02*
X0112230Y0008353D01*
X0112101Y0008211D01*
X0111967Y0008071D01*
X0111831Y0007935D01*
X0111691Y0007802D01*
X0111548Y0007672D01*
X0111401Y0007546D01*
X0111252Y0007424D01*
X0111100Y0007305D01*
X0110945Y0007190D01*
X0110788Y0007078D01*
X0110628Y0006971D01*
X0110465Y0006867D01*
X0110299Y0006768D01*
X0110132Y0006672D01*
X0109962Y0006580D01*
X0109790Y0006493D01*
X0109616Y0006409D01*
X0109440Y0006330D01*
X0109262Y0006256D01*
X0109082Y0006185D01*
X0108901Y0006119D01*
X0108718Y0006057D01*
X0108534Y0006000D01*
X0108348Y0005947D01*
X0108161Y0005899D01*
X0107973Y0005855D01*
X0107784Y0005816D01*
X0107594Y0005781D01*
X0107404Y0005751D01*
X0107213Y0005725D01*
X0107021Y0005704D01*
X0106828Y0005688D01*
X0106636Y0005676D01*
X0106443Y0005669D01*
X0106250Y0005667D01*
X0112396Y0018789D02*
X0112269Y0018937D01*
X0112139Y0019082D01*
X0112006Y0019223D01*
X0111869Y0019362D01*
X0111729Y0019497D01*
X0111585Y0019628D01*
X0111438Y0019756D01*
X0111289Y0019881D01*
X0111136Y0020002D01*
X0110981Y0020119D01*
X0110822Y0020232D01*
X0110661Y0020341D01*
X0110497Y0020446D01*
X0110331Y0020548D01*
X0110162Y0020645D01*
X0109992Y0020738D01*
X0109818Y0020827D01*
X0109643Y0020912D01*
X0109466Y0020992D01*
X0109287Y0021068D01*
X0109106Y0021140D01*
X0108923Y0021207D01*
X0108739Y0021270D01*
X0108553Y0021328D01*
X0108366Y0021382D01*
X0108178Y0021431D01*
X0107988Y0021476D01*
X0107798Y0021516D01*
X0107606Y0021551D01*
X0107414Y0021582D01*
X0107221Y0021608D01*
X0107027Y0021629D01*
X0106833Y0021646D01*
X0106639Y0021658D01*
X0106445Y0021665D01*
X0106250Y0021667D01*
D13*
X0105656Y0017501D02*
X0105656Y0016234D01*
X0105973Y0015917D01*
X0105973Y0017184D02*
X0105340Y0017184D01*
X0104397Y0016867D02*
X0104397Y0016551D01*
X0103130Y0016551D01*
X0103130Y0016867D02*
X0103447Y0017184D01*
X0104080Y0017184D01*
X0104397Y0016867D01*
X0104080Y0015917D02*
X0103447Y0015917D01*
X0103130Y0016234D01*
X0103130Y0016867D01*
X0102187Y0017184D02*
X0101237Y0017184D01*
X0100920Y0016867D01*
X0101237Y0016551D01*
X0101871Y0016551D01*
X0102187Y0016234D01*
X0101871Y0015917D01*
X0100920Y0015917D01*
X0099978Y0016551D02*
X0098710Y0016551D01*
X0098710Y0016867D02*
X0099027Y0017184D01*
X0099661Y0017184D01*
X0099978Y0016867D01*
X0099978Y0016551D01*
X0099661Y0015917D02*
X0099027Y0015917D01*
X0098710Y0016234D01*
X0098710Y0016867D01*
X0097768Y0016867D02*
X0097451Y0016551D01*
X0096500Y0016551D01*
X0097134Y0016551D02*
X0097768Y0015917D01*
X0097768Y0016867D02*
X0097768Y0017501D01*
X0097451Y0017818D01*
X0096500Y0017818D01*
X0096500Y0015917D01*
X0096817Y0019417D02*
X0096500Y0019734D01*
X0096500Y0021318D01*
X0097768Y0021318D02*
X0097768Y0019734D01*
X0097451Y0019417D01*
X0096817Y0019417D01*
X0098710Y0019734D02*
X0099027Y0019417D01*
X0099661Y0019417D01*
X0099978Y0019734D01*
X0099978Y0020051D01*
X0099661Y0020367D01*
X0099027Y0020367D01*
X0098710Y0020684D01*
X0098710Y0021001D01*
X0099027Y0021318D01*
X0099661Y0021318D01*
X0099978Y0021001D01*
X0099344Y0021635D02*
X0099344Y0019100D01*
X0100920Y0020367D02*
X0102187Y0020367D01*
X0101871Y0019417D02*
X0101871Y0021318D01*
X0100920Y0020367D01*
X0114000Y0019920D02*
X0114000Y0015417D01*
X0117003Y0015417D01*
X0118604Y0015417D02*
X0121606Y0015417D01*
X0123208Y0015417D02*
X0125460Y0015417D01*
X0126210Y0016167D01*
X0126210Y0019170D01*
X0125460Y0019920D01*
X0123208Y0019920D01*
X0123208Y0015417D01*
X0120105Y0017669D02*
X0118604Y0017669D01*
X0118604Y0019920D02*
X0118604Y0015417D01*
X0116252Y0011920D02*
X0114751Y0011920D01*
X0114000Y0011170D01*
X0114000Y0008167D01*
X0114751Y0007417D01*
X0116252Y0007417D01*
X0117003Y0008167D01*
X0117003Y0009669D01*
X0115501Y0009669D01*
X0117003Y0011170D02*
X0116252Y0011920D01*
X0118604Y0010419D02*
X0118604Y0007417D01*
X0118604Y0008918D02*
X0120105Y0010419D01*
X0120856Y0010419D01*
X0122441Y0009669D02*
X0123191Y0010419D01*
X0124692Y0010419D01*
X0125443Y0009669D01*
X0125443Y0008918D01*
X0122441Y0008918D01*
X0122441Y0008167D02*
X0122441Y0009669D01*
X0122441Y0008167D02*
X0123191Y0007417D01*
X0124692Y0007417D01*
X0127044Y0008167D02*
X0127044Y0009669D01*
X0127795Y0010419D01*
X0129296Y0010419D01*
X0130047Y0009669D01*
X0130047Y0008918D01*
X0127044Y0008918D01*
X0127044Y0008167D02*
X0127795Y0007417D01*
X0129296Y0007417D01*
X0131648Y0007417D02*
X0131648Y0010419D01*
X0133900Y0010419D01*
X0134651Y0009669D01*
X0134651Y0007417D01*
X0137339Y0011417D02*
X0136588Y0012167D01*
X0137339Y0011417D02*
X0138840Y0011417D01*
X0139591Y0012167D01*
X0139591Y0012918D01*
X0138840Y0013669D01*
X0138089Y0013669D01*
X0138840Y0013669D02*
X0139591Y0014419D01*
X0139591Y0015170D01*
X0138840Y0015920D01*
X0137339Y0015920D01*
X0136588Y0015170D01*
X0141192Y0015170D02*
X0141943Y0015920D01*
X0143444Y0015920D01*
X0144195Y0015170D01*
X0144195Y0014419D01*
X0143444Y0013669D01*
X0144195Y0012918D01*
X0144195Y0012167D01*
X0143444Y0011417D01*
X0141943Y0011417D01*
X0141192Y0012167D01*
X0142693Y0013669D02*
X0143444Y0013669D01*
X0145796Y0012167D02*
X0145796Y0015170D01*
X0146547Y0015920D01*
X0148048Y0015920D01*
X0148799Y0015170D01*
X0145796Y0012167D01*
X0146547Y0011417D01*
X0148048Y0011417D01*
X0148799Y0012167D01*
X0148799Y0015170D01*
X0149647Y0007420D02*
X0148896Y0006670D01*
X0149647Y0007420D02*
X0151148Y0007420D01*
X0151899Y0006670D01*
X0151899Y0005919D01*
X0148896Y0002917D01*
X0151899Y0002917D01*
X0147295Y0002917D02*
X0145793Y0004418D01*
X0146544Y0004418D02*
X0144292Y0004418D01*
X0144292Y0002917D02*
X0144292Y0007420D01*
X0146544Y0007420D01*
X0147295Y0006670D01*
X0147295Y0005169D01*
X0146544Y0004418D01*
X0130814Y0015417D02*
X0127812Y0015417D01*
X0130814Y0018419D01*
X0130814Y0019170D01*
X0130064Y0019920D01*
X0128562Y0019920D01*
X0127812Y0019170D01*
X0121606Y0019920D02*
X0118604Y0019920D01*
X0081250Y0018667D02*
X0076250Y0018667D01*
X0073750Y0021167D01*
X0073750Y0018667D02*
X0071250Y0018667D01*
X0069080Y0017184D02*
X0068764Y0017184D01*
X0068130Y0016551D01*
X0068130Y0017184D02*
X0068130Y0015917D01*
X0067188Y0016551D02*
X0065920Y0016551D01*
X0065920Y0016867D02*
X0066237Y0017184D01*
X0066871Y0017184D01*
X0067188Y0016867D01*
X0067188Y0016551D01*
X0066871Y0015917D02*
X0066237Y0015917D01*
X0065920Y0016234D01*
X0065920Y0016867D01*
X0064978Y0017184D02*
X0064027Y0017184D01*
X0063710Y0016867D01*
X0064027Y0016551D01*
X0064661Y0016551D01*
X0064978Y0016234D01*
X0064661Y0015917D01*
X0063710Y0015917D01*
X0062768Y0016234D02*
X0062768Y0017818D01*
X0061500Y0017818D02*
X0061500Y0016234D01*
X0061817Y0015917D01*
X0062451Y0015917D01*
X0062768Y0016234D01*
X0062451Y0019417D02*
X0061817Y0019417D01*
X0061500Y0019734D01*
X0061500Y0021318D01*
X0062768Y0021318D02*
X0062768Y0019734D01*
X0062451Y0019417D01*
X0063710Y0019734D02*
X0064027Y0019417D01*
X0064661Y0019417D01*
X0064978Y0019734D01*
X0064978Y0020051D01*
X0064661Y0020367D01*
X0064027Y0020367D01*
X0063710Y0020684D01*
X0063710Y0021001D01*
X0064027Y0021318D01*
X0064661Y0021318D01*
X0064978Y0021001D01*
X0064344Y0021635D02*
X0064344Y0019100D01*
X0065920Y0019734D02*
X0066237Y0019417D01*
X0066871Y0019417D01*
X0067188Y0019734D01*
X0067188Y0020367D01*
X0066871Y0020684D01*
X0066554Y0020684D01*
X0065920Y0020367D01*
X0065920Y0021318D01*
X0067188Y0021318D01*
X0067408Y0032917D02*
X0064406Y0032917D01*
X0065907Y0032917D02*
X0065907Y0037420D01*
X0064406Y0035919D01*
X0062855Y0033667D02*
X0062104Y0033667D01*
X0062104Y0032917D01*
X0062855Y0032917D01*
X0062855Y0033667D01*
X0060503Y0033667D02*
X0060503Y0036670D01*
X0057500Y0033667D01*
X0058251Y0032917D01*
X0059752Y0032917D01*
X0060503Y0033667D01*
X0060503Y0036670D02*
X0059752Y0037420D01*
X0058251Y0037420D01*
X0057500Y0036670D01*
X0057500Y0033667D01*
X0069010Y0033667D02*
X0069760Y0032917D01*
X0072012Y0032917D01*
X0072012Y0035919D01*
X0073614Y0035169D02*
X0075115Y0035169D01*
X0073614Y0037420D02*
X0073614Y0032917D01*
X0073614Y0037420D02*
X0076616Y0037420D01*
X0069010Y0035919D02*
X0069010Y0033667D01*
X0065106Y0049917D02*
X0062104Y0049917D01*
X0063605Y0049917D02*
X0063605Y0054420D01*
X0062104Y0052919D01*
X0060503Y0053670D02*
X0059752Y0054420D01*
X0058251Y0054420D01*
X0057500Y0053670D01*
X0057500Y0050667D01*
X0058251Y0049917D01*
X0059752Y0049917D01*
X0060503Y0050667D01*
X0053500Y0050017D02*
X0053500Y0053019D01*
X0053500Y0051518D02*
X0048996Y0051518D01*
X0050497Y0050017D01*
X0049747Y0054621D02*
X0048996Y0055371D01*
X0048996Y0056873D01*
X0049747Y0057623D01*
X0052749Y0054621D01*
X0053500Y0055371D01*
X0053500Y0056873D01*
X0052749Y0057623D01*
X0049747Y0057623D01*
X0048996Y0059225D02*
X0053500Y0059225D01*
X0051999Y0059225D02*
X0050497Y0061476D01*
X0051999Y0059225D02*
X0053500Y0061476D01*
X0052749Y0054621D02*
X0049747Y0054621D01*
X0045000Y0053773D02*
X0040496Y0053773D01*
X0042748Y0051521D01*
X0042748Y0054523D01*
X0042748Y0049919D02*
X0043499Y0049169D01*
X0043499Y0046917D01*
X0043499Y0048418D02*
X0045000Y0049919D01*
X0042748Y0049919D02*
X0041247Y0049919D01*
X0040496Y0049169D01*
X0040496Y0046917D01*
X0045000Y0046917D01*
X0033500Y0050017D02*
X0033500Y0053019D01*
X0033500Y0051518D02*
X0028996Y0051518D01*
X0030497Y0050017D01*
X0029747Y0054621D02*
X0028996Y0055371D01*
X0028996Y0056873D01*
X0029747Y0057623D01*
X0032749Y0054621D01*
X0033500Y0055371D01*
X0033500Y0056873D01*
X0032749Y0057623D01*
X0029747Y0057623D01*
X0028996Y0059225D02*
X0033500Y0059225D01*
X0031999Y0059225D02*
X0030497Y0061476D01*
X0031999Y0059225D02*
X0033500Y0061476D01*
X0032749Y0054621D02*
X0029747Y0054621D01*
X0025000Y0053773D02*
X0025000Y0052271D01*
X0024249Y0051521D01*
X0025000Y0049919D02*
X0023499Y0048418D01*
X0023499Y0049169D02*
X0023499Y0046917D01*
X0025000Y0046917D02*
X0020496Y0046917D01*
X0020496Y0049169D01*
X0021247Y0049919D01*
X0022748Y0049919D01*
X0023499Y0049169D01*
X0021247Y0051521D02*
X0020496Y0052271D01*
X0020496Y0053773D01*
X0021247Y0054523D01*
X0021997Y0054523D01*
X0022748Y0053773D01*
X0023499Y0054523D01*
X0024249Y0054523D01*
X0025000Y0053773D01*
X0022748Y0053773D02*
X0022748Y0053022D01*
X0019000Y0053917D02*
X0017098Y0053917D01*
X0017098Y0054867D01*
X0017415Y0055184D01*
X0018049Y0055184D01*
X0018366Y0054867D01*
X0018366Y0053917D01*
X0019000Y0056127D02*
X0019000Y0056760D01*
X0019000Y0056443D02*
X0017098Y0056443D01*
X0017098Y0056127D02*
X0017098Y0056760D01*
X0017415Y0057600D02*
X0017098Y0057917D01*
X0017098Y0058551D01*
X0017415Y0058868D01*
X0017098Y0059810D02*
X0019000Y0059810D01*
X0018366Y0059810D02*
X0017098Y0061077D01*
X0017098Y0062020D02*
X0017098Y0062653D01*
X0017098Y0062336D02*
X0019000Y0062336D01*
X0019000Y0062020D02*
X0019000Y0062653D01*
X0018683Y0063917D02*
X0019000Y0064234D01*
X0019000Y0064867D01*
X0018683Y0065184D01*
X0018683Y0065703D02*
X0019000Y0066020D01*
X0019000Y0066653D01*
X0018683Y0066970D01*
X0018366Y0066970D01*
X0018049Y0066653D01*
X0018049Y0066337D01*
X0018049Y0066653D02*
X0017732Y0066970D01*
X0017415Y0066970D01*
X0017098Y0066653D01*
X0017098Y0066020D01*
X0017415Y0065703D01*
X0017415Y0066127D02*
X0018683Y0066127D01*
X0019000Y0066443D01*
X0019000Y0067077D01*
X0018683Y0067394D01*
X0017415Y0067394D01*
X0017098Y0067077D01*
X0017098Y0066443D01*
X0017415Y0066127D01*
X0017415Y0065184D02*
X0017098Y0064867D01*
X0017098Y0064234D01*
X0017415Y0063917D01*
X0018683Y0063917D01*
X0019000Y0064127D02*
X0017098Y0064127D01*
X0017098Y0063493D02*
X0017098Y0064761D01*
X0017098Y0068336D02*
X0019000Y0069604D01*
X0017098Y0069604D01*
X0017098Y0070546D02*
X0019000Y0071814D01*
X0017098Y0071814D01*
X0017098Y0070546D02*
X0019000Y0070546D01*
X0019000Y0068336D02*
X0017098Y0068336D01*
X0019317Y0072756D02*
X0019317Y0074024D01*
X0018683Y0074966D02*
X0017415Y0076234D01*
X0018683Y0076234D01*
X0019000Y0075917D01*
X0019000Y0075283D01*
X0018683Y0074966D01*
X0017415Y0074966D01*
X0017098Y0075283D01*
X0017098Y0075917D01*
X0017415Y0076234D01*
X0017415Y0077176D02*
X0017732Y0077176D01*
X0018049Y0077493D01*
X0018049Y0078127D01*
X0018366Y0078444D01*
X0018683Y0078444D01*
X0019000Y0078127D01*
X0019000Y0077493D01*
X0018683Y0077176D01*
X0018366Y0077176D01*
X0018049Y0077493D01*
X0018049Y0078127D02*
X0017732Y0078444D01*
X0017415Y0078444D01*
X0017098Y0078127D01*
X0017098Y0077493D01*
X0017415Y0077176D01*
X0005500Y0068336D02*
X0005183Y0068336D01*
X0003915Y0069604D01*
X0003598Y0069604D01*
X0003598Y0068336D01*
X0003915Y0067394D02*
X0003598Y0067077D01*
X0003598Y0066443D01*
X0003915Y0066127D01*
X0004232Y0066127D01*
X0004549Y0066443D01*
X0004549Y0067077D01*
X0004866Y0067394D01*
X0005183Y0067394D01*
X0005500Y0067077D01*
X0005500Y0066443D01*
X0005183Y0066127D01*
X0005817Y0066760D02*
X0003281Y0066760D01*
X0003598Y0065184D02*
X0005183Y0065184D01*
X0005500Y0064867D01*
X0005500Y0064234D01*
X0005183Y0063917D01*
X0003598Y0063917D01*
X0018049Y0060127D02*
X0019000Y0061077D01*
X0018683Y0058868D02*
X0019000Y0058551D01*
X0019000Y0057917D01*
X0018683Y0057600D01*
X0017415Y0057600D01*
X0001250Y0023667D02*
X0001250Y0013667D01*
X0006250Y0018667D01*
X0001250Y0023667D01*
X0001250Y0023607D02*
X0001310Y0023607D01*
X0001250Y0023109D02*
X0001808Y0023109D01*
X0002307Y0022610D02*
X0001250Y0022610D01*
X0001250Y0022112D02*
X0002805Y0022112D01*
X0003304Y0021613D02*
X0001250Y0021613D01*
X0001250Y0021115D02*
X0003802Y0021115D01*
X0004301Y0020616D02*
X0001250Y0020616D01*
X0001250Y0020118D02*
X0004799Y0020118D01*
X0005298Y0019619D02*
X0001250Y0019619D01*
X0001250Y0019121D02*
X0005796Y0019121D01*
X0006205Y0018622D02*
X0001250Y0018622D01*
X0001250Y0018123D02*
X0005707Y0018123D01*
X0005208Y0017625D02*
X0001250Y0017625D01*
X0001250Y0017126D02*
X0004710Y0017126D01*
X0004211Y0016628D02*
X0001250Y0016628D01*
X0001250Y0016129D02*
X0003713Y0016129D01*
X0003214Y0015631D02*
X0001250Y0015631D01*
X0001250Y0015132D02*
X0002716Y0015132D01*
X0002217Y0014634D02*
X0001250Y0014634D01*
X0001250Y0014135D02*
X0001719Y0014135D01*
X0018281Y0016760D02*
X0020817Y0016760D01*
X0020500Y0016443D02*
X0020500Y0017077D01*
X0020183Y0017394D01*
X0019866Y0017394D01*
X0019549Y0017077D01*
X0019549Y0016443D01*
X0019232Y0016127D01*
X0018915Y0016127D01*
X0018598Y0016443D01*
X0018598Y0017077D01*
X0018915Y0017394D01*
X0018915Y0018336D02*
X0019232Y0018336D01*
X0019549Y0018653D01*
X0019549Y0019287D01*
X0019866Y0019604D01*
X0020183Y0019604D01*
X0020500Y0019287D01*
X0020500Y0018653D01*
X0020183Y0018336D01*
X0019866Y0018336D01*
X0019549Y0018653D01*
X0019549Y0019287D02*
X0019232Y0019604D01*
X0018915Y0019604D01*
X0018598Y0019287D01*
X0018598Y0018653D01*
X0018915Y0018336D01*
X0020500Y0016443D02*
X0020183Y0016127D01*
X0020183Y0015184D02*
X0018598Y0015184D01*
X0018598Y0013917D02*
X0020183Y0013917D01*
X0020500Y0014234D01*
X0020500Y0014867D01*
X0020183Y0015184D01*
X0036250Y0018667D02*
X0038750Y0018667D01*
X0038750Y0021167D02*
X0041250Y0018667D01*
X0046250Y0018667D01*
X0063815Y0082867D02*
X0064132Y0082867D01*
X0064449Y0083184D01*
X0064449Y0083818D01*
X0064766Y0084135D01*
X0065083Y0084135D01*
X0065400Y0083818D01*
X0065400Y0083184D01*
X0065083Y0082867D01*
X0064766Y0082867D01*
X0064449Y0083184D01*
X0064449Y0083818D02*
X0064132Y0084135D01*
X0063815Y0084135D01*
X0063498Y0083818D01*
X0063498Y0083184D01*
X0063815Y0082867D01*
X0063498Y0087287D02*
X0064132Y0087921D01*
X0063498Y0088555D01*
X0065400Y0088555D01*
X0065400Y0089497D02*
X0063498Y0089497D01*
X0064449Y0089497D02*
X0064449Y0090765D01*
X0063498Y0090765D02*
X0065400Y0090765D01*
X0065400Y0091707D02*
X0065400Y0092974D01*
X0065400Y0091707D02*
X0064132Y0092974D01*
X0064132Y0091707D01*
X0063498Y0087287D02*
X0065400Y0087287D01*
X0076998Y0087287D02*
X0078583Y0087287D01*
X0078900Y0087604D01*
X0078900Y0088238D01*
X0078583Y0088555D01*
X0076998Y0088555D01*
X0077315Y0089497D02*
X0076998Y0089814D01*
X0076998Y0090448D01*
X0077315Y0090765D01*
X0077949Y0090448D02*
X0077949Y0089814D01*
X0077632Y0089497D01*
X0077315Y0089497D01*
X0076681Y0090131D02*
X0079217Y0090131D01*
X0078900Y0090448D02*
X0078583Y0090765D01*
X0078266Y0090765D01*
X0077949Y0090448D01*
X0078900Y0090448D02*
X0078900Y0089814D01*
X0078583Y0089497D01*
X0078583Y0091707D02*
X0078900Y0092024D01*
X0078900Y0092658D01*
X0078583Y0092974D01*
X0077315Y0092974D01*
X0076998Y0092658D01*
X0076998Y0092024D01*
X0077315Y0091707D01*
X0077632Y0091707D01*
X0077949Y0092024D01*
X0077949Y0092974D01*
X0135000Y0115667D02*
X0135751Y0114917D01*
X0137252Y0114917D01*
X0138003Y0115667D01*
X0139604Y0115667D02*
X0140355Y0114917D01*
X0141856Y0114917D01*
X0142606Y0115667D01*
X0142606Y0117169D01*
X0141856Y0117919D01*
X0141105Y0117919D01*
X0139604Y0117169D01*
X0139604Y0119420D01*
X0142606Y0119420D01*
X0138003Y0118670D02*
X0137252Y0119420D01*
X0135751Y0119420D01*
X0135000Y0118670D01*
X0135000Y0115667D01*
X0163000Y0100419D02*
X0164501Y0101920D01*
X0164501Y0097417D01*
X0163000Y0097417D02*
X0166003Y0097417D01*
X0167604Y0098167D02*
X0167604Y0101170D01*
X0168355Y0101920D01*
X0169856Y0101920D01*
X0170606Y0101170D01*
X0167604Y0098167D01*
X0168355Y0097417D01*
X0169856Y0097417D01*
X0170606Y0098167D01*
X0170606Y0101170D01*
X0172208Y0100419D02*
X0172208Y0098167D01*
X0172958Y0097417D01*
X0175210Y0097417D01*
X0175210Y0100419D01*
X0176812Y0099669D02*
X0178313Y0099669D01*
X0176812Y0101920D02*
X0176812Y0097417D01*
X0176812Y0101920D02*
X0179814Y0101920D01*
X0204098Y0078127D02*
X0204415Y0078444D01*
X0204732Y0078444D01*
X0205049Y0078127D01*
X0205049Y0077493D01*
X0204732Y0077176D01*
X0204415Y0077176D01*
X0204098Y0077493D01*
X0204098Y0078127D01*
X0205049Y0078127D02*
X0205366Y0078444D01*
X0205683Y0078444D01*
X0206000Y0078127D01*
X0206000Y0077493D01*
X0205683Y0077176D01*
X0205366Y0077176D01*
X0205049Y0077493D01*
X0204415Y0076234D02*
X0205683Y0074966D01*
X0206000Y0075283D01*
X0206000Y0075917D01*
X0205683Y0076234D01*
X0204415Y0076234D01*
X0204098Y0075917D01*
X0204098Y0075283D01*
X0204415Y0074966D01*
X0205683Y0074966D01*
X0206317Y0074024D02*
X0206317Y0072756D01*
X0206000Y0071814D02*
X0204098Y0070546D01*
X0206000Y0070546D01*
X0206000Y0069604D02*
X0204098Y0069604D01*
X0204098Y0068336D02*
X0206000Y0069604D01*
X0206000Y0068336D02*
X0204098Y0068336D01*
X0204415Y0067394D02*
X0204098Y0067077D01*
X0204098Y0066443D01*
X0204415Y0066127D01*
X0205683Y0066127D01*
X0206000Y0066443D01*
X0206000Y0067077D01*
X0205683Y0067394D01*
X0204415Y0067394D01*
X0204415Y0065184D02*
X0204098Y0064867D01*
X0204098Y0064234D01*
X0204415Y0063917D01*
X0205683Y0063917D01*
X0206000Y0064234D01*
X0206000Y0064867D01*
X0205683Y0065184D01*
X0206000Y0071814D02*
X0204098Y0071814D01*
X0192500Y0069287D02*
X0192183Y0069604D01*
X0191866Y0069604D01*
X0191549Y0069287D01*
X0191549Y0068336D01*
X0192183Y0068336D01*
X0192500Y0068653D01*
X0192500Y0069287D01*
X0191549Y0068336D02*
X0190915Y0068970D01*
X0190598Y0069604D01*
X0190915Y0067394D02*
X0190598Y0067077D01*
X0190598Y0066443D01*
X0190915Y0066127D01*
X0191232Y0066127D01*
X0191549Y0066443D01*
X0191549Y0067077D01*
X0191866Y0067394D01*
X0192183Y0067394D01*
X0192500Y0067077D01*
X0192500Y0066443D01*
X0192183Y0066127D01*
X0192817Y0066760D02*
X0190281Y0066760D01*
X0190598Y0065184D02*
X0192183Y0065184D01*
X0192500Y0064867D01*
X0192500Y0064234D01*
X0192183Y0063917D01*
X0190598Y0063917D01*
X0180000Y0141917D02*
X0175496Y0141917D01*
X0175496Y0144169D01*
X0176247Y0144919D01*
X0177748Y0144919D01*
X0178499Y0144169D01*
X0178499Y0141917D01*
X0178499Y0143418D02*
X0180000Y0144919D01*
X0180000Y0146521D02*
X0180000Y0149523D01*
X0180000Y0148022D02*
X0175496Y0148022D01*
X0176997Y0146521D01*
X0183996Y0147269D02*
X0183996Y0145767D01*
X0184747Y0145017D01*
X0186248Y0146518D02*
X0186248Y0147269D01*
X0186999Y0148019D01*
X0187749Y0148019D01*
X0188500Y0147269D01*
X0188500Y0145767D01*
X0187749Y0145017D01*
X0186248Y0147269D02*
X0185497Y0148019D01*
X0184747Y0148019D01*
X0183996Y0147269D01*
X0184747Y0149621D02*
X0183996Y0150371D01*
X0183996Y0151873D01*
X0184747Y0152623D01*
X0185497Y0152623D01*
X0186248Y0151873D01*
X0186999Y0152623D01*
X0187749Y0152623D01*
X0188500Y0151873D01*
X0188500Y0150371D01*
X0187749Y0149621D01*
X0186248Y0151122D02*
X0186248Y0151873D01*
X0184747Y0154225D02*
X0183996Y0154975D01*
X0183996Y0156476D01*
X0184747Y0157227D01*
X0187749Y0154225D01*
X0188500Y0154975D01*
X0188500Y0156476D01*
X0187749Y0157227D01*
X0184747Y0157227D01*
X0184747Y0154225D02*
X0187749Y0154225D01*
X0194000Y0182417D02*
X0194000Y0186920D01*
X0196252Y0186920D01*
X0197003Y0186170D01*
X0197003Y0184669D01*
X0196252Y0183918D01*
X0194000Y0183918D01*
X0195501Y0183918D02*
X0197003Y0182417D01*
X0198604Y0183167D02*
X0198604Y0184669D01*
X0199355Y0185419D01*
X0200856Y0185419D01*
X0201606Y0184669D01*
X0201606Y0183918D01*
X0198604Y0183918D01*
X0198604Y0183167D02*
X0199355Y0182417D01*
X0200856Y0182417D01*
X0203208Y0183167D02*
X0203208Y0184669D01*
X0203958Y0185419D01*
X0206210Y0185419D01*
X0206210Y0186920D02*
X0206210Y0182417D01*
X0203958Y0182417D01*
X0203208Y0183167D01*
X0203208Y0190417D02*
X0205460Y0190417D01*
X0206210Y0191167D01*
X0206210Y0194170D01*
X0205460Y0194920D01*
X0203208Y0194920D01*
X0203208Y0190417D01*
X0201606Y0190417D02*
X0198604Y0190417D01*
X0198604Y0194920D01*
X0201606Y0194920D01*
X0200105Y0192669D02*
X0198604Y0192669D01*
X0197003Y0190417D02*
X0194000Y0190417D01*
X0194000Y0194920D01*
X0207812Y0193419D02*
X0209313Y0194920D01*
X0209313Y0190417D01*
X0207812Y0190417D02*
X0210814Y0190417D01*
X0167500Y0200417D02*
X0167500Y0203419D01*
X0167500Y0201918D02*
X0162996Y0201918D01*
X0164497Y0200417D01*
X0163747Y0205021D02*
X0162996Y0205771D01*
X0162996Y0207273D01*
X0163747Y0208023D01*
X0166749Y0205021D01*
X0167500Y0205771D01*
X0167500Y0207273D01*
X0166749Y0208023D01*
X0163747Y0208023D01*
X0164497Y0209625D02*
X0166749Y0209625D01*
X0167500Y0210375D01*
X0167500Y0212627D01*
X0164497Y0212627D01*
X0165248Y0214228D02*
X0165248Y0215730D01*
X0162996Y0214228D02*
X0162996Y0217231D01*
X0162996Y0214228D02*
X0167500Y0214228D01*
X0166749Y0205021D02*
X0163747Y0205021D01*
X0158875Y0188420D02*
X0157374Y0188420D01*
X0156624Y0187670D01*
X0155022Y0187670D02*
X0152020Y0184667D01*
X0152770Y0183917D01*
X0154272Y0183917D01*
X0155022Y0184667D01*
X0155022Y0187670D01*
X0154272Y0188420D01*
X0152770Y0188420D01*
X0152020Y0187670D01*
X0152020Y0184667D01*
X0150115Y0185169D02*
X0148614Y0185169D01*
X0147416Y0184667D02*
X0150418Y0187670D01*
X0150418Y0188420D01*
X0147416Y0188420D01*
X0148614Y0187420D02*
X0151616Y0187420D01*
X0148614Y0187420D02*
X0148614Y0182917D01*
X0147416Y0183917D02*
X0147416Y0184667D01*
X0147012Y0185919D02*
X0147012Y0182917D01*
X0144760Y0182917D01*
X0144010Y0183667D01*
X0144010Y0185919D01*
X0142812Y0186919D02*
X0144313Y0188420D01*
X0144313Y0183917D01*
X0142812Y0183917D02*
X0145814Y0183917D01*
X0142408Y0182917D02*
X0139406Y0182917D01*
X0140907Y0182917D02*
X0140907Y0187420D01*
X0139406Y0185919D01*
X0140460Y0185418D02*
X0138208Y0185418D01*
X0138208Y0183917D02*
X0138208Y0188420D01*
X0140460Y0188420D01*
X0141210Y0187670D01*
X0141210Y0186169D01*
X0140460Y0185418D01*
X0140106Y0187417D02*
X0137104Y0187417D01*
X0140106Y0190419D01*
X0140106Y0191170D01*
X0139356Y0191920D01*
X0137855Y0191920D01*
X0137104Y0191170D01*
X0136606Y0192167D02*
X0136606Y0192918D01*
X0135856Y0193669D01*
X0134355Y0193669D01*
X0133604Y0194419D01*
X0133604Y0195170D01*
X0134355Y0195920D01*
X0135856Y0195920D01*
X0136606Y0195170D01*
X0138208Y0195170D02*
X0138958Y0195920D01*
X0140460Y0195920D01*
X0141210Y0195170D01*
X0141210Y0194419D01*
X0140460Y0193669D01*
X0141210Y0192918D01*
X0141210Y0192167D01*
X0140460Y0191417D01*
X0138958Y0191417D01*
X0138208Y0192167D01*
X0136606Y0192167D02*
X0135856Y0191417D01*
X0134355Y0191417D01*
X0133604Y0192167D01*
X0133251Y0191920D02*
X0132500Y0191170D01*
X0132500Y0188167D01*
X0133251Y0187417D01*
X0134752Y0187417D01*
X0135503Y0188167D01*
X0135856Y0188420D02*
X0134355Y0188420D01*
X0133604Y0187670D01*
X0133604Y0184667D01*
X0134355Y0183917D01*
X0135856Y0183917D01*
X0136606Y0184667D01*
X0137104Y0183667D02*
X0137855Y0183667D01*
X0137855Y0182917D01*
X0137104Y0182917D01*
X0137104Y0183667D01*
X0135503Y0183667D02*
X0134752Y0182917D01*
X0133251Y0182917D01*
X0132500Y0183667D01*
X0135503Y0186670D01*
X0135503Y0183667D01*
X0135503Y0186670D02*
X0134752Y0187420D01*
X0133251Y0187420D01*
X0132500Y0186670D01*
X0132500Y0183667D01*
X0132003Y0183917D02*
X0132003Y0188420D01*
X0130501Y0186919D01*
X0129000Y0188420D01*
X0129000Y0183917D01*
X0126702Y0187667D02*
X0125123Y0187667D01*
X0124496Y0182167D02*
X0108004Y0182167D01*
X0107377Y0187667D02*
X0105798Y0187667D01*
X0115123Y0187667D02*
X0117377Y0187667D01*
X0108004Y0182166D02*
X0107851Y0182365D01*
X0107703Y0182567D01*
X0107560Y0182772D01*
X0107422Y0182981D01*
X0107289Y0183193D01*
X0107161Y0183408D01*
X0107039Y0183626D01*
X0106921Y0183847D01*
X0106809Y0184071D01*
X0106702Y0184297D01*
X0106601Y0184526D01*
X0106505Y0184757D01*
X0106414Y0184991D01*
X0106329Y0185226D01*
X0106250Y0185464D01*
X0106177Y0185703D01*
X0106109Y0185944D01*
X0106047Y0186186D01*
X0105991Y0186430D01*
X0105940Y0186676D01*
X0105896Y0186922D01*
X0105857Y0187169D01*
X0105825Y0187417D01*
X0105798Y0187666D01*
X0119346Y0198700D02*
X0119588Y0198622D01*
X0119828Y0198538D01*
X0120066Y0198449D01*
X0120302Y0198353D01*
X0120536Y0198252D01*
X0120767Y0198146D01*
X0120995Y0198033D01*
X0121221Y0197916D01*
X0121444Y0197793D01*
X0121663Y0197664D01*
X0121880Y0197530D01*
X0122093Y0197391D01*
X0122303Y0197247D01*
X0122509Y0197098D01*
X0122711Y0196944D01*
X0122910Y0196785D01*
X0123105Y0196621D01*
X0123296Y0196452D01*
X0123482Y0196279D01*
X0123665Y0196102D01*
X0123843Y0195920D01*
X0124016Y0195734D01*
X0124185Y0195543D01*
X0124349Y0195349D01*
X0124509Y0195151D01*
X0124664Y0194949D01*
X0124813Y0194743D01*
X0124958Y0194534D01*
X0125098Y0194321D01*
X0125232Y0194105D01*
X0125361Y0193885D01*
X0125485Y0193663D01*
X0125604Y0193438D01*
X0125716Y0193210D01*
X0125824Y0192979D01*
X0125925Y0192746D01*
X0126021Y0192510D01*
X0126112Y0192272D01*
X0126196Y0192032D01*
X0126275Y0191790D01*
X0126348Y0191546D01*
X0126414Y0191300D01*
X0126475Y0191053D01*
X0126530Y0190805D01*
X0126579Y0190555D01*
X0126622Y0190304D01*
X0126658Y0190052D01*
X0126689Y0189800D01*
X0126713Y0189546D01*
X0126731Y0189293D01*
X0126743Y0189038D01*
X0126749Y0188784D01*
X0126749Y0188529D01*
X0126743Y0188275D01*
X0126730Y0188021D01*
X0126711Y0187767D01*
X0126686Y0187514D01*
X0126655Y0187261D01*
X0126618Y0187009D01*
X0126575Y0186759D01*
X0126526Y0186509D01*
X0126471Y0186260D01*
X0126409Y0186013D01*
X0126342Y0185768D01*
X0126269Y0185524D01*
X0126190Y0185282D01*
X0126105Y0185043D01*
X0126014Y0184805D01*
X0125917Y0184569D01*
X0125815Y0184336D01*
X0125707Y0184106D01*
X0125594Y0183878D01*
X0125475Y0183653D01*
X0125351Y0183431D01*
X0125222Y0183212D01*
X0125087Y0182996D01*
X0124947Y0182783D01*
X0124801Y0182574D01*
X0124651Y0182369D01*
X0124496Y0182167D01*
X0105798Y0187667D02*
X0105776Y0187922D01*
X0105761Y0188178D01*
X0105753Y0188434D01*
X0105750Y0188691D01*
X0105754Y0188947D01*
X0105764Y0189203D01*
X0105780Y0189459D01*
X0105802Y0189714D01*
X0105831Y0189969D01*
X0105866Y0190223D01*
X0105907Y0190476D01*
X0105954Y0190728D01*
X0106008Y0190978D01*
X0106067Y0191227D01*
X0106133Y0191475D01*
X0106204Y0191721D01*
X0106282Y0191966D01*
X0106365Y0192208D01*
X0106454Y0192448D01*
X0106550Y0192686D01*
X0106651Y0192922D01*
X0106757Y0193155D01*
X0106870Y0193385D01*
X0106988Y0193613D01*
X0107111Y0193837D01*
X0107240Y0194059D01*
X0107374Y0194277D01*
X0107514Y0194492D01*
X0107659Y0194703D01*
X0107809Y0194911D01*
X0107963Y0195115D01*
X0108123Y0195316D01*
X0108288Y0195512D01*
X0108457Y0195704D01*
X0108632Y0195893D01*
X0108810Y0196076D01*
X0108993Y0196256D01*
X0109181Y0196431D01*
X0109372Y0196601D01*
X0109568Y0196766D01*
X0109768Y0196927D01*
X0109971Y0197083D01*
X0110178Y0197233D01*
X0110389Y0197379D01*
X0110604Y0197520D01*
X0110821Y0197655D01*
X0111042Y0197785D01*
X0111266Y0197909D01*
X0111493Y0198028D01*
X0111723Y0198141D01*
X0111956Y0198249D01*
X0112191Y0198351D01*
X0112429Y0198447D01*
X0112668Y0198537D01*
X0112910Y0198622D01*
X0113154Y0198700D01*
X0129000Y0195920D02*
X0129000Y0192167D01*
X0129751Y0191417D01*
X0131252Y0191417D01*
X0132003Y0192167D01*
X0132003Y0195920D01*
X0135105Y0196671D02*
X0135105Y0190666D01*
X0135503Y0191170D02*
X0134752Y0191920D01*
X0133251Y0191920D01*
X0135856Y0188420D02*
X0136606Y0187670D01*
X0139709Y0193669D02*
X0140460Y0193669D01*
X0139356Y0199917D02*
X0137855Y0199917D01*
X0137104Y0200667D01*
X0135503Y0200667D02*
X0134752Y0199917D01*
X0133251Y0199917D01*
X0132500Y0200667D01*
X0132500Y0203670D01*
X0133251Y0204420D01*
X0134752Y0204420D01*
X0135503Y0203670D01*
X0137104Y0203670D02*
X0137855Y0204420D01*
X0139356Y0204420D01*
X0140106Y0203670D01*
X0140106Y0202919D01*
X0139356Y0202169D01*
X0140106Y0201418D01*
X0140106Y0200667D01*
X0139356Y0199917D01*
X0139356Y0202169D02*
X0138605Y0202169D01*
X0156624Y0183917D02*
X0159626Y0186919D01*
X0159626Y0187670D01*
X0158875Y0188420D01*
X0159626Y0183917D02*
X0156624Y0183917D01*
X0150000Y0179273D02*
X0150000Y0177771D01*
X0149249Y0177021D01*
X0147748Y0177021D01*
X0147748Y0179273D01*
X0148499Y0180023D01*
X0149249Y0180023D01*
X0150000Y0179273D01*
X0147748Y0177021D02*
X0146247Y0178522D01*
X0145496Y0180023D01*
X0146247Y0175419D02*
X0145496Y0174669D01*
X0145496Y0173167D01*
X0146247Y0172417D01*
X0149249Y0172417D01*
X0150000Y0173167D01*
X0150000Y0174669D01*
X0149249Y0175419D01*
X0148614Y0174920D02*
X0151616Y0174920D01*
X0150115Y0172669D02*
X0148614Y0172669D01*
X0147012Y0173419D02*
X0147012Y0170417D01*
X0144760Y0170417D01*
X0144010Y0171167D01*
X0144010Y0173419D01*
X0142408Y0170417D02*
X0139406Y0170417D01*
X0140907Y0170417D02*
X0140907Y0174920D01*
X0139406Y0173419D01*
X0139356Y0174917D02*
X0139356Y0179420D01*
X0137104Y0177169D01*
X0140106Y0177169D01*
X0135503Y0178670D02*
X0134752Y0179420D01*
X0133251Y0179420D01*
X0132500Y0178670D01*
X0132500Y0175667D01*
X0133251Y0174917D01*
X0134752Y0174917D01*
X0135503Y0175667D01*
X0134752Y0174920D02*
X0135503Y0174170D01*
X0132500Y0171167D01*
X0133251Y0170417D01*
X0134752Y0170417D01*
X0135503Y0171167D01*
X0135503Y0174170D01*
X0134752Y0174920D02*
X0133251Y0174920D01*
X0132500Y0174170D01*
X0132500Y0171167D01*
X0137104Y0171167D02*
X0137855Y0171167D01*
X0137855Y0170417D01*
X0137104Y0170417D01*
X0137104Y0171167D01*
X0134752Y0162420D02*
X0135503Y0161670D01*
X0132500Y0158667D01*
X0133251Y0157917D01*
X0134752Y0157917D01*
X0135503Y0158667D01*
X0135503Y0161670D01*
X0134752Y0162420D02*
X0133251Y0162420D01*
X0132500Y0161670D01*
X0132500Y0158667D01*
X0137104Y0158667D02*
X0137855Y0158667D01*
X0137855Y0157917D01*
X0137104Y0157917D01*
X0137104Y0158667D01*
X0139406Y0157917D02*
X0142408Y0157917D01*
X0140907Y0157917D02*
X0140907Y0162420D01*
X0139406Y0160919D01*
X0144010Y0160919D02*
X0144010Y0158667D01*
X0144760Y0157917D01*
X0147012Y0157917D01*
X0147012Y0160919D01*
X0148614Y0160169D02*
X0150115Y0160169D01*
X0148614Y0162420D02*
X0148614Y0157917D01*
X0148614Y0162420D02*
X0151616Y0162420D01*
X0148614Y0170417D02*
X0148614Y0174920D01*
D14*
X0148250Y0103667D03*
D15*
X0161250Y0185667D03*
D16*
X0111400Y0188867D02*
X0108331Y0188867D01*
X0108331Y0193471D01*
X0111400Y0193471D01*
X0109866Y0191169D02*
X0108331Y0191169D01*
X0106796Y0189634D02*
X0106796Y0192703D01*
X0106029Y0193471D01*
X0103727Y0193471D01*
X0103727Y0188867D01*
X0106029Y0188867D01*
X0106796Y0189634D01*
X0102192Y0188867D02*
X0100658Y0188867D01*
X0101425Y0188867D02*
X0101425Y0193471D01*
X0100658Y0193471D02*
X0102192Y0193471D01*
X0099123Y0188867D02*
X0096054Y0188867D01*
X0096054Y0193471D01*
X0094519Y0192703D02*
X0093752Y0193471D01*
X0092217Y0193471D01*
X0091450Y0192703D01*
X0091450Y0191936D01*
X0092217Y0191169D01*
X0093752Y0191169D01*
X0094519Y0190401D01*
X0094519Y0189634D01*
X0093752Y0188867D01*
X0092217Y0188867D01*
X0091450Y0189634D01*
X0092217Y0198867D02*
X0093752Y0198867D01*
X0094519Y0199634D01*
X0094519Y0203471D01*
X0096054Y0202703D02*
X0096821Y0203471D01*
X0098356Y0203471D01*
X0099123Y0202703D01*
X0100658Y0202703D02*
X0101425Y0203471D01*
X0102960Y0203471D01*
X0103727Y0202703D01*
X0103727Y0201936D01*
X0100658Y0198867D01*
X0103727Y0198867D01*
X0099123Y0199634D02*
X0099123Y0200401D01*
X0098356Y0201169D01*
X0096821Y0201169D01*
X0096054Y0201936D01*
X0096054Y0202703D01*
X0097589Y0204238D02*
X0097589Y0198099D01*
X0098356Y0198867D02*
X0099123Y0199634D01*
X0098356Y0198867D02*
X0096821Y0198867D01*
X0096054Y0199634D01*
X0092217Y0198867D02*
X0091450Y0199634D01*
X0091450Y0203471D01*
X0043494Y0159927D02*
X0043494Y0155323D01*
X0041959Y0155323D02*
X0045029Y0155323D01*
X0041959Y0158393D02*
X0043494Y0159927D01*
X0040425Y0159927D02*
X0038890Y0159927D01*
X0039657Y0159927D02*
X0039657Y0156091D01*
X0038890Y0155323D01*
X0038123Y0155323D01*
X0037356Y0156091D01*
D17*
X0031250Y0072867D03*
X0051250Y0072867D03*
X0051250Y0044467D03*
X0031250Y0044467D03*
X0186250Y0139467D03*
X0186250Y0167867D03*
D18*
X0155450Y0013667D03*
X0127050Y0013667D03*
D19*
X0104200Y0066483D02*
X0097895Y0066483D01*
X0097895Y0069635D01*
X0098946Y0070686D01*
X0101047Y0070686D01*
X0102098Y0069635D01*
X0102098Y0066483D01*
X0104200Y0072928D02*
X0104200Y0075030D01*
X0104200Y0073979D02*
X0097895Y0073979D01*
X0097895Y0072928D02*
X0097895Y0075030D01*
X0098946Y0077225D02*
X0103149Y0077225D01*
X0104200Y0078276D01*
X0104200Y0080378D01*
X0103149Y0081429D01*
X0103149Y0083671D02*
X0104200Y0084721D01*
X0104200Y0086823D01*
X0103149Y0087874D01*
X0102098Y0087874D01*
X0101047Y0086823D01*
X0101047Y0085772D01*
X0101047Y0086823D02*
X0099996Y0087874D01*
X0098946Y0087874D01*
X0097895Y0086823D01*
X0097895Y0084721D01*
X0098946Y0083671D01*
X0098946Y0081429D02*
X0097895Y0080378D01*
X0097895Y0078276D01*
X0098946Y0077225D01*
X0098946Y0090116D02*
X0097895Y0091167D01*
X0097895Y0093269D01*
X0098946Y0094320D01*
X0099996Y0094320D01*
X0104200Y0090116D01*
X0104200Y0094320D01*
X0104200Y0096562D02*
X0097895Y0096562D01*
X0099996Y0098663D01*
X0097895Y0100765D01*
X0104200Y0100765D01*
X0104200Y0103007D02*
X0097895Y0107211D01*
X0098946Y0109453D02*
X0097895Y0110503D01*
X0097895Y0112605D01*
X0098946Y0113656D01*
X0099996Y0113656D01*
X0104200Y0109453D01*
X0104200Y0113656D01*
X0103149Y0115898D02*
X0104200Y0116949D01*
X0104200Y0119051D01*
X0103149Y0120102D01*
X0101047Y0120102D01*
X0099996Y0119051D01*
X0099996Y0118000D01*
X0101047Y0115898D01*
X0097895Y0115898D01*
X0097895Y0120102D01*
X0098946Y0122344D02*
X0097895Y0123394D01*
X0097895Y0125496D01*
X0098946Y0126547D01*
X0103149Y0122344D01*
X0104200Y0123394D01*
X0104200Y0125496D01*
X0103149Y0126547D01*
X0098946Y0126547D01*
X0097895Y0128789D02*
X0097895Y0132993D01*
X0099996Y0135234D02*
X0097895Y0137336D01*
X0104200Y0137336D01*
X0104200Y0135234D02*
X0104200Y0139438D01*
X0104200Y0141680D02*
X0099996Y0145884D01*
X0098946Y0145884D01*
X0097895Y0144833D01*
X0097895Y0142731D01*
X0098946Y0141680D01*
X0104200Y0141680D02*
X0104200Y0145884D01*
X0103149Y0148125D02*
X0102098Y0148125D01*
X0101047Y0149176D01*
X0101047Y0151278D01*
X0102098Y0152329D01*
X0103149Y0152329D01*
X0104200Y0151278D01*
X0104200Y0149176D01*
X0103149Y0148125D01*
X0101047Y0149176D02*
X0099996Y0148125D01*
X0098946Y0148125D01*
X0097895Y0149176D01*
X0097895Y0151278D01*
X0098946Y0152329D01*
X0099996Y0152329D01*
X0101047Y0151278D01*
X0101047Y0154571D02*
X0101047Y0157724D01*
X0102098Y0158775D01*
X0103149Y0158775D01*
X0104200Y0157724D01*
X0104200Y0154571D01*
X0097895Y0154571D01*
X0097895Y0157724D01*
X0098946Y0158775D01*
X0099996Y0158775D01*
X0101047Y0157724D01*
X0100147Y0168466D02*
X0100147Y0176873D01*
X0099096Y0175822D02*
X0101198Y0175822D01*
X0102249Y0174771D01*
X0101198Y0172669D02*
X0099096Y0172669D01*
X0098045Y0173720D01*
X0098045Y0174771D01*
X0099096Y0175822D01*
X0101198Y0172669D02*
X0102249Y0171618D01*
X0102249Y0170568D01*
X0101198Y0169517D01*
X0099096Y0169517D01*
X0098045Y0170568D01*
X0095804Y0170568D02*
X0094753Y0169517D01*
X0092651Y0169517D01*
X0091600Y0170568D01*
X0091600Y0175822D01*
X0095804Y0175822D02*
X0095804Y0170568D01*
X0104491Y0169517D02*
X0108695Y0169517D01*
X0106593Y0169517D02*
X0106593Y0175822D01*
X0104491Y0173720D01*
X0101047Y0130891D02*
X0101047Y0128789D01*
X0097895Y0128789D02*
X0104200Y0128789D01*
X0103149Y0122344D02*
X0098946Y0122344D01*
X0104200Y0107211D02*
X0097895Y0103007D01*
D20*
X0088179Y0180202D02*
X0054321Y0180202D01*
X0054321Y0197131D01*
X0088179Y0197131D01*
X0088179Y0180202D01*
X0081250Y0198667D02*
X0081250Y0208667D01*
X0080000Y0208667D01*
X0076250Y0204917D01*
X0072500Y0208667D01*
X0071250Y0208667D01*
X0071250Y0198667D01*
D21*
X0068750Y0093667D02*
X0066250Y0091167D01*
X0066250Y0066167D01*
X0068750Y0063667D01*
X0073750Y0063667D01*
X0076250Y0066167D01*
X0076250Y0091167D01*
X0073750Y0093667D01*
X0068750Y0093667D01*
X0071250Y0031167D02*
X0081250Y0031167D01*
X0091250Y0021167D01*
X0091250Y0016167D01*
X0081250Y0006167D01*
X0071250Y0006167D01*
X0061250Y0016167D01*
X0061250Y0021167D01*
X0071250Y0031167D01*
X0056250Y0021167D02*
X0056250Y0016167D01*
X0046250Y0006167D01*
X0036250Y0006167D01*
X0026250Y0016167D01*
X0026250Y0021167D01*
X0036250Y0031167D01*
X0046250Y0031167D01*
X0056250Y0021167D01*
M02*
