G75*
%MOIN*%
%OFA0B0*%
%FSLAX25Y25*%
%IPPOS*%
%LPD*%
%AMOC8*
5,1,8,0,0,1.08239X$1,22.5*
%
%ADD10C,0.00000*%
%ADD11OC8,0.05200*%
%ADD12C,0.05200*%
%ADD13C,0.05150*%
%ADD14C,0.11220*%
%ADD15C,0.05200*%
%ADD16C,0.05937*%
%ADD17C,0.07400*%
%ADD18C,0.01600*%
%ADD19C,0.03562*%
D10*
X0006250Y0003667D02*
X0006250Y0200517D01*
X0203100Y0200517D01*
X0203100Y0003667D01*
X0006250Y0003667D01*
D11*
X0031250Y0038667D03*
X0051250Y0038667D03*
X0061250Y0043667D03*
X0071250Y0043667D03*
X0101250Y0013667D03*
X0111250Y0013667D03*
X0121250Y0013667D03*
X0161250Y0013667D03*
X0156250Y0103667D03*
X0186250Y0133667D03*
X0186250Y0173667D03*
X0181250Y0188667D03*
X0191250Y0188667D03*
X0161250Y0193667D03*
X0146250Y0193667D03*
X0136250Y0193667D03*
X0136250Y0181167D03*
X0146250Y0181167D03*
X0146250Y0168667D03*
X0136250Y0168667D03*
X0121250Y0188667D03*
X0116250Y0196167D03*
X0111250Y0188667D03*
X0051250Y0078667D03*
X0031250Y0078667D03*
D12*
X0136250Y0103667D03*
X0161250Y0173667D03*
D13*
X0079124Y0188667D03*
X0071250Y0188667D03*
X0063376Y0188667D03*
X0037549Y0163588D03*
X0034400Y0168312D03*
X0031250Y0163588D03*
X0028100Y0168312D03*
X0024951Y0163588D03*
D14*
X0016880Y0183667D03*
X0045620Y0183667D03*
D15*
X0083650Y0163667D02*
X0088850Y0163667D01*
X0088850Y0153667D02*
X0083650Y0153667D01*
X0083650Y0143667D02*
X0088850Y0143667D01*
X0088850Y0133667D02*
X0083650Y0133667D01*
X0083650Y0123667D02*
X0088850Y0123667D01*
X0088850Y0113667D02*
X0083650Y0113667D01*
X0083650Y0103667D02*
X0088850Y0103667D01*
X0088850Y0093667D02*
X0083650Y0093667D01*
X0083650Y0083667D02*
X0088850Y0083667D01*
X0088850Y0073667D02*
X0083650Y0073667D01*
X0083650Y0063667D02*
X0088850Y0063667D01*
X0088850Y0053667D02*
X0083650Y0053667D01*
X0083650Y0043667D02*
X0088850Y0043667D01*
X0088850Y0033667D02*
X0083650Y0033667D01*
X0113650Y0033667D02*
X0118850Y0033667D01*
X0118850Y0043667D02*
X0113650Y0043667D01*
X0113650Y0053667D02*
X0118850Y0053667D01*
X0118850Y0063667D02*
X0113650Y0063667D01*
X0113650Y0073667D02*
X0118850Y0073667D01*
X0118850Y0083667D02*
X0113650Y0083667D01*
X0113650Y0093667D02*
X0118850Y0093667D01*
X0118850Y0103667D02*
X0113650Y0103667D01*
X0113650Y0113667D02*
X0118850Y0113667D01*
X0118850Y0123667D02*
X0113650Y0123667D01*
X0113650Y0133667D02*
X0118850Y0133667D01*
X0118850Y0143667D02*
X0113650Y0143667D01*
X0113650Y0153667D02*
X0118850Y0153667D01*
X0118850Y0163667D02*
X0113650Y0163667D01*
D16*
X0086998Y0188667D03*
X0055502Y0188667D03*
D17*
X0011250Y0138667D03*
X0011250Y0128667D03*
X0011250Y0118667D03*
X0011250Y0108667D03*
X0011250Y0098667D03*
X0011250Y0088667D03*
X0011250Y0078667D03*
X0011250Y0068667D03*
X0011250Y0058667D03*
X0011250Y0048667D03*
X0011250Y0038667D03*
X0011250Y0028667D03*
X0011250Y0018667D03*
X0031250Y0018667D03*
X0051250Y0018667D03*
X0066250Y0018667D03*
X0086250Y0018667D03*
X0071250Y0068667D03*
X0071250Y0078667D03*
X0071250Y0088667D03*
X0198250Y0088667D03*
X0198250Y0098667D03*
X0198250Y0108667D03*
X0198250Y0118667D03*
X0198250Y0128667D03*
X0198250Y0138667D03*
X0198250Y0078667D03*
X0198250Y0068667D03*
D18*
X0199273Y0063260D02*
X0199538Y0063302D01*
X0200361Y0063570D01*
X0201133Y0063963D01*
X0201300Y0064085D01*
X0201300Y0005467D01*
X0008050Y0005467D01*
X0008050Y0014193D01*
X0008367Y0013963D01*
X0009139Y0013570D01*
X0009962Y0013302D01*
X0010817Y0013167D01*
X0011050Y0013167D01*
X0011050Y0018467D01*
X0011450Y0018467D01*
X0011450Y0018867D01*
X0016750Y0018867D01*
X0016750Y0019100D01*
X0016615Y0019955D01*
X0016347Y0020778D01*
X0015954Y0021549D01*
X0015445Y0022250D01*
X0014833Y0022862D01*
X0014133Y0023371D01*
X0013361Y0023764D01*
X0013013Y0023877D01*
X0014139Y0024343D01*
X0015574Y0025778D01*
X0016350Y0027652D01*
X0016350Y0029681D01*
X0015574Y0031556D01*
X0014139Y0032990D01*
X0012506Y0033667D01*
X0014139Y0034343D01*
X0015574Y0035778D01*
X0016350Y0037652D01*
X0016350Y0039681D01*
X0015574Y0041556D01*
X0014139Y0042990D01*
X0012506Y0043667D01*
X0014139Y0044343D01*
X0015574Y0045778D01*
X0016350Y0047652D01*
X0016350Y0049681D01*
X0015574Y0051556D01*
X0014139Y0052990D01*
X0012506Y0053667D01*
X0014139Y0054343D01*
X0015574Y0055778D01*
X0016350Y0057652D01*
X0016350Y0059681D01*
X0015574Y0061556D01*
X0014139Y0062990D01*
X0013013Y0063457D01*
X0013361Y0063570D01*
X0014133Y0063963D01*
X0014833Y0064471D01*
X0015445Y0065084D01*
X0015954Y0065784D01*
X0016347Y0066555D01*
X0016615Y0067379D01*
X0016750Y0068234D01*
X0016750Y0068467D01*
X0011450Y0068467D01*
X0011450Y0068867D01*
X0016750Y0068867D01*
X0016750Y0069100D01*
X0016615Y0069955D01*
X0016347Y0070778D01*
X0015954Y0071549D01*
X0015445Y0072250D01*
X0014833Y0072862D01*
X0014133Y0073371D01*
X0013361Y0073764D01*
X0013013Y0073877D01*
X0014139Y0074343D01*
X0015574Y0075778D01*
X0016350Y0077652D01*
X0016350Y0079681D01*
X0015574Y0081556D01*
X0014139Y0082990D01*
X0012506Y0083667D01*
X0014139Y0084343D01*
X0015574Y0085778D01*
X0016350Y0087652D01*
X0016350Y0089681D01*
X0015574Y0091556D01*
X0014139Y0092990D01*
X0012506Y0093667D01*
X0014139Y0094343D01*
X0015574Y0095778D01*
X0016350Y0097652D01*
X0016350Y0099681D01*
X0015574Y0101556D01*
X0014139Y0102990D01*
X0012506Y0103667D01*
X0014139Y0104343D01*
X0015574Y0105778D01*
X0016350Y0107652D01*
X0016350Y0109681D01*
X0015574Y0111556D01*
X0014139Y0112990D01*
X0012506Y0113667D01*
X0014139Y0114343D01*
X0015574Y0115778D01*
X0016350Y0117652D01*
X0016350Y0119681D01*
X0015574Y0121556D01*
X0014139Y0122990D01*
X0012506Y0123667D01*
X0014139Y0124343D01*
X0015574Y0125778D01*
X0016350Y0127652D01*
X0016350Y0129681D01*
X0015574Y0131556D01*
X0014139Y0132990D01*
X0012506Y0133667D01*
X0014139Y0134343D01*
X0015574Y0135778D01*
X0016350Y0137652D01*
X0016350Y0139681D01*
X0015574Y0141556D01*
X0014139Y0142990D01*
X0013450Y0143276D01*
X0013450Y0150728D01*
X0014033Y0150970D01*
X0014928Y0151865D01*
X0015412Y0153034D01*
X0015412Y0154299D01*
X0014928Y0155469D01*
X0014033Y0156363D01*
X0012864Y0156848D01*
X0011598Y0156848D01*
X0010429Y0156363D01*
X0009534Y0155469D01*
X0009247Y0154775D01*
X0009050Y0154578D01*
X0009050Y0143276D01*
X0008361Y0142990D01*
X0008050Y0142679D01*
X0008050Y0198717D01*
X0113144Y0198717D01*
X0112250Y0197823D01*
X0112250Y0194510D01*
X0114593Y0192167D01*
X0117907Y0192167D01*
X0120250Y0194510D01*
X0120250Y0197823D01*
X0119356Y0198717D01*
X0201300Y0198717D01*
X0201300Y0142829D01*
X0201139Y0142990D01*
X0199264Y0143767D01*
X0197236Y0143767D01*
X0195361Y0142990D01*
X0193926Y0141556D01*
X0193150Y0139681D01*
X0193150Y0137652D01*
X0193926Y0135778D01*
X0195361Y0134343D01*
X0196994Y0133667D01*
X0195361Y0132990D01*
X0193926Y0131556D01*
X0193150Y0129681D01*
X0193150Y0127652D01*
X0193926Y0125778D01*
X0195361Y0124343D01*
X0196994Y0123667D01*
X0195361Y0122990D01*
X0193926Y0121556D01*
X0193150Y0119681D01*
X0193150Y0117652D01*
X0193926Y0115778D01*
X0195361Y0114343D01*
X0196994Y0113667D01*
X0195361Y0112990D01*
X0193926Y0111556D01*
X0193150Y0109681D01*
X0193150Y0107652D01*
X0193926Y0105778D01*
X0195361Y0104343D01*
X0196994Y0103667D01*
X0195361Y0102990D01*
X0193926Y0101556D01*
X0193150Y0099681D01*
X0193150Y0097652D01*
X0193926Y0095778D01*
X0195361Y0094343D01*
X0196994Y0093667D01*
X0195361Y0092990D01*
X0193926Y0091556D01*
X0193150Y0089681D01*
X0193150Y0087652D01*
X0193926Y0085778D01*
X0195361Y0084343D01*
X0196994Y0083667D01*
X0195361Y0082990D01*
X0193926Y0081556D01*
X0193150Y0079681D01*
X0193150Y0077652D01*
X0193926Y0075778D01*
X0194340Y0075364D01*
X0190750Y0071773D01*
X0190750Y0065560D01*
X0196100Y0060210D01*
X0196100Y0036848D01*
X0195617Y0036848D01*
X0194448Y0036363D01*
X0193553Y0035469D01*
X0193069Y0034299D01*
X0193069Y0033034D01*
X0193553Y0031865D01*
X0194448Y0030970D01*
X0195617Y0030486D01*
X0196883Y0030486D01*
X0198052Y0030970D01*
X0198549Y0031467D01*
X0199212Y0031467D01*
X0200500Y0032755D01*
X0200500Y0062032D01*
X0199273Y0063260D01*
X0199721Y0062812D02*
X0201300Y0062812D01*
X0201300Y0061213D02*
X0200500Y0061213D01*
X0200500Y0059615D02*
X0201300Y0059615D01*
X0201300Y0058016D02*
X0200500Y0058016D01*
X0200500Y0056418D02*
X0201300Y0056418D01*
X0201300Y0054819D02*
X0200500Y0054819D01*
X0200500Y0053221D02*
X0201300Y0053221D01*
X0201300Y0051622D02*
X0200500Y0051622D01*
X0200500Y0050023D02*
X0201300Y0050023D01*
X0201300Y0048425D02*
X0200500Y0048425D01*
X0200500Y0046826D02*
X0201300Y0046826D01*
X0201300Y0045228D02*
X0200500Y0045228D01*
X0200500Y0043629D02*
X0201300Y0043629D01*
X0201300Y0042031D02*
X0200500Y0042031D01*
X0200500Y0040432D02*
X0201300Y0040432D01*
X0201300Y0038834D02*
X0200500Y0038834D01*
X0200500Y0037235D02*
X0201300Y0037235D01*
X0201300Y0035637D02*
X0200500Y0035637D01*
X0200500Y0034038D02*
X0201300Y0034038D01*
X0201300Y0032440D02*
X0200185Y0032440D01*
X0201300Y0030841D02*
X0197742Y0030841D01*
X0201300Y0029243D02*
X0128450Y0029243D01*
X0128450Y0030841D02*
X0194758Y0030841D01*
X0193315Y0032440D02*
X0128450Y0032440D01*
X0128450Y0034038D02*
X0193069Y0034038D01*
X0193721Y0035637D02*
X0128450Y0035637D01*
X0128450Y0037235D02*
X0196100Y0037235D01*
X0196100Y0038834D02*
X0128450Y0038834D01*
X0128450Y0040432D02*
X0196100Y0040432D01*
X0196100Y0042031D02*
X0189016Y0042031D01*
X0188947Y0041865D02*
X0189431Y0043034D01*
X0189431Y0044299D01*
X0188947Y0045469D01*
X0188450Y0045965D01*
X0188450Y0086368D01*
X0188947Y0086865D01*
X0189431Y0088034D01*
X0189431Y0089299D01*
X0188947Y0090469D01*
X0188052Y0091363D01*
X0186883Y0091848D01*
X0185617Y0091848D01*
X0184448Y0091363D01*
X0183553Y0090469D01*
X0183450Y0090219D01*
X0183450Y0096368D01*
X0183947Y0096865D01*
X0184431Y0098034D01*
X0184431Y0099299D01*
X0183947Y0100469D01*
X0183052Y0101363D01*
X0181883Y0101848D01*
X0180617Y0101848D01*
X0179448Y0101363D01*
X0178553Y0100469D01*
X0178069Y0099299D01*
X0178069Y0098034D01*
X0178553Y0096865D01*
X0179050Y0096368D01*
X0179050Y0065219D01*
X0178947Y0065469D01*
X0178052Y0066363D01*
X0176883Y0066848D01*
X0175617Y0066848D01*
X0174448Y0066363D01*
X0173951Y0065867D01*
X0173450Y0065867D01*
X0173450Y0106368D01*
X0173947Y0106865D01*
X0174431Y0108034D01*
X0174431Y0109299D01*
X0173947Y0110469D01*
X0173052Y0111363D01*
X0171883Y0111848D01*
X0170617Y0111848D01*
X0169448Y0111363D01*
X0168553Y0110469D01*
X0168069Y0109299D01*
X0168069Y0108034D01*
X0168553Y0106865D01*
X0169050Y0106368D01*
X0169050Y0062755D01*
X0170339Y0061467D01*
X0173951Y0061467D01*
X0174448Y0060970D01*
X0175617Y0060486D01*
X0176883Y0060486D01*
X0178052Y0060970D01*
X0178947Y0061865D01*
X0179050Y0062114D01*
X0179050Y0055965D01*
X0178553Y0055469D01*
X0178069Y0054299D01*
X0178069Y0053034D01*
X0178553Y0051865D01*
X0179448Y0050970D01*
X0180617Y0050486D01*
X0181883Y0050486D01*
X0183052Y0050970D01*
X0183947Y0051865D01*
X0184050Y0052114D01*
X0184050Y0045965D01*
X0183553Y0045469D01*
X0183069Y0044299D01*
X0183069Y0043034D01*
X0183553Y0041865D01*
X0184448Y0040970D01*
X0185617Y0040486D01*
X0186883Y0040486D01*
X0188052Y0040970D01*
X0188947Y0041865D01*
X0189431Y0043629D02*
X0196100Y0043629D01*
X0196100Y0045228D02*
X0189046Y0045228D01*
X0188450Y0046826D02*
X0196100Y0046826D01*
X0196100Y0048425D02*
X0188450Y0048425D01*
X0188450Y0050023D02*
X0196100Y0050023D01*
X0196100Y0051622D02*
X0188450Y0051622D01*
X0188450Y0053221D02*
X0196100Y0053221D01*
X0196100Y0054819D02*
X0188450Y0054819D01*
X0188450Y0056418D02*
X0196100Y0056418D01*
X0196100Y0058016D02*
X0188450Y0058016D01*
X0188450Y0059615D02*
X0196100Y0059615D01*
X0195097Y0061213D02*
X0188450Y0061213D01*
X0188450Y0062812D02*
X0193498Y0062812D01*
X0191900Y0064410D02*
X0188450Y0064410D01*
X0188450Y0066009D02*
X0190750Y0066009D01*
X0190750Y0067607D02*
X0188450Y0067607D01*
X0188450Y0069206D02*
X0190750Y0069206D01*
X0190750Y0070804D02*
X0188450Y0070804D01*
X0188450Y0072403D02*
X0191379Y0072403D01*
X0192950Y0070862D02*
X0198250Y0076162D01*
X0198250Y0078667D01*
X0193446Y0080395D02*
X0188450Y0080395D01*
X0188450Y0078797D02*
X0193150Y0078797D01*
X0193338Y0077198D02*
X0188450Y0077198D01*
X0188450Y0075600D02*
X0194104Y0075600D01*
X0192978Y0074001D02*
X0188450Y0074001D01*
X0192950Y0070862D02*
X0192950Y0066471D01*
X0198300Y0061121D01*
X0198300Y0033667D01*
X0196250Y0033667D01*
X0201300Y0027644D02*
X0128450Y0027644D01*
X0128450Y0026046D02*
X0201300Y0026046D01*
X0201300Y0024447D02*
X0129370Y0024447D01*
X0129431Y0024299D02*
X0128947Y0025469D01*
X0128450Y0025965D01*
X0128450Y0111368D01*
X0128947Y0111865D01*
X0129431Y0113034D01*
X0129431Y0114299D01*
X0128947Y0115469D01*
X0128052Y0116363D01*
X0126883Y0116848D01*
X0125617Y0116848D01*
X0124448Y0116363D01*
X0123553Y0115469D01*
X0123069Y0114299D01*
X0123069Y0113034D01*
X0123553Y0111865D01*
X0124050Y0111368D01*
X0124050Y0025965D01*
X0123553Y0025469D01*
X0123069Y0024299D01*
X0123069Y0023034D01*
X0123553Y0021865D01*
X0124448Y0020970D01*
X0125617Y0020486D01*
X0126883Y0020486D01*
X0128052Y0020970D01*
X0128947Y0021865D01*
X0129431Y0023034D01*
X0129431Y0024299D01*
X0129354Y0022849D02*
X0201300Y0022849D01*
X0201300Y0021250D02*
X0128332Y0021250D01*
X0126250Y0023667D02*
X0126250Y0113667D01*
X0123346Y0112365D02*
X0122641Y0112365D01*
X0122850Y0112871D02*
X0122850Y0114462D01*
X0122241Y0115932D01*
X0121116Y0117058D01*
X0119646Y0117667D01*
X0112854Y0117667D01*
X0111384Y0117058D01*
X0110259Y0115932D01*
X0109650Y0114462D01*
X0109650Y0112871D01*
X0110259Y0111401D01*
X0111384Y0110276D01*
X0112854Y0109667D01*
X0119646Y0109667D01*
X0121116Y0110276D01*
X0122241Y0111401D01*
X0122850Y0112871D01*
X0122850Y0113964D02*
X0123069Y0113964D01*
X0123647Y0115562D02*
X0122394Y0115562D01*
X0120866Y0117161D02*
X0144050Y0117161D01*
X0144050Y0118759D02*
X0108450Y0118759D01*
X0108450Y0117161D02*
X0111634Y0117161D01*
X0110106Y0115562D02*
X0108450Y0115562D01*
X0108450Y0113964D02*
X0109650Y0113964D01*
X0109859Y0112365D02*
X0108450Y0112365D01*
X0108450Y0110767D02*
X0110893Y0110767D01*
X0108450Y0109168D02*
X0124050Y0109168D01*
X0124050Y0107570D02*
X0119879Y0107570D01*
X0119646Y0107667D02*
X0121116Y0107058D01*
X0122241Y0105932D01*
X0122850Y0104462D01*
X0122850Y0102871D01*
X0122241Y0101401D01*
X0121116Y0100276D01*
X0119646Y0099667D01*
X0112854Y0099667D01*
X0111384Y0100276D01*
X0110259Y0101401D01*
X0109650Y0102871D01*
X0109650Y0104462D01*
X0110259Y0105932D01*
X0111384Y0107058D01*
X0112854Y0107667D01*
X0119646Y0107667D01*
X0122202Y0105971D02*
X0124050Y0105971D01*
X0124050Y0104373D02*
X0122850Y0104373D01*
X0122810Y0102774D02*
X0124050Y0102774D01*
X0124050Y0101176D02*
X0122016Y0101176D01*
X0124050Y0099577D02*
X0095250Y0099577D01*
X0095250Y0097979D02*
X0124050Y0097979D01*
X0124050Y0096380D02*
X0121793Y0096380D01*
X0122241Y0095932D02*
X0121116Y0097058D01*
X0119646Y0097667D01*
X0112854Y0097667D01*
X0111384Y0097058D01*
X0110259Y0095932D01*
X0109650Y0094462D01*
X0109650Y0092871D01*
X0110259Y0091401D01*
X0111384Y0090276D01*
X0112854Y0089667D01*
X0119646Y0089667D01*
X0121116Y0090276D01*
X0122241Y0091401D01*
X0122850Y0092871D01*
X0122850Y0094462D01*
X0122241Y0095932D01*
X0122718Y0094782D02*
X0124050Y0094782D01*
X0124050Y0093183D02*
X0122850Y0093183D01*
X0122317Y0091585D02*
X0124050Y0091585D01*
X0124050Y0089986D02*
X0120417Y0089986D01*
X0119646Y0087667D02*
X0121116Y0087058D01*
X0122241Y0085932D01*
X0122850Y0084462D01*
X0122850Y0082871D01*
X0122241Y0081401D01*
X0121116Y0080276D01*
X0119646Y0079667D01*
X0112854Y0079667D01*
X0111384Y0080276D01*
X0110259Y0081401D01*
X0109650Y0082871D01*
X0109650Y0084462D01*
X0110259Y0085932D01*
X0111384Y0087058D01*
X0112854Y0087667D01*
X0119646Y0087667D01*
X0121384Y0086789D02*
X0124050Y0086789D01*
X0124050Y0085191D02*
X0122548Y0085191D01*
X0122850Y0083592D02*
X0124050Y0083592D01*
X0124050Y0081994D02*
X0122487Y0081994D01*
X0121235Y0080395D02*
X0124050Y0080395D01*
X0124050Y0078797D02*
X0095250Y0078797D01*
X0095250Y0080395D02*
X0111265Y0080395D01*
X0110013Y0081994D02*
X0095250Y0081994D01*
X0095250Y0083592D02*
X0109650Y0083592D01*
X0109952Y0085191D02*
X0095250Y0085191D01*
X0095250Y0086789D02*
X0111116Y0086789D01*
X0112083Y0089986D02*
X0095250Y0089986D01*
X0095250Y0088388D02*
X0124050Y0088388D01*
X0128450Y0088388D02*
X0134050Y0088388D01*
X0134050Y0089986D02*
X0128450Y0089986D01*
X0128450Y0091585D02*
X0134050Y0091585D01*
X0134050Y0093183D02*
X0128450Y0093183D01*
X0128450Y0094782D02*
X0134050Y0094782D01*
X0134050Y0096380D02*
X0128450Y0096380D01*
X0128450Y0097979D02*
X0134050Y0097979D01*
X0134050Y0099577D02*
X0128450Y0099577D01*
X0128450Y0101176D02*
X0133084Y0101176D01*
X0132859Y0101401D02*
X0133984Y0100276D01*
X0134050Y0100248D01*
X0134050Y0085965D01*
X0133553Y0085469D01*
X0133069Y0084299D01*
X0133069Y0083034D01*
X0133553Y0081865D01*
X0134448Y0080970D01*
X0135617Y0080486D01*
X0136883Y0080486D01*
X0138052Y0080970D01*
X0138947Y0081865D01*
X0139431Y0083034D01*
X0139431Y0084299D01*
X0138947Y0085469D01*
X0138450Y0085965D01*
X0138450Y0100248D01*
X0138516Y0100276D01*
X0139641Y0101401D01*
X0140250Y0102871D01*
X0140250Y0104462D01*
X0139641Y0105932D01*
X0138516Y0107058D01*
X0137046Y0107667D01*
X0135454Y0107667D01*
X0133984Y0107058D01*
X0132859Y0105932D01*
X0132250Y0104462D01*
X0132250Y0102871D01*
X0132859Y0101401D01*
X0132290Y0102774D02*
X0128450Y0102774D01*
X0128450Y0104373D02*
X0132250Y0104373D01*
X0132898Y0105971D02*
X0128450Y0105971D01*
X0128450Y0107570D02*
X0135221Y0107570D01*
X0137279Y0107570D02*
X0144050Y0107570D01*
X0144050Y0109168D02*
X0128450Y0109168D01*
X0128450Y0110767D02*
X0144050Y0110767D01*
X0144050Y0112365D02*
X0129154Y0112365D01*
X0129431Y0113964D02*
X0144050Y0113964D01*
X0144050Y0115562D02*
X0128853Y0115562D01*
X0124050Y0110767D02*
X0121607Y0110767D01*
X0119646Y0119667D02*
X0112854Y0119667D01*
X0111384Y0120276D01*
X0110259Y0121401D01*
X0109650Y0122871D01*
X0109650Y0124462D01*
X0110259Y0125932D01*
X0111384Y0127058D01*
X0112854Y0127667D01*
X0119646Y0127667D01*
X0121116Y0127058D01*
X0122241Y0125932D01*
X0122850Y0124462D01*
X0122850Y0122871D01*
X0122241Y0121401D01*
X0121116Y0120276D01*
X0119646Y0119667D01*
X0121198Y0120358D02*
X0144050Y0120358D01*
X0144050Y0121956D02*
X0122471Y0121956D01*
X0122850Y0123555D02*
X0144050Y0123555D01*
X0144050Y0125154D02*
X0122564Y0125154D01*
X0121421Y0126752D02*
X0144050Y0126752D01*
X0144050Y0128351D02*
X0108450Y0128351D01*
X0108450Y0129949D02*
X0112173Y0129949D01*
X0112854Y0129667D02*
X0119646Y0129667D01*
X0121116Y0130276D01*
X0122241Y0131401D01*
X0122850Y0132871D01*
X0122850Y0134462D01*
X0122241Y0135932D01*
X0121116Y0137058D01*
X0119646Y0137667D01*
X0112854Y0137667D01*
X0111384Y0137058D01*
X0110259Y0135932D01*
X0109650Y0134462D01*
X0109650Y0132871D01*
X0110259Y0131401D01*
X0111384Y0130276D01*
X0112854Y0129667D01*
X0110198Y0131548D02*
X0108450Y0131548D01*
X0108450Y0133146D02*
X0109650Y0133146D01*
X0109767Y0134745D02*
X0108450Y0134745D01*
X0108450Y0136343D02*
X0110670Y0136343D01*
X0108450Y0137942D02*
X0144050Y0137942D01*
X0144050Y0139540D02*
X0108450Y0139540D01*
X0108450Y0141139D02*
X0110521Y0141139D01*
X0110259Y0141401D02*
X0111384Y0140276D01*
X0112854Y0139667D01*
X0119646Y0139667D01*
X0121116Y0140276D01*
X0122241Y0141401D01*
X0122850Y0142871D01*
X0122850Y0144462D01*
X0122241Y0145932D01*
X0121116Y0147058D01*
X0119646Y0147667D01*
X0112854Y0147667D01*
X0111384Y0147058D01*
X0110259Y0145932D01*
X0109650Y0144462D01*
X0109650Y0142871D01*
X0110259Y0141401D01*
X0109705Y0142737D02*
X0108450Y0142737D01*
X0108450Y0144336D02*
X0109650Y0144336D01*
X0110261Y0145934D02*
X0108450Y0145934D01*
X0108450Y0147533D02*
X0112531Y0147533D01*
X0112620Y0149375D02*
X0113304Y0149267D01*
X0116250Y0149267D01*
X0119196Y0149267D01*
X0119880Y0149375D01*
X0120539Y0149589D01*
X0121156Y0149903D01*
X0121716Y0150311D01*
X0122206Y0150800D01*
X0122613Y0151361D01*
X0122928Y0151978D01*
X0123142Y0152636D01*
X0123167Y0152797D01*
X0123553Y0151865D01*
X0124448Y0150970D01*
X0125617Y0150486D01*
X0126883Y0150486D01*
X0128052Y0150970D01*
X0128947Y0151865D01*
X0129431Y0153034D01*
X0129431Y0154299D01*
X0128947Y0155469D01*
X0128450Y0155965D01*
X0128450Y0192237D01*
X0128947Y0192734D01*
X0129431Y0193903D01*
X0129431Y0195169D01*
X0128947Y0196338D01*
X0128052Y0197233D01*
X0126883Y0197717D01*
X0125617Y0197717D01*
X0124448Y0197233D01*
X0123553Y0196338D01*
X0123069Y0195169D01*
X0123069Y0193903D01*
X0123553Y0192734D01*
X0124050Y0192237D01*
X0124050Y0191523D01*
X0122907Y0192667D01*
X0119593Y0192667D01*
X0117250Y0190323D01*
X0117250Y0187010D01*
X0119593Y0184667D01*
X0122907Y0184667D01*
X0124050Y0185810D01*
X0124050Y0155965D01*
X0123553Y0155469D01*
X0123167Y0154536D01*
X0123142Y0154697D01*
X0122928Y0155356D01*
X0122613Y0155973D01*
X0122206Y0156533D01*
X0121716Y0157023D01*
X0121156Y0157430D01*
X0120539Y0157744D01*
X0119880Y0157958D01*
X0119196Y0158067D01*
X0116250Y0158067D01*
X0113304Y0158067D01*
X0112620Y0157958D01*
X0111961Y0157744D01*
X0111344Y0157430D01*
X0110784Y0157023D01*
X0110294Y0156533D01*
X0109887Y0155973D01*
X0109572Y0155356D01*
X0109358Y0154697D01*
X0109250Y0154013D01*
X0109250Y0153667D01*
X0116250Y0153667D01*
X0116250Y0158067D01*
X0116250Y0153667D01*
X0116250Y0153667D01*
X0116250Y0153667D01*
X0109250Y0153667D01*
X0109250Y0153320D01*
X0109358Y0152636D01*
X0109572Y0151978D01*
X0109887Y0151361D01*
X0110294Y0150800D01*
X0110784Y0150311D01*
X0111344Y0149903D01*
X0111961Y0149589D01*
X0112620Y0149375D01*
X0110364Y0150730D02*
X0108450Y0150730D01*
X0108450Y0152328D02*
X0109458Y0152328D01*
X0109250Y0153927D02*
X0108450Y0153927D01*
X0108450Y0155525D02*
X0109659Y0155525D01*
X0108450Y0157124D02*
X0110923Y0157124D01*
X0108450Y0158722D02*
X0124050Y0158722D01*
X0124050Y0157124D02*
X0121577Y0157124D01*
X0122841Y0155525D02*
X0123610Y0155525D01*
X0126250Y0153667D02*
X0126250Y0194536D01*
X0123996Y0192291D02*
X0123282Y0192291D01*
X0123075Y0193890D02*
X0119630Y0193890D01*
X0119217Y0192291D02*
X0118031Y0192291D01*
X0117619Y0190692D02*
X0115447Y0190692D01*
X0115650Y0190489D02*
X0113073Y0193067D01*
X0111250Y0193067D01*
X0109427Y0193067D01*
X0106850Y0190489D01*
X0106850Y0188667D01*
X0111250Y0188667D01*
X0111250Y0193067D01*
X0111250Y0188667D01*
X0111250Y0188667D01*
X0115650Y0188667D01*
X0115650Y0190489D01*
X0115650Y0189094D02*
X0117250Y0189094D01*
X0117250Y0187495D02*
X0115650Y0187495D01*
X0115650Y0186844D02*
X0115650Y0188667D01*
X0111250Y0188667D01*
X0111250Y0188667D01*
X0111250Y0188667D01*
X0106850Y0188667D01*
X0106850Y0186844D01*
X0109427Y0184267D01*
X0111250Y0184267D01*
X0113073Y0184267D01*
X0115650Y0186844D01*
X0114703Y0185897D02*
X0118363Y0185897D01*
X0113104Y0184298D02*
X0124050Y0184298D01*
X0124050Y0182700D02*
X0073450Y0182700D01*
X0073450Y0184298D02*
X0086128Y0184298D01*
X0086129Y0184298D02*
X0087867Y0184298D01*
X0089473Y0184963D01*
X0090701Y0186192D01*
X0091367Y0187798D01*
X0091367Y0189536D01*
X0090701Y0191141D01*
X0089473Y0192370D01*
X0087867Y0193035D01*
X0086129Y0193035D01*
X0084523Y0192370D01*
X0083295Y0191141D01*
X0082848Y0190063D01*
X0082494Y0190918D01*
X0081376Y0192036D01*
X0079915Y0192641D01*
X0078333Y0192641D01*
X0076872Y0192036D01*
X0075754Y0190918D01*
X0075187Y0189549D01*
X0074620Y0190918D01*
X0073502Y0192036D01*
X0072041Y0192641D01*
X0070459Y0192641D01*
X0068998Y0192036D01*
X0067880Y0190918D01*
X0067313Y0189549D01*
X0066746Y0190918D01*
X0065628Y0192036D01*
X0064167Y0192641D01*
X0062585Y0192641D01*
X0061124Y0192036D01*
X0060006Y0190918D01*
X0059652Y0190063D01*
X0059205Y0191141D01*
X0057977Y0192370D01*
X0056371Y0193035D01*
X0054633Y0193035D01*
X0053027Y0192370D01*
X0051799Y0191141D01*
X0051133Y0189536D01*
X0051133Y0188067D01*
X0049591Y0189610D01*
X0047014Y0190677D01*
X0044226Y0190677D01*
X0041649Y0189610D01*
X0039677Y0187638D01*
X0038610Y0185061D01*
X0038610Y0182272D01*
X0039677Y0179696D01*
X0041649Y0177724D01*
X0044226Y0176656D01*
X0047014Y0176656D01*
X0049591Y0177724D01*
X0051563Y0179696D01*
X0052630Y0182272D01*
X0052630Y0185061D01*
X0052419Y0185572D01*
X0053027Y0184963D01*
X0054633Y0184298D01*
X0056371Y0184298D01*
X0057977Y0184963D01*
X0059205Y0186192D01*
X0059652Y0187270D01*
X0060006Y0186415D01*
X0061124Y0185297D01*
X0062585Y0184692D01*
X0064167Y0184692D01*
X0065628Y0185297D01*
X0066746Y0186415D01*
X0067313Y0187785D01*
X0067880Y0186415D01*
X0068998Y0185297D01*
X0069050Y0185276D01*
X0069050Y0165965D01*
X0068553Y0165469D01*
X0068069Y0164299D01*
X0068069Y0163034D01*
X0068553Y0161865D01*
X0069448Y0160970D01*
X0070617Y0160486D01*
X0071883Y0160486D01*
X0073052Y0160970D01*
X0073947Y0161865D01*
X0074431Y0163034D01*
X0074431Y0164299D01*
X0073947Y0165469D01*
X0073450Y0165965D01*
X0073450Y0185276D01*
X0073502Y0185297D01*
X0074620Y0186415D01*
X0075187Y0187785D01*
X0075754Y0186415D01*
X0076872Y0185297D01*
X0078333Y0184692D01*
X0079915Y0184692D01*
X0081376Y0185297D01*
X0082494Y0186415D01*
X0082848Y0187270D01*
X0083295Y0186192D01*
X0084523Y0184963D01*
X0086129Y0184298D01*
X0087868Y0184298D02*
X0109396Y0184298D01*
X0111250Y0184298D02*
X0111250Y0184298D01*
X0111250Y0184267D02*
X0111250Y0188667D01*
X0111250Y0188667D01*
X0111250Y0184267D01*
X0111250Y0185897D02*
X0111250Y0185897D01*
X0111250Y0187495D02*
X0111250Y0187495D01*
X0111250Y0189094D02*
X0111250Y0189094D01*
X0111250Y0190692D02*
X0111250Y0190692D01*
X0111250Y0192291D02*
X0111250Y0192291D01*
X0112870Y0193890D02*
X0008050Y0193890D01*
X0008050Y0195488D02*
X0112250Y0195488D01*
X0112250Y0197087D02*
X0008050Y0197087D01*
X0008050Y0198685D02*
X0113112Y0198685D01*
X0119388Y0198685D02*
X0201300Y0198685D01*
X0201300Y0197087D02*
X0164053Y0197087D01*
X0163073Y0198067D02*
X0165650Y0195489D01*
X0165650Y0193667D01*
X0161250Y0193667D01*
X0161250Y0198067D01*
X0159427Y0198067D01*
X0156850Y0195489D01*
X0156850Y0193667D01*
X0161250Y0193667D01*
X0161250Y0193667D01*
X0161250Y0198067D01*
X0163073Y0198067D01*
X0161250Y0197087D02*
X0161250Y0197087D01*
X0161250Y0195488D02*
X0161250Y0195488D01*
X0161250Y0193890D02*
X0161250Y0193890D01*
X0161250Y0193667D02*
X0161250Y0193667D01*
X0161250Y0193667D01*
X0156850Y0193667D01*
X0156850Y0191844D01*
X0159427Y0189267D01*
X0161250Y0189267D01*
X0163073Y0189267D01*
X0165650Y0191844D01*
X0165650Y0193667D01*
X0161250Y0193667D01*
X0161250Y0189267D01*
X0161250Y0193667D01*
X0161250Y0193667D01*
X0161250Y0192291D02*
X0161250Y0192291D01*
X0161250Y0190692D02*
X0161250Y0190692D01*
X0164498Y0190692D02*
X0177619Y0190692D01*
X0177250Y0190323D02*
X0177250Y0187010D01*
X0179593Y0184667D01*
X0182907Y0184667D01*
X0185250Y0187010D01*
X0185250Y0190323D01*
X0182907Y0192667D01*
X0179593Y0192667D01*
X0177250Y0190323D01*
X0177250Y0189094D02*
X0128450Y0189094D01*
X0128450Y0190692D02*
X0133567Y0190692D01*
X0134593Y0189667D02*
X0137907Y0189667D01*
X0140250Y0192010D01*
X0140250Y0195323D01*
X0137907Y0197667D01*
X0134593Y0197667D01*
X0132250Y0195323D01*
X0132250Y0192010D01*
X0134593Y0189667D01*
X0132250Y0192291D02*
X0128504Y0192291D01*
X0129425Y0193890D02*
X0132250Y0193890D01*
X0132415Y0195488D02*
X0129299Y0195488D01*
X0128198Y0197087D02*
X0134013Y0197087D01*
X0138487Y0197087D02*
X0143447Y0197087D01*
X0144427Y0198067D02*
X0141850Y0195489D01*
X0141850Y0193667D01*
X0146250Y0193667D01*
X0146250Y0198067D01*
X0148073Y0198067D01*
X0150650Y0195489D01*
X0150650Y0193667D01*
X0146250Y0193667D01*
X0146250Y0193667D01*
X0146250Y0198067D01*
X0144427Y0198067D01*
X0146250Y0197087D02*
X0146250Y0197087D01*
X0146250Y0195488D02*
X0146250Y0195488D01*
X0146250Y0193890D02*
X0146250Y0193890D01*
X0146250Y0193667D02*
X0146250Y0193667D01*
X0146250Y0193667D01*
X0150650Y0193667D01*
X0150650Y0191844D01*
X0148073Y0189267D01*
X0146250Y0189267D01*
X0146250Y0193667D01*
X0141850Y0193667D01*
X0141850Y0191844D01*
X0144427Y0189267D01*
X0146250Y0189267D01*
X0146250Y0193667D01*
X0146250Y0193667D01*
X0146250Y0192291D02*
X0146250Y0192291D01*
X0146250Y0190692D02*
X0146250Y0190692D01*
X0149498Y0190692D02*
X0158002Y0190692D01*
X0156850Y0192291D02*
X0150650Y0192291D01*
X0150650Y0193890D02*
X0156850Y0193890D01*
X0156850Y0195488D02*
X0150650Y0195488D01*
X0149053Y0197087D02*
X0158447Y0197087D01*
X0165650Y0195488D02*
X0201300Y0195488D01*
X0201300Y0193890D02*
X0165650Y0193890D01*
X0165650Y0192291D02*
X0179217Y0192291D01*
X0183282Y0192291D02*
X0189217Y0192291D01*
X0189593Y0192667D02*
X0187250Y0190323D01*
X0187250Y0187010D01*
X0189593Y0184667D01*
X0192907Y0184667D01*
X0195250Y0187010D01*
X0195250Y0190323D01*
X0192907Y0192667D01*
X0189593Y0192667D01*
X0187619Y0190692D02*
X0184881Y0190692D01*
X0185250Y0189094D02*
X0187250Y0189094D01*
X0187250Y0187495D02*
X0185250Y0187495D01*
X0184137Y0185897D02*
X0188363Y0185897D01*
X0193282Y0192291D02*
X0201300Y0192291D01*
X0201300Y0190692D02*
X0194881Y0190692D01*
X0195250Y0189094D02*
X0201300Y0189094D01*
X0201300Y0187495D02*
X0195250Y0187495D01*
X0194137Y0185897D02*
X0201300Y0185897D01*
X0201300Y0184298D02*
X0149341Y0184298D01*
X0148073Y0185567D02*
X0150650Y0182989D01*
X0150650Y0181167D01*
X0146250Y0181167D01*
X0146250Y0185567D01*
X0148073Y0185567D01*
X0146250Y0185567D02*
X0146250Y0181167D01*
X0146250Y0181167D01*
X0146250Y0181167D01*
X0146250Y0181167D01*
X0141850Y0181167D01*
X0141850Y0182989D01*
X0144427Y0185567D01*
X0146250Y0185567D01*
X0146250Y0184298D02*
X0146250Y0184298D01*
X0146250Y0182700D02*
X0146250Y0182700D01*
X0146250Y0181167D02*
X0150650Y0181167D01*
X0150650Y0179344D01*
X0148073Y0176767D01*
X0146250Y0176767D01*
X0146250Y0181167D01*
X0141850Y0181167D01*
X0141850Y0179344D01*
X0144427Y0176767D01*
X0146250Y0176767D01*
X0146250Y0181167D01*
X0146250Y0181167D01*
X0146250Y0181101D02*
X0146250Y0181101D01*
X0146250Y0179503D02*
X0146250Y0179503D01*
X0146250Y0177904D02*
X0146250Y0177904D01*
X0149210Y0177904D02*
X0201300Y0177904D01*
X0201300Y0176306D02*
X0189268Y0176306D01*
X0190250Y0175323D02*
X0187907Y0177667D01*
X0184593Y0177667D01*
X0182250Y0175323D01*
X0182250Y0172010D01*
X0184593Y0169667D01*
X0187907Y0169667D01*
X0190250Y0172010D01*
X0190250Y0175323D01*
X0190250Y0174707D02*
X0201300Y0174707D01*
X0201300Y0173109D02*
X0190250Y0173109D01*
X0189751Y0171510D02*
X0201300Y0171510D01*
X0201300Y0169912D02*
X0188152Y0169912D01*
X0184348Y0169912D02*
X0162638Y0169912D01*
X0162046Y0169667D02*
X0163516Y0170276D01*
X0164641Y0171401D01*
X0165250Y0172871D01*
X0165250Y0174462D01*
X0164641Y0175932D01*
X0163516Y0177058D01*
X0162046Y0177667D01*
X0160454Y0177667D01*
X0158984Y0177058D01*
X0157859Y0175932D01*
X0157250Y0174462D01*
X0157250Y0172871D01*
X0157859Y0171401D01*
X0158984Y0170276D01*
X0160454Y0169667D01*
X0162046Y0169667D01*
X0159862Y0169912D02*
X0150650Y0169912D01*
X0150650Y0170489D02*
X0150650Y0168667D01*
X0146250Y0168667D01*
X0146250Y0173067D01*
X0148073Y0173067D01*
X0150650Y0170489D01*
X0149629Y0171510D02*
X0157814Y0171510D01*
X0157250Y0173109D02*
X0128450Y0173109D01*
X0128450Y0174707D02*
X0157352Y0174707D01*
X0158232Y0176306D02*
X0128450Y0176306D01*
X0128450Y0177904D02*
X0133855Y0177904D01*
X0134593Y0177167D02*
X0137907Y0177167D01*
X0140250Y0179510D01*
X0140250Y0182823D01*
X0137907Y0185167D01*
X0134593Y0185167D01*
X0132250Y0182823D01*
X0132250Y0179510D01*
X0134593Y0177167D01*
X0132257Y0179503D02*
X0128450Y0179503D01*
X0128450Y0181101D02*
X0132250Y0181101D01*
X0132250Y0182700D02*
X0128450Y0182700D01*
X0128450Y0184298D02*
X0133725Y0184298D01*
X0138775Y0184298D02*
X0143159Y0184298D01*
X0141850Y0182700D02*
X0140250Y0182700D01*
X0140250Y0181101D02*
X0141850Y0181101D01*
X0141850Y0179503D02*
X0140243Y0179503D01*
X0138645Y0177904D02*
X0143290Y0177904D01*
X0144427Y0173067D02*
X0141850Y0170489D01*
X0141850Y0168667D01*
X0146250Y0168667D01*
X0146250Y0168667D01*
X0146250Y0173067D01*
X0144427Y0173067D01*
X0142871Y0171510D02*
X0139063Y0171510D01*
X0137907Y0172667D02*
X0134593Y0172667D01*
X0132250Y0170323D01*
X0132250Y0167010D01*
X0134593Y0164667D01*
X0137907Y0164667D01*
X0140250Y0167010D01*
X0140250Y0170323D01*
X0137907Y0172667D01*
X0140250Y0169912D02*
X0141850Y0169912D01*
X0141850Y0168667D02*
X0141850Y0166844D01*
X0144427Y0164267D01*
X0146250Y0164267D01*
X0148073Y0164267D01*
X0150650Y0166844D01*
X0150650Y0168667D01*
X0146250Y0168667D01*
X0146250Y0168667D01*
X0146250Y0168667D01*
X0141850Y0168667D01*
X0141850Y0168313D02*
X0140250Y0168313D01*
X0139955Y0166715D02*
X0141979Y0166715D01*
X0143578Y0165116D02*
X0138356Y0165116D01*
X0134144Y0165116D02*
X0128450Y0165116D01*
X0128450Y0163518D02*
X0201300Y0163518D01*
X0201300Y0165116D02*
X0148922Y0165116D01*
X0150521Y0166715D02*
X0201300Y0166715D01*
X0201300Y0168313D02*
X0150650Y0168313D01*
X0146250Y0168313D02*
X0146250Y0168313D01*
X0146250Y0168667D02*
X0146250Y0164267D01*
X0146250Y0168667D01*
X0146250Y0168667D01*
X0146250Y0169912D02*
X0146250Y0169912D01*
X0146250Y0171510D02*
X0146250Y0171510D01*
X0146250Y0166715D02*
X0146250Y0166715D01*
X0146250Y0165116D02*
X0146250Y0165116D01*
X0145617Y0156848D02*
X0144448Y0156363D01*
X0143553Y0155469D01*
X0143069Y0154299D01*
X0143069Y0153034D01*
X0143553Y0151865D01*
X0144050Y0151368D01*
X0144050Y0080965D01*
X0143553Y0080469D01*
X0143069Y0079299D01*
X0143069Y0078034D01*
X0143553Y0076865D01*
X0144448Y0075970D01*
X0145617Y0075486D01*
X0146883Y0075486D01*
X0148052Y0075970D01*
X0148947Y0076865D01*
X0149431Y0078034D01*
X0149431Y0079299D01*
X0148947Y0080469D01*
X0148450Y0080965D01*
X0148450Y0151368D01*
X0148947Y0151865D01*
X0149431Y0153034D01*
X0149431Y0154299D01*
X0148947Y0155469D01*
X0148052Y0156363D01*
X0146883Y0156848D01*
X0145617Y0156848D01*
X0143610Y0155525D02*
X0128890Y0155525D01*
X0128450Y0157124D02*
X0201300Y0157124D01*
X0201300Y0158722D02*
X0128450Y0158722D01*
X0128450Y0160321D02*
X0201300Y0160321D01*
X0201300Y0161919D02*
X0128450Y0161919D01*
X0124050Y0161919D02*
X0122456Y0161919D01*
X0122241Y0161401D02*
X0122850Y0162871D01*
X0122850Y0164462D01*
X0122241Y0165932D01*
X0121116Y0167058D01*
X0119646Y0167667D01*
X0112854Y0167667D01*
X0111384Y0167058D01*
X0110259Y0165932D01*
X0109650Y0164462D01*
X0109650Y0162871D01*
X0110259Y0161401D01*
X0111384Y0160276D01*
X0112854Y0159667D01*
X0119646Y0159667D01*
X0121116Y0160276D01*
X0122241Y0161401D01*
X0121161Y0160321D02*
X0124050Y0160321D01*
X0124050Y0163518D02*
X0122850Y0163518D01*
X0122579Y0165116D02*
X0124050Y0165116D01*
X0124050Y0166715D02*
X0121459Y0166715D01*
X0124050Y0168313D02*
X0109431Y0168313D01*
X0109431Y0168034D02*
X0109431Y0169299D01*
X0108947Y0170469D01*
X0108052Y0171363D01*
X0106883Y0171848D01*
X0105617Y0171848D01*
X0104448Y0171363D01*
X0103553Y0170469D01*
X0103069Y0169299D01*
X0103069Y0168034D01*
X0103553Y0166865D01*
X0104050Y0166368D01*
X0104050Y0105965D01*
X0103553Y0105469D01*
X0103069Y0104299D01*
X0103069Y0103034D01*
X0103553Y0101865D01*
X0104448Y0100970D01*
X0105617Y0100486D01*
X0106883Y0100486D01*
X0108052Y0100970D01*
X0108947Y0101865D01*
X0109431Y0103034D01*
X0109431Y0104299D01*
X0108947Y0105469D01*
X0108450Y0105965D01*
X0108450Y0166368D01*
X0108947Y0166865D01*
X0109431Y0168034D01*
X0108797Y0166715D02*
X0111041Y0166715D01*
X0109921Y0165116D02*
X0108450Y0165116D01*
X0108450Y0163518D02*
X0109650Y0163518D01*
X0110044Y0161919D02*
X0108450Y0161919D01*
X0108450Y0160321D02*
X0111339Y0160321D01*
X0116250Y0157124D02*
X0116250Y0157124D01*
X0116250Y0155525D02*
X0116250Y0155525D01*
X0116250Y0153927D02*
X0116250Y0153927D01*
X0116250Y0153667D02*
X0116250Y0149267D01*
X0116250Y0153667D01*
X0116250Y0153667D01*
X0116250Y0152328D02*
X0116250Y0152328D01*
X0116250Y0150730D02*
X0116250Y0150730D01*
X0119969Y0147533D02*
X0144050Y0147533D01*
X0144050Y0149131D02*
X0108450Y0149131D01*
X0104050Y0149131D02*
X0095250Y0149131D01*
X0095250Y0147533D02*
X0104050Y0147533D01*
X0104050Y0145934D02*
X0095250Y0145934D01*
X0095250Y0144336D02*
X0104050Y0144336D01*
X0104050Y0142737D02*
X0095250Y0142737D01*
X0095250Y0141139D02*
X0104050Y0141139D01*
X0104050Y0139540D02*
X0095250Y0139540D01*
X0095250Y0137942D02*
X0104050Y0137942D01*
X0104050Y0136343D02*
X0095250Y0136343D01*
X0095250Y0134745D02*
X0104050Y0134745D01*
X0104050Y0133146D02*
X0095250Y0133146D01*
X0095250Y0131548D02*
X0104050Y0131548D01*
X0104050Y0129949D02*
X0095250Y0129949D01*
X0095250Y0128351D02*
X0104050Y0128351D01*
X0104050Y0126752D02*
X0095250Y0126752D01*
X0095250Y0125154D02*
X0104050Y0125154D01*
X0104050Y0123555D02*
X0095250Y0123555D01*
X0095250Y0121956D02*
X0104050Y0121956D01*
X0104050Y0120358D02*
X0095250Y0120358D01*
X0095250Y0118759D02*
X0104050Y0118759D01*
X0104050Y0117161D02*
X0095250Y0117161D01*
X0095250Y0115562D02*
X0104050Y0115562D01*
X0104050Y0113964D02*
X0095250Y0113964D01*
X0095250Y0112365D02*
X0104050Y0112365D01*
X0104050Y0110767D02*
X0095250Y0110767D01*
X0095250Y0109168D02*
X0104050Y0109168D01*
X0104050Y0107570D02*
X0095250Y0107570D01*
X0095250Y0105971D02*
X0104050Y0105971D01*
X0103099Y0104373D02*
X0095250Y0104373D01*
X0095250Y0102774D02*
X0103176Y0102774D01*
X0104242Y0101176D02*
X0095250Y0101176D01*
X0090850Y0100166D02*
X0090850Y0097586D01*
X0090539Y0097744D01*
X0089880Y0097958D01*
X0089196Y0098067D01*
X0086250Y0098067D01*
X0083304Y0098067D01*
X0082620Y0097958D01*
X0081961Y0097744D01*
X0081344Y0097430D01*
X0080784Y0097023D01*
X0080294Y0096533D01*
X0079887Y0095973D01*
X0079572Y0095356D01*
X0079358Y0094697D01*
X0079250Y0094013D01*
X0079250Y0093667D01*
X0086250Y0093667D01*
X0086250Y0098067D01*
X0086250Y0093667D01*
X0086250Y0093667D01*
X0086250Y0093667D01*
X0079250Y0093667D01*
X0079250Y0093320D01*
X0079358Y0092636D01*
X0079572Y0091978D01*
X0079887Y0091361D01*
X0080294Y0090800D01*
X0080784Y0090311D01*
X0081344Y0089903D01*
X0081961Y0089589D01*
X0082620Y0089375D01*
X0083304Y0089267D01*
X0086250Y0089267D01*
X0089196Y0089267D01*
X0089880Y0089375D01*
X0090539Y0089589D01*
X0090850Y0089747D01*
X0090850Y0087168D01*
X0089646Y0087667D01*
X0082854Y0087667D01*
X0081384Y0087058D01*
X0080259Y0085932D01*
X0079650Y0084462D01*
X0079650Y0082871D01*
X0080259Y0081401D01*
X0081384Y0080276D01*
X0082854Y0079667D01*
X0089646Y0079667D01*
X0090850Y0080166D01*
X0090850Y0077168D01*
X0089646Y0077667D01*
X0082854Y0077667D01*
X0081384Y0077058D01*
X0080259Y0075932D01*
X0079650Y0074462D01*
X0079650Y0072871D01*
X0080259Y0071401D01*
X0081384Y0070276D01*
X0082854Y0069667D01*
X0089646Y0069667D01*
X0090850Y0070166D01*
X0090850Y0067168D01*
X0089646Y0067667D01*
X0082854Y0067667D01*
X0081384Y0067058D01*
X0080259Y0065932D01*
X0079650Y0064462D01*
X0079650Y0062871D01*
X0080259Y0061401D01*
X0081384Y0060276D01*
X0082854Y0059667D01*
X0089646Y0059667D01*
X0090850Y0060166D01*
X0090850Y0057168D01*
X0089646Y0057667D01*
X0082854Y0057667D01*
X0081384Y0057058D01*
X0080259Y0055932D01*
X0079650Y0054462D01*
X0079650Y0052871D01*
X0080259Y0051401D01*
X0081296Y0050364D01*
X0077250Y0046318D01*
X0077250Y0041016D01*
X0078183Y0040082D01*
X0077859Y0039299D01*
X0077859Y0038034D01*
X0078343Y0036865D01*
X0079238Y0035970D01*
X0080123Y0035603D01*
X0079650Y0034462D01*
X0079650Y0032871D01*
X0080259Y0031401D01*
X0081384Y0030276D01*
X0082854Y0029667D01*
X0089646Y0029667D01*
X0091116Y0030276D01*
X0092241Y0031401D01*
X0092850Y0032871D01*
X0092850Y0034462D01*
X0092241Y0035932D01*
X0091116Y0037058D01*
X0089646Y0037667D01*
X0084069Y0037667D01*
X0084221Y0038034D01*
X0084221Y0039299D01*
X0084069Y0039667D01*
X0089646Y0039667D01*
X0091116Y0040276D01*
X0092241Y0041401D01*
X0092850Y0042871D01*
X0092850Y0044462D01*
X0092241Y0045932D01*
X0091116Y0047058D01*
X0090611Y0047267D01*
X0091501Y0047267D01*
X0092790Y0048555D01*
X0093961Y0049727D01*
X0095250Y0051016D01*
X0095250Y0156318D01*
X0093961Y0157606D01*
X0091204Y0160364D01*
X0092241Y0161401D01*
X0092850Y0162871D01*
X0092850Y0164462D01*
X0092241Y0165932D01*
X0091116Y0167058D01*
X0089646Y0167667D01*
X0082854Y0167667D01*
X0081384Y0167058D01*
X0080259Y0165932D01*
X0079650Y0164462D01*
X0079650Y0162871D01*
X0080259Y0161401D01*
X0081384Y0160276D01*
X0082854Y0159667D01*
X0085678Y0159667D01*
X0087678Y0157667D01*
X0082854Y0157667D01*
X0081384Y0157058D01*
X0080259Y0155932D01*
X0079650Y0154462D01*
X0079650Y0152871D01*
X0080259Y0151401D01*
X0081384Y0150276D01*
X0082854Y0149667D01*
X0089646Y0149667D01*
X0090850Y0150166D01*
X0090850Y0147168D01*
X0089646Y0147667D01*
X0082854Y0147667D01*
X0081384Y0147058D01*
X0080259Y0145932D01*
X0079650Y0144462D01*
X0079650Y0142871D01*
X0080259Y0141401D01*
X0081384Y0140276D01*
X0082854Y0139667D01*
X0089646Y0139667D01*
X0090850Y0140166D01*
X0090850Y0137168D01*
X0089646Y0137667D01*
X0082854Y0137667D01*
X0081384Y0137058D01*
X0080259Y0135932D01*
X0079650Y0134462D01*
X0079650Y0132871D01*
X0080259Y0131401D01*
X0081384Y0130276D01*
X0082854Y0129667D01*
X0089646Y0129667D01*
X0090850Y0130166D01*
X0090850Y0127168D01*
X0089646Y0127667D01*
X0082854Y0127667D01*
X0081384Y0127058D01*
X0080259Y0125932D01*
X0079650Y0124462D01*
X0079650Y0122871D01*
X0080259Y0121401D01*
X0081384Y0120276D01*
X0082854Y0119667D01*
X0089646Y0119667D01*
X0090850Y0120166D01*
X0090850Y0117168D01*
X0089646Y0117667D01*
X0082854Y0117667D01*
X0081384Y0117058D01*
X0080259Y0115932D01*
X0079650Y0114462D01*
X0079650Y0112871D01*
X0080259Y0111401D01*
X0081384Y0110276D01*
X0082854Y0109667D01*
X0089646Y0109667D01*
X0090850Y0110166D01*
X0090850Y0107168D01*
X0089646Y0107667D01*
X0082854Y0107667D01*
X0081384Y0107058D01*
X0080259Y0105932D01*
X0079650Y0104462D01*
X0079650Y0102871D01*
X0080259Y0101401D01*
X0081384Y0100276D01*
X0082854Y0099667D01*
X0089646Y0099667D01*
X0090850Y0100166D01*
X0090850Y0099577D02*
X0043450Y0099577D01*
X0043450Y0097979D02*
X0082749Y0097979D01*
X0080183Y0096380D02*
X0043450Y0096380D01*
X0043450Y0094782D02*
X0079386Y0094782D01*
X0079272Y0093183D02*
X0073673Y0093183D01*
X0074139Y0092990D02*
X0072264Y0093767D01*
X0070236Y0093767D01*
X0068361Y0092990D01*
X0066926Y0091556D01*
X0066150Y0089681D01*
X0066150Y0087652D01*
X0066926Y0085778D01*
X0068361Y0084343D01*
X0069487Y0083877D01*
X0069139Y0083764D01*
X0068367Y0083371D01*
X0067667Y0082862D01*
X0067055Y0082250D01*
X0066546Y0081549D01*
X0066153Y0080778D01*
X0065885Y0079955D01*
X0065750Y0079100D01*
X0065750Y0078867D01*
X0071050Y0078867D01*
X0071050Y0078467D01*
X0065750Y0078467D01*
X0065750Y0078234D01*
X0065885Y0077379D01*
X0066153Y0076555D01*
X0066546Y0075784D01*
X0067055Y0075084D01*
X0067667Y0074471D01*
X0068367Y0073963D01*
X0069139Y0073570D01*
X0069487Y0073457D01*
X0068361Y0072990D01*
X0066926Y0071556D01*
X0066150Y0069681D01*
X0066150Y0067652D01*
X0066926Y0065778D01*
X0068361Y0064343D01*
X0070236Y0063567D01*
X0072264Y0063567D01*
X0074139Y0064343D01*
X0075574Y0065778D01*
X0076350Y0067652D01*
X0076350Y0069681D01*
X0075574Y0071556D01*
X0074139Y0072990D01*
X0073013Y0073457D01*
X0073361Y0073570D01*
X0074133Y0073963D01*
X0074833Y0074471D01*
X0075445Y0075084D01*
X0075954Y0075784D01*
X0076347Y0076555D01*
X0076615Y0077379D01*
X0076750Y0078234D01*
X0076750Y0078467D01*
X0071450Y0078467D01*
X0071450Y0078867D01*
X0076750Y0078867D01*
X0076750Y0079100D01*
X0076615Y0079955D01*
X0076347Y0080778D01*
X0075954Y0081549D01*
X0075445Y0082250D01*
X0074833Y0082862D01*
X0074133Y0083371D01*
X0073361Y0083764D01*
X0073013Y0083877D01*
X0074139Y0084343D01*
X0075574Y0085778D01*
X0076350Y0087652D01*
X0076350Y0089681D01*
X0075574Y0091556D01*
X0074139Y0092990D01*
X0075544Y0091585D02*
X0079773Y0091585D01*
X0081230Y0089986D02*
X0076224Y0089986D01*
X0076350Y0088388D02*
X0090850Y0088388D01*
X0086250Y0089267D02*
X0086250Y0093667D01*
X0086250Y0093667D01*
X0086250Y0089267D01*
X0086250Y0089986D02*
X0086250Y0089986D01*
X0086250Y0091585D02*
X0086250Y0091585D01*
X0086250Y0093183D02*
X0086250Y0093183D01*
X0086250Y0094782D02*
X0086250Y0094782D01*
X0086250Y0096380D02*
X0086250Y0096380D01*
X0086250Y0097979D02*
X0086250Y0097979D01*
X0089751Y0097979D02*
X0090850Y0097979D01*
X0095250Y0096380D02*
X0110707Y0096380D01*
X0109782Y0094782D02*
X0095250Y0094782D01*
X0095250Y0093183D02*
X0109650Y0093183D01*
X0110183Y0091585D02*
X0095250Y0091585D01*
X0106250Y0103667D02*
X0106250Y0168667D01*
X0103323Y0169912D02*
X0073450Y0169912D01*
X0073450Y0171510D02*
X0104803Y0171510D01*
X0103069Y0168313D02*
X0073450Y0168313D01*
X0073450Y0166715D02*
X0081041Y0166715D01*
X0079921Y0165116D02*
X0074093Y0165116D01*
X0074431Y0163518D02*
X0079650Y0163518D01*
X0080044Y0161919D02*
X0073969Y0161919D01*
X0071250Y0163667D02*
X0071250Y0188667D01*
X0074102Y0185897D02*
X0076273Y0185897D01*
X0075307Y0187495D02*
X0075067Y0187495D01*
X0074713Y0190692D02*
X0075661Y0190692D01*
X0077487Y0192291D02*
X0072887Y0192291D01*
X0069613Y0192291D02*
X0065013Y0192291D01*
X0066839Y0190692D02*
X0067787Y0190692D01*
X0067433Y0187495D02*
X0067193Y0187495D01*
X0066227Y0185897D02*
X0068398Y0185897D01*
X0069050Y0184298D02*
X0056372Y0184298D01*
X0054632Y0184298D02*
X0052630Y0184298D01*
X0052630Y0182700D02*
X0069050Y0182700D01*
X0069050Y0181101D02*
X0052145Y0181101D01*
X0051370Y0179503D02*
X0069050Y0179503D01*
X0069050Y0177904D02*
X0049772Y0177904D01*
X0041468Y0177904D02*
X0021032Y0177904D01*
X0020851Y0177724D02*
X0022823Y0179696D01*
X0023890Y0182272D01*
X0023890Y0185061D01*
X0022823Y0187638D01*
X0020851Y0189610D01*
X0018274Y0190677D01*
X0015485Y0190677D01*
X0012909Y0189610D01*
X0010937Y0187638D01*
X0009870Y0185061D01*
X0009870Y0182272D01*
X0010937Y0179696D01*
X0012909Y0177724D01*
X0015485Y0176656D01*
X0018274Y0176656D01*
X0020851Y0177724D01*
X0022630Y0179503D02*
X0039870Y0179503D01*
X0039095Y0181101D02*
X0023405Y0181101D01*
X0023890Y0182700D02*
X0038610Y0182700D01*
X0038610Y0184298D02*
X0023890Y0184298D01*
X0023544Y0185897D02*
X0038956Y0185897D01*
X0039618Y0187495D02*
X0022882Y0187495D01*
X0021367Y0189094D02*
X0041133Y0189094D01*
X0050107Y0189094D02*
X0051133Y0189094D01*
X0051613Y0190692D02*
X0008050Y0190692D01*
X0008050Y0189094D02*
X0012393Y0189094D01*
X0010878Y0187495D02*
X0008050Y0187495D01*
X0008050Y0185897D02*
X0010216Y0185897D01*
X0009870Y0184298D02*
X0008050Y0184298D01*
X0008050Y0182700D02*
X0009870Y0182700D01*
X0010355Y0181101D02*
X0008050Y0181101D01*
X0008050Y0179503D02*
X0011130Y0179503D01*
X0012728Y0177904D02*
X0008050Y0177904D01*
X0008050Y0176306D02*
X0069050Y0176306D01*
X0069050Y0174707D02*
X0018894Y0174707D01*
X0018947Y0174654D02*
X0018052Y0175549D01*
X0016883Y0176034D01*
X0015617Y0176034D01*
X0014448Y0175549D01*
X0013553Y0174654D01*
X0013069Y0173485D01*
X0013069Y0172220D01*
X0013553Y0171051D01*
X0014050Y0170554D01*
X0014050Y0160965D01*
X0013553Y0160469D01*
X0013069Y0159299D01*
X0013069Y0158034D01*
X0013553Y0156865D01*
X0014448Y0155970D01*
X0015617Y0155486D01*
X0016883Y0155486D01*
X0018052Y0155970D01*
X0018947Y0156865D01*
X0019431Y0158034D01*
X0019431Y0159299D01*
X0018947Y0160469D01*
X0018450Y0160965D01*
X0018450Y0170554D01*
X0018947Y0171051D01*
X0019431Y0172220D01*
X0019431Y0173485D01*
X0018947Y0174654D01*
X0019431Y0173109D02*
X0069050Y0173109D01*
X0069050Y0171510D02*
X0036823Y0171510D01*
X0036651Y0171682D02*
X0035190Y0172287D01*
X0033609Y0172287D01*
X0032148Y0171682D01*
X0031250Y0170784D01*
X0030352Y0171682D01*
X0028891Y0172287D01*
X0027310Y0172287D01*
X0025849Y0171682D01*
X0024731Y0170564D01*
X0024126Y0169103D01*
X0024126Y0167887D01*
X0023926Y0167855D01*
X0023271Y0167642D01*
X0022658Y0167330D01*
X0022101Y0166925D01*
X0021614Y0166438D01*
X0021209Y0165881D01*
X0020896Y0165267D01*
X0020684Y0164612D01*
X0020576Y0163932D01*
X0020576Y0163588D01*
X0024951Y0163588D01*
X0024951Y0159213D01*
X0025295Y0159213D01*
X0025975Y0159321D01*
X0026630Y0159534D01*
X0027244Y0159846D01*
X0027801Y0160251D01*
X0028288Y0160738D01*
X0028368Y0160849D01*
X0028998Y0160218D01*
X0029050Y0160197D01*
X0029050Y0145219D01*
X0028947Y0145469D01*
X0028052Y0146363D01*
X0026883Y0146848D01*
X0025617Y0146848D01*
X0024448Y0146363D01*
X0023553Y0145469D01*
X0023069Y0144299D01*
X0023069Y0143034D01*
X0023553Y0141865D01*
X0024050Y0141368D01*
X0024050Y0130965D01*
X0023553Y0130469D01*
X0023069Y0129299D01*
X0023069Y0128034D01*
X0023553Y0126865D01*
X0024251Y0126167D01*
X0023553Y0125469D01*
X0023069Y0124299D01*
X0023069Y0123034D01*
X0023553Y0121865D01*
X0024050Y0121368D01*
X0024050Y0100219D01*
X0023947Y0100469D01*
X0023052Y0101363D01*
X0021883Y0101848D01*
X0020617Y0101848D01*
X0019448Y0101363D01*
X0018553Y0100469D01*
X0018069Y0099299D01*
X0018069Y0098034D01*
X0018553Y0096865D01*
X0019050Y0096368D01*
X0019050Y0065965D01*
X0018553Y0065469D01*
X0018069Y0064299D01*
X0018069Y0063034D01*
X0018553Y0061865D01*
X0019448Y0060970D01*
X0020617Y0060486D01*
X0021883Y0060486D01*
X0023052Y0060970D01*
X0023947Y0061865D01*
X0024050Y0062114D01*
X0024050Y0050965D01*
X0023553Y0050469D01*
X0023069Y0049299D01*
X0023069Y0048034D01*
X0023553Y0046865D01*
X0024448Y0045970D01*
X0025617Y0045486D01*
X0026883Y0045486D01*
X0028052Y0045970D01*
X0028947Y0046865D01*
X0029431Y0048034D01*
X0029431Y0049299D01*
X0028947Y0050469D01*
X0028450Y0050965D01*
X0028450Y0075810D01*
X0029593Y0074667D01*
X0032907Y0074667D01*
X0034050Y0075810D01*
X0034050Y0045965D01*
X0033553Y0045469D01*
X0033069Y0044299D01*
X0033069Y0043034D01*
X0033443Y0042130D01*
X0032907Y0042667D01*
X0029593Y0042667D01*
X0027250Y0040323D01*
X0027250Y0037010D01*
X0029593Y0034667D01*
X0032907Y0034667D01*
X0035250Y0037010D01*
X0035250Y0040323D01*
X0034714Y0040860D01*
X0035617Y0040486D01*
X0036883Y0040486D01*
X0038052Y0040970D01*
X0038947Y0041865D01*
X0039050Y0042114D01*
X0039050Y0036030D01*
X0038521Y0035501D01*
X0038037Y0034332D01*
X0038037Y0033066D01*
X0038521Y0031897D01*
X0039416Y0031002D01*
X0040164Y0030692D01*
X0032953Y0023481D01*
X0032264Y0023767D01*
X0030236Y0023767D01*
X0028361Y0022990D01*
X0026926Y0021556D01*
X0026150Y0019681D01*
X0026150Y0017652D01*
X0026926Y0015778D01*
X0028361Y0014343D01*
X0030236Y0013567D01*
X0032264Y0013567D01*
X0034139Y0014343D01*
X0035574Y0015778D01*
X0036350Y0017652D01*
X0036350Y0019681D01*
X0036065Y0020370D01*
X0050361Y0034667D01*
X0052907Y0034667D01*
X0055250Y0037010D01*
X0055250Y0040323D01*
X0053450Y0042123D01*
X0053450Y0047114D01*
X0053553Y0046865D01*
X0054448Y0045970D01*
X0055617Y0045486D01*
X0056883Y0045486D01*
X0057786Y0045860D01*
X0057250Y0045323D01*
X0057250Y0042010D01*
X0059050Y0040210D01*
X0059050Y0032946D01*
X0058553Y0032449D01*
X0058069Y0031280D01*
X0058069Y0030014D01*
X0058553Y0028845D01*
X0059448Y0027950D01*
X0060617Y0027466D01*
X0061883Y0027466D01*
X0063052Y0027950D01*
X0063947Y0028845D01*
X0064431Y0030014D01*
X0064431Y0031280D01*
X0063947Y0032449D01*
X0063450Y0032946D01*
X0063450Y0040210D01*
X0065250Y0042010D01*
X0065250Y0045323D01*
X0062907Y0047667D01*
X0059593Y0047667D01*
X0059057Y0047130D01*
X0059431Y0048034D01*
X0059431Y0049299D01*
X0058947Y0050469D01*
X0058052Y0051363D01*
X0057031Y0051786D01*
X0057031Y0066061D01*
X0055742Y0067350D01*
X0053450Y0069642D01*
X0053450Y0075210D01*
X0055250Y0077010D01*
X0055250Y0080323D01*
X0052907Y0082667D01*
X0049593Y0082667D01*
X0047250Y0080323D01*
X0047250Y0077010D01*
X0049050Y0075210D01*
X0049050Y0067820D01*
X0050196Y0066673D01*
X0049448Y0066363D01*
X0048553Y0065469D01*
X0048069Y0064299D01*
X0048069Y0063034D01*
X0048553Y0061865D01*
X0049050Y0061368D01*
X0049050Y0042123D01*
X0047250Y0040323D01*
X0047250Y0037778D01*
X0044225Y0034752D01*
X0043915Y0035501D01*
X0043450Y0035965D01*
X0043450Y0156368D01*
X0043947Y0156865D01*
X0044431Y0158034D01*
X0044431Y0159299D01*
X0043947Y0160469D01*
X0043052Y0161363D01*
X0041883Y0161848D01*
X0041131Y0161848D01*
X0041524Y0162797D01*
X0041524Y0164379D01*
X0040919Y0165839D01*
X0039801Y0166958D01*
X0038374Y0167548D01*
X0038374Y0169103D01*
X0037769Y0170564D01*
X0036651Y0171682D01*
X0038039Y0169912D02*
X0069050Y0169912D01*
X0069050Y0168313D02*
X0038374Y0168313D01*
X0040044Y0166715D02*
X0069050Y0166715D01*
X0068407Y0165116D02*
X0041218Y0165116D01*
X0041524Y0163518D02*
X0068069Y0163518D01*
X0068531Y0161919D02*
X0041160Y0161919D01*
X0044008Y0160321D02*
X0081339Y0160321D01*
X0081544Y0157124D02*
X0044054Y0157124D01*
X0044431Y0158722D02*
X0086623Y0158722D01*
X0086250Y0162206D02*
X0093050Y0155406D01*
X0093050Y0051927D01*
X0090590Y0049467D01*
X0083510Y0049467D01*
X0079450Y0045406D01*
X0079450Y0041927D01*
X0081040Y0040337D01*
X0081040Y0038667D01*
X0077859Y0038834D02*
X0063450Y0038834D01*
X0063450Y0037235D02*
X0078190Y0037235D01*
X0080042Y0035637D02*
X0063450Y0035637D01*
X0063450Y0034038D02*
X0079650Y0034038D01*
X0079829Y0032440D02*
X0063950Y0032440D01*
X0064431Y0030841D02*
X0080818Y0030841D01*
X0084139Y0023764D02*
X0083367Y0023371D01*
X0082667Y0022862D01*
X0082055Y0022250D01*
X0081546Y0021549D01*
X0081153Y0020778D01*
X0080885Y0019955D01*
X0080750Y0019100D01*
X0080750Y0018867D01*
X0086050Y0018867D01*
X0086050Y0024167D01*
X0085817Y0024167D01*
X0084962Y0024031D01*
X0084139Y0023764D01*
X0082654Y0022849D02*
X0069280Y0022849D01*
X0069139Y0022990D02*
X0067264Y0023767D01*
X0065236Y0023767D01*
X0063361Y0022990D01*
X0061926Y0021556D01*
X0061150Y0019681D01*
X0061150Y0017652D01*
X0061926Y0015778D01*
X0063361Y0014343D01*
X0065236Y0013567D01*
X0067264Y0013567D01*
X0069139Y0014343D01*
X0070574Y0015778D01*
X0071350Y0017652D01*
X0071350Y0019681D01*
X0070574Y0021556D01*
X0069139Y0022990D01*
X0070700Y0021250D02*
X0081394Y0021250D01*
X0080837Y0019652D02*
X0071350Y0019652D01*
X0071350Y0018053D02*
X0080779Y0018053D01*
X0080750Y0018234D02*
X0080885Y0017379D01*
X0081153Y0016555D01*
X0081546Y0015784D01*
X0082055Y0015084D01*
X0082667Y0014471D01*
X0083367Y0013963D01*
X0084139Y0013570D01*
X0084962Y0013302D01*
X0085817Y0013167D01*
X0086050Y0013167D01*
X0086050Y0018467D01*
X0080750Y0018467D01*
X0080750Y0018234D01*
X0081204Y0016455D02*
X0070854Y0016455D01*
X0069652Y0014856D02*
X0082282Y0014856D01*
X0085242Y0013258D02*
X0052258Y0013258D01*
X0052538Y0013302D02*
X0051683Y0013167D01*
X0051450Y0013167D01*
X0051450Y0018467D01*
X0051450Y0018867D01*
X0051050Y0018867D01*
X0051050Y0024167D01*
X0050817Y0024167D01*
X0049962Y0024031D01*
X0049139Y0023764D01*
X0048367Y0023371D01*
X0047667Y0022862D01*
X0047055Y0022250D01*
X0046546Y0021549D01*
X0046153Y0020778D01*
X0045885Y0019955D01*
X0045750Y0019100D01*
X0045750Y0018867D01*
X0051050Y0018867D01*
X0051050Y0018467D01*
X0045750Y0018467D01*
X0045750Y0018234D01*
X0045885Y0017379D01*
X0046153Y0016555D01*
X0046546Y0015784D01*
X0047055Y0015084D01*
X0047667Y0014471D01*
X0048367Y0013963D01*
X0049139Y0013570D01*
X0049962Y0013302D01*
X0050817Y0013167D01*
X0051050Y0013167D01*
X0051050Y0018467D01*
X0051450Y0018467D01*
X0056750Y0018467D01*
X0056750Y0018234D01*
X0056615Y0017379D01*
X0056347Y0016555D01*
X0055954Y0015784D01*
X0055445Y0015084D01*
X0054833Y0014471D01*
X0054133Y0013963D01*
X0053361Y0013570D01*
X0052538Y0013302D01*
X0051450Y0013258D02*
X0051050Y0013258D01*
X0050242Y0013258D02*
X0012258Y0013258D01*
X0012538Y0013302D02*
X0011683Y0013167D01*
X0011450Y0013167D01*
X0011450Y0018467D01*
X0016750Y0018467D01*
X0016750Y0018234D01*
X0016615Y0017379D01*
X0016347Y0016555D01*
X0015954Y0015784D01*
X0015445Y0015084D01*
X0014833Y0014471D01*
X0014133Y0013963D01*
X0013361Y0013570D01*
X0012538Y0013302D01*
X0011450Y0013258D02*
X0011050Y0013258D01*
X0010242Y0013258D02*
X0008050Y0013258D01*
X0008050Y0011659D02*
X0097601Y0011659D01*
X0097250Y0012010D02*
X0099593Y0009667D01*
X0102907Y0009667D01*
X0105250Y0012010D01*
X0105250Y0015323D01*
X0103450Y0017123D01*
X0103450Y0051368D01*
X0103947Y0051865D01*
X0104431Y0053034D01*
X0104431Y0054299D01*
X0103947Y0055469D01*
X0103052Y0056363D01*
X0101883Y0056848D01*
X0100617Y0056848D01*
X0099448Y0056363D01*
X0098553Y0055469D01*
X0098069Y0054299D01*
X0098069Y0053034D01*
X0098553Y0051865D01*
X0099050Y0051368D01*
X0099050Y0045219D01*
X0098947Y0045469D01*
X0098052Y0046363D01*
X0096883Y0046848D01*
X0095617Y0046848D01*
X0094448Y0046363D01*
X0093553Y0045469D01*
X0093069Y0044299D01*
X0093069Y0043034D01*
X0093553Y0041865D01*
X0094050Y0041368D01*
X0094050Y0025965D01*
X0093553Y0025469D01*
X0093069Y0024299D01*
X0093069Y0023034D01*
X0093553Y0021865D01*
X0094448Y0020970D01*
X0095617Y0020486D01*
X0096883Y0020486D01*
X0098052Y0020970D01*
X0098947Y0021865D01*
X0099050Y0022114D01*
X0099050Y0017123D01*
X0097250Y0015323D01*
X0097250Y0012010D01*
X0097250Y0013258D02*
X0087258Y0013258D01*
X0087538Y0013302D02*
X0086683Y0013167D01*
X0086450Y0013167D01*
X0086450Y0018467D01*
X0086450Y0018867D01*
X0086050Y0018867D01*
X0086050Y0018467D01*
X0086450Y0018467D01*
X0091750Y0018467D01*
X0091750Y0018234D01*
X0091615Y0017379D01*
X0091347Y0016555D01*
X0090954Y0015784D01*
X0090445Y0015084D01*
X0089833Y0014471D01*
X0089133Y0013963D01*
X0088361Y0013570D01*
X0087538Y0013302D01*
X0086450Y0013258D02*
X0086050Y0013258D01*
X0086050Y0014856D02*
X0086450Y0014856D01*
X0086450Y0016455D02*
X0086050Y0016455D01*
X0086050Y0018053D02*
X0086450Y0018053D01*
X0086450Y0018867D02*
X0091750Y0018867D01*
X0091750Y0019100D01*
X0091615Y0019955D01*
X0091347Y0020778D01*
X0090954Y0021549D01*
X0090445Y0022250D01*
X0089833Y0022862D01*
X0089133Y0023371D01*
X0088361Y0023764D01*
X0087538Y0024031D01*
X0086683Y0024167D01*
X0086450Y0024167D01*
X0086450Y0018867D01*
X0086450Y0019652D02*
X0086050Y0019652D01*
X0086050Y0021250D02*
X0086450Y0021250D01*
X0086450Y0022849D02*
X0086050Y0022849D01*
X0089846Y0022849D02*
X0093146Y0022849D01*
X0093130Y0024447D02*
X0040142Y0024447D01*
X0038543Y0022849D02*
X0047654Y0022849D01*
X0046394Y0021250D02*
X0036945Y0021250D01*
X0036350Y0019652D02*
X0045837Y0019652D01*
X0045779Y0018053D02*
X0036350Y0018053D01*
X0035854Y0016455D02*
X0046204Y0016455D01*
X0047282Y0014856D02*
X0034652Y0014856D01*
X0031250Y0018667D02*
X0051250Y0038667D01*
X0051250Y0063667D01*
X0049093Y0066009D02*
X0043450Y0066009D01*
X0043450Y0067607D02*
X0049263Y0067607D01*
X0049050Y0069206D02*
X0043450Y0069206D01*
X0043450Y0070804D02*
X0049050Y0070804D01*
X0049050Y0072403D02*
X0043450Y0072403D01*
X0043450Y0074001D02*
X0049050Y0074001D01*
X0048660Y0075600D02*
X0043450Y0075600D01*
X0043450Y0077198D02*
X0047250Y0077198D01*
X0047250Y0078797D02*
X0043450Y0078797D01*
X0043450Y0080395D02*
X0047322Y0080395D01*
X0048920Y0081994D02*
X0043450Y0081994D01*
X0043450Y0083592D02*
X0059050Y0083592D01*
X0059050Y0081994D02*
X0053580Y0081994D01*
X0055178Y0080395D02*
X0059050Y0080395D01*
X0059050Y0078797D02*
X0055250Y0078797D01*
X0055250Y0077198D02*
X0059050Y0077198D01*
X0059050Y0075600D02*
X0053840Y0075600D01*
X0053450Y0074001D02*
X0059050Y0074001D01*
X0059050Y0072403D02*
X0053450Y0072403D01*
X0053450Y0070804D02*
X0059050Y0070804D01*
X0059050Y0069206D02*
X0053887Y0069206D01*
X0055485Y0067607D02*
X0059050Y0067607D01*
X0059050Y0066009D02*
X0057031Y0066009D01*
X0057031Y0064410D02*
X0059050Y0064410D01*
X0059050Y0062812D02*
X0057031Y0062812D01*
X0057031Y0061213D02*
X0059050Y0061213D01*
X0059050Y0059615D02*
X0057031Y0059615D01*
X0057031Y0058016D02*
X0059050Y0058016D01*
X0059050Y0056418D02*
X0057031Y0056418D01*
X0057031Y0054819D02*
X0058284Y0054819D01*
X0058069Y0054299D02*
X0058069Y0053034D01*
X0058553Y0051865D01*
X0059448Y0050970D01*
X0060617Y0050486D01*
X0061883Y0050486D01*
X0063052Y0050970D01*
X0063947Y0051865D01*
X0064431Y0053034D01*
X0064431Y0054299D01*
X0063947Y0055469D01*
X0063450Y0055965D01*
X0063450Y0086368D01*
X0063947Y0086865D01*
X0064431Y0088034D01*
X0064431Y0089299D01*
X0063947Y0090469D01*
X0063052Y0091363D01*
X0061883Y0091848D01*
X0060617Y0091848D01*
X0059448Y0091363D01*
X0058553Y0090469D01*
X0058069Y0089299D01*
X0058069Y0088034D01*
X0058553Y0086865D01*
X0059050Y0086368D01*
X0059050Y0055965D01*
X0058553Y0055469D01*
X0058069Y0054299D01*
X0058069Y0053221D02*
X0057031Y0053221D01*
X0057428Y0051622D02*
X0058796Y0051622D01*
X0059131Y0050023D02*
X0080956Y0050023D01*
X0080167Y0051622D02*
X0063704Y0051622D01*
X0064431Y0053221D02*
X0079650Y0053221D01*
X0079798Y0054819D02*
X0064216Y0054819D01*
X0063450Y0056418D02*
X0080744Y0056418D01*
X0080447Y0061213D02*
X0063450Y0061213D01*
X0063450Y0059615D02*
X0090850Y0059615D01*
X0090850Y0058016D02*
X0063450Y0058016D01*
X0063450Y0062812D02*
X0079675Y0062812D01*
X0079650Y0064410D02*
X0074206Y0064410D01*
X0075669Y0066009D02*
X0080335Y0066009D01*
X0082711Y0067607D02*
X0076331Y0067607D01*
X0076350Y0069206D02*
X0090850Y0069206D01*
X0090850Y0067607D02*
X0089789Y0067607D01*
X0095250Y0067607D02*
X0112711Y0067607D01*
X0112854Y0067667D02*
X0111384Y0067058D01*
X0110259Y0065932D01*
X0109650Y0064462D01*
X0109650Y0062871D01*
X0110259Y0061401D01*
X0111384Y0060276D01*
X0112854Y0059667D01*
X0119646Y0059667D01*
X0121116Y0060276D01*
X0122241Y0061401D01*
X0122850Y0062871D01*
X0122850Y0064462D01*
X0122241Y0065932D01*
X0121116Y0067058D01*
X0119646Y0067667D01*
X0112854Y0067667D01*
X0113304Y0069267D02*
X0116250Y0069267D01*
X0119196Y0069267D01*
X0119880Y0069375D01*
X0120539Y0069589D01*
X0121156Y0069903D01*
X0121716Y0070311D01*
X0122206Y0070800D01*
X0122613Y0071361D01*
X0122928Y0071978D01*
X0123142Y0072636D01*
X0123250Y0073320D01*
X0123250Y0073667D01*
X0123250Y0074013D01*
X0123142Y0074697D01*
X0122928Y0075356D01*
X0122613Y0075973D01*
X0122206Y0076533D01*
X0121716Y0077023D01*
X0121156Y0077430D01*
X0120539Y0077744D01*
X0119880Y0077958D01*
X0119196Y0078067D01*
X0116250Y0078067D01*
X0113304Y0078067D01*
X0112620Y0077958D01*
X0111961Y0077744D01*
X0111344Y0077430D01*
X0110784Y0077023D01*
X0110294Y0076533D01*
X0109887Y0075973D01*
X0109572Y0075356D01*
X0109358Y0074697D01*
X0109250Y0074013D01*
X0109250Y0073667D01*
X0116250Y0073667D01*
X0116250Y0078067D01*
X0116250Y0073667D01*
X0116250Y0073667D01*
X0116250Y0073667D01*
X0123250Y0073667D01*
X0116250Y0073667D01*
X0116250Y0073667D01*
X0109250Y0073667D01*
X0109250Y0073320D01*
X0109358Y0072636D01*
X0109572Y0071978D01*
X0109887Y0071361D01*
X0110294Y0070800D01*
X0110784Y0070311D01*
X0111344Y0069903D01*
X0111961Y0069589D01*
X0112620Y0069375D01*
X0113304Y0069267D01*
X0110291Y0070804D02*
X0095250Y0070804D01*
X0095250Y0069206D02*
X0124050Y0069206D01*
X0124050Y0070804D02*
X0122209Y0070804D01*
X0123066Y0072403D02*
X0124050Y0072403D01*
X0124050Y0074001D02*
X0123250Y0074001D01*
X0122803Y0075600D02*
X0124050Y0075600D01*
X0124050Y0077198D02*
X0121475Y0077198D01*
X0116250Y0077198D02*
X0116250Y0077198D01*
X0116250Y0075600D02*
X0116250Y0075600D01*
X0116250Y0074001D02*
X0116250Y0074001D01*
X0116250Y0073667D02*
X0116250Y0069267D01*
X0116250Y0073667D01*
X0116250Y0073667D01*
X0116250Y0072403D02*
X0116250Y0072403D01*
X0116250Y0070804D02*
X0116250Y0070804D01*
X0119789Y0067607D02*
X0124050Y0067607D01*
X0124050Y0066009D02*
X0122165Y0066009D01*
X0122850Y0064410D02*
X0124050Y0064410D01*
X0124050Y0062812D02*
X0122825Y0062812D01*
X0122053Y0061213D02*
X0124050Y0061213D01*
X0124050Y0059615D02*
X0095250Y0059615D01*
X0095250Y0061213D02*
X0110447Y0061213D01*
X0109675Y0062812D02*
X0095250Y0062812D01*
X0095250Y0064410D02*
X0109650Y0064410D01*
X0110335Y0066009D02*
X0095250Y0066009D01*
X0095250Y0072403D02*
X0109434Y0072403D01*
X0109250Y0074001D02*
X0095250Y0074001D01*
X0095250Y0075600D02*
X0109697Y0075600D01*
X0111025Y0077198D02*
X0095250Y0077198D01*
X0090850Y0077198D02*
X0090777Y0077198D01*
X0090850Y0078797D02*
X0071450Y0078797D01*
X0071050Y0078797D02*
X0063450Y0078797D01*
X0063450Y0080395D02*
X0066029Y0080395D01*
X0066869Y0081994D02*
X0063450Y0081994D01*
X0063450Y0083592D02*
X0068802Y0083592D01*
X0067513Y0085191D02*
X0063450Y0085191D01*
X0063871Y0086789D02*
X0066507Y0086789D01*
X0066150Y0088388D02*
X0064431Y0088388D01*
X0064147Y0089986D02*
X0066276Y0089986D01*
X0066956Y0091585D02*
X0062518Y0091585D01*
X0061250Y0088667D02*
X0061250Y0053667D01*
X0059431Y0048425D02*
X0079357Y0048425D01*
X0077759Y0046826D02*
X0074313Y0046826D01*
X0073073Y0048067D02*
X0071250Y0048067D01*
X0069427Y0048067D01*
X0066850Y0045489D01*
X0066850Y0043667D01*
X0071250Y0043667D01*
X0071250Y0048067D01*
X0071250Y0043667D01*
X0071250Y0043667D01*
X0075650Y0043667D01*
X0075650Y0045489D01*
X0073073Y0048067D01*
X0071250Y0046826D02*
X0071250Y0046826D01*
X0071250Y0045228D02*
X0071250Y0045228D01*
X0071250Y0043667D02*
X0071250Y0043667D01*
X0071250Y0043667D01*
X0075650Y0043667D01*
X0075650Y0041844D01*
X0073073Y0039267D01*
X0071250Y0039267D01*
X0071250Y0043667D01*
X0066850Y0043667D01*
X0066850Y0041844D01*
X0069427Y0039267D01*
X0071250Y0039267D01*
X0071250Y0043667D01*
X0071250Y0043667D01*
X0071250Y0043629D02*
X0071250Y0043629D01*
X0071250Y0042031D02*
X0071250Y0042031D01*
X0071250Y0040432D02*
X0071250Y0040432D01*
X0074238Y0040432D02*
X0077833Y0040432D01*
X0077250Y0042031D02*
X0075650Y0042031D01*
X0075650Y0043629D02*
X0077250Y0043629D01*
X0077250Y0045228D02*
X0075650Y0045228D01*
X0068187Y0046826D02*
X0063747Y0046826D01*
X0065250Y0045228D02*
X0066850Y0045228D01*
X0066850Y0043629D02*
X0065250Y0043629D01*
X0065250Y0042031D02*
X0066850Y0042031D01*
X0068262Y0040432D02*
X0063673Y0040432D01*
X0061250Y0043667D02*
X0061250Y0030647D01*
X0062314Y0027644D02*
X0094050Y0027644D01*
X0094050Y0026046D02*
X0041740Y0026046D01*
X0043339Y0027644D02*
X0060186Y0027644D01*
X0058388Y0029243D02*
X0044937Y0029243D01*
X0046536Y0030841D02*
X0058069Y0030841D01*
X0058550Y0032440D02*
X0048134Y0032440D01*
X0049733Y0034038D02*
X0059050Y0034038D01*
X0059050Y0035637D02*
X0053877Y0035637D01*
X0055250Y0037235D02*
X0059050Y0037235D01*
X0059050Y0038834D02*
X0055250Y0038834D01*
X0055141Y0040432D02*
X0058827Y0040432D01*
X0057250Y0042031D02*
X0053543Y0042031D01*
X0053450Y0043629D02*
X0057250Y0043629D01*
X0057250Y0045228D02*
X0053450Y0045228D01*
X0053450Y0046826D02*
X0053591Y0046826D01*
X0056250Y0048667D02*
X0054831Y0050086D01*
X0054831Y0065150D01*
X0051250Y0068731D01*
X0051250Y0078667D01*
X0043450Y0085191D02*
X0059050Y0085191D01*
X0058629Y0086789D02*
X0043450Y0086789D01*
X0043450Y0088388D02*
X0058069Y0088388D01*
X0058353Y0089986D02*
X0043450Y0089986D01*
X0043450Y0091585D02*
X0059982Y0091585D01*
X0068827Y0093183D02*
X0043450Y0093183D01*
X0043450Y0101176D02*
X0080484Y0101176D01*
X0079690Y0102774D02*
X0043450Y0102774D01*
X0043450Y0104373D02*
X0079650Y0104373D01*
X0080298Y0105971D02*
X0043450Y0105971D01*
X0043450Y0107570D02*
X0082621Y0107570D01*
X0080893Y0110767D02*
X0043450Y0110767D01*
X0043450Y0112365D02*
X0079859Y0112365D01*
X0079650Y0113964D02*
X0043450Y0113964D01*
X0043450Y0115562D02*
X0080106Y0115562D01*
X0081634Y0117161D02*
X0043450Y0117161D01*
X0043450Y0118759D02*
X0090850Y0118759D01*
X0090850Y0109168D02*
X0043450Y0109168D01*
X0043450Y0120358D02*
X0081302Y0120358D01*
X0080029Y0121956D02*
X0043450Y0121956D01*
X0043450Y0123555D02*
X0079650Y0123555D01*
X0079936Y0125154D02*
X0043450Y0125154D01*
X0043450Y0126752D02*
X0081079Y0126752D01*
X0082173Y0129949D02*
X0043450Y0129949D01*
X0043450Y0128351D02*
X0090850Y0128351D01*
X0090850Y0129949D02*
X0090327Y0129949D01*
X0090850Y0137942D02*
X0043450Y0137942D01*
X0043450Y0139540D02*
X0090850Y0139540D01*
X0090850Y0147533D02*
X0089969Y0147533D01*
X0090850Y0149131D02*
X0043450Y0149131D01*
X0043450Y0147533D02*
X0082531Y0147533D01*
X0080261Y0145934D02*
X0043450Y0145934D01*
X0043450Y0144336D02*
X0079650Y0144336D01*
X0079705Y0142737D02*
X0043450Y0142737D01*
X0043450Y0141139D02*
X0080521Y0141139D01*
X0080670Y0136343D02*
X0043450Y0136343D01*
X0043450Y0134745D02*
X0079767Y0134745D01*
X0079650Y0133146D02*
X0043450Y0133146D01*
X0043450Y0131548D02*
X0080198Y0131548D01*
X0080930Y0150730D02*
X0043450Y0150730D01*
X0043450Y0152328D02*
X0079875Y0152328D01*
X0079650Y0153927D02*
X0043450Y0153927D01*
X0043450Y0155525D02*
X0080090Y0155525D01*
X0086250Y0162206D02*
X0086250Y0163667D01*
X0091247Y0160321D02*
X0104050Y0160321D01*
X0104050Y0161919D02*
X0092456Y0161919D01*
X0092850Y0163518D02*
X0104050Y0163518D01*
X0104050Y0165116D02*
X0092579Y0165116D01*
X0091459Y0166715D02*
X0103703Y0166715D01*
X0107697Y0171510D02*
X0124050Y0171510D01*
X0124050Y0169912D02*
X0109177Y0169912D01*
X0104050Y0158722D02*
X0092845Y0158722D01*
X0094444Y0157124D02*
X0104050Y0157124D01*
X0104050Y0155525D02*
X0095250Y0155525D01*
X0095250Y0153927D02*
X0104050Y0153927D01*
X0104050Y0152328D02*
X0095250Y0152328D01*
X0095250Y0150730D02*
X0104050Y0150730D01*
X0122136Y0150730D02*
X0125028Y0150730D01*
X0123361Y0152328D02*
X0123042Y0152328D01*
X0127472Y0150730D02*
X0144050Y0150730D01*
X0143361Y0152328D02*
X0129139Y0152328D01*
X0129431Y0153927D02*
X0143069Y0153927D01*
X0146250Y0153667D02*
X0146250Y0078667D01*
X0149431Y0078797D02*
X0169050Y0078797D01*
X0169050Y0080395D02*
X0148977Y0080395D01*
X0148450Y0081994D02*
X0169050Y0081994D01*
X0169050Y0083592D02*
X0148450Y0083592D01*
X0148450Y0085191D02*
X0169050Y0085191D01*
X0169050Y0086789D02*
X0148450Y0086789D01*
X0148450Y0088388D02*
X0169050Y0088388D01*
X0169050Y0089986D02*
X0148450Y0089986D01*
X0148450Y0091585D02*
X0169050Y0091585D01*
X0169050Y0093183D02*
X0148450Y0093183D01*
X0148450Y0094782D02*
X0169050Y0094782D01*
X0169050Y0096380D02*
X0148450Y0096380D01*
X0148450Y0097979D02*
X0169050Y0097979D01*
X0169050Y0099577D02*
X0158383Y0099577D01*
X0158073Y0099267D02*
X0156250Y0099267D01*
X0156250Y0103667D01*
X0156250Y0108067D01*
X0158073Y0108067D01*
X0160650Y0105489D01*
X0160650Y0103667D01*
X0156250Y0103667D01*
X0156250Y0103667D01*
X0156250Y0108067D01*
X0154427Y0108067D01*
X0151850Y0105489D01*
X0151850Y0103667D01*
X0156250Y0103667D01*
X0156250Y0103667D01*
X0156250Y0103667D01*
X0156250Y0068667D01*
X0149085Y0077198D02*
X0169050Y0077198D01*
X0169050Y0075600D02*
X0147158Y0075600D01*
X0145342Y0075600D02*
X0128450Y0075600D01*
X0128450Y0077198D02*
X0143415Y0077198D01*
X0143069Y0078797D02*
X0128450Y0078797D01*
X0128450Y0080395D02*
X0143523Y0080395D01*
X0144050Y0081994D02*
X0139000Y0081994D01*
X0139431Y0083592D02*
X0144050Y0083592D01*
X0144050Y0085191D02*
X0139062Y0085191D01*
X0138450Y0086789D02*
X0144050Y0086789D01*
X0144050Y0088388D02*
X0138450Y0088388D01*
X0138450Y0089986D02*
X0144050Y0089986D01*
X0144050Y0091585D02*
X0138450Y0091585D01*
X0138450Y0093183D02*
X0144050Y0093183D01*
X0144050Y0094782D02*
X0138450Y0094782D01*
X0138450Y0096380D02*
X0144050Y0096380D01*
X0144050Y0097979D02*
X0138450Y0097979D01*
X0138450Y0099577D02*
X0144050Y0099577D01*
X0144050Y0101176D02*
X0139416Y0101176D01*
X0140210Y0102774D02*
X0144050Y0102774D01*
X0144050Y0104373D02*
X0140250Y0104373D01*
X0139602Y0105971D02*
X0144050Y0105971D01*
X0148450Y0105971D02*
X0152332Y0105971D01*
X0151850Y0104373D02*
X0148450Y0104373D01*
X0148450Y0102774D02*
X0151850Y0102774D01*
X0151850Y0103667D02*
X0151850Y0101844D01*
X0154427Y0099267D01*
X0156250Y0099267D01*
X0156250Y0103667D01*
X0160650Y0103667D01*
X0160650Y0101844D01*
X0158073Y0099267D01*
X0156250Y0099577D02*
X0156250Y0099577D01*
X0156250Y0101176D02*
X0156250Y0101176D01*
X0156250Y0102774D02*
X0156250Y0102774D01*
X0156250Y0103667D02*
X0156250Y0103667D01*
X0151850Y0103667D01*
X0152518Y0101176D02*
X0148450Y0101176D01*
X0148450Y0099577D02*
X0154117Y0099577D01*
X0156250Y0104373D02*
X0156250Y0104373D01*
X0156250Y0105971D02*
X0156250Y0105971D01*
X0156250Y0107570D02*
X0156250Y0107570D01*
X0158569Y0107570D02*
X0168261Y0107570D01*
X0168069Y0109168D02*
X0148450Y0109168D01*
X0148450Y0107570D02*
X0153931Y0107570D01*
X0148450Y0110767D02*
X0168852Y0110767D01*
X0171250Y0108667D02*
X0171250Y0063667D01*
X0176250Y0063667D01*
X0178407Y0066009D02*
X0179050Y0066009D01*
X0179050Y0067607D02*
X0173450Y0067607D01*
X0173450Y0066009D02*
X0174093Y0066009D01*
X0173450Y0069206D02*
X0179050Y0069206D01*
X0179050Y0070804D02*
X0173450Y0070804D01*
X0173450Y0072403D02*
X0179050Y0072403D01*
X0179050Y0074001D02*
X0173450Y0074001D01*
X0173450Y0075600D02*
X0179050Y0075600D01*
X0179050Y0077198D02*
X0173450Y0077198D01*
X0173450Y0078797D02*
X0179050Y0078797D01*
X0179050Y0080395D02*
X0173450Y0080395D01*
X0173450Y0081994D02*
X0179050Y0081994D01*
X0179050Y0083592D02*
X0173450Y0083592D01*
X0173450Y0085191D02*
X0179050Y0085191D01*
X0179050Y0086789D02*
X0173450Y0086789D01*
X0173450Y0088388D02*
X0179050Y0088388D01*
X0179050Y0089986D02*
X0173450Y0089986D01*
X0173450Y0091585D02*
X0179050Y0091585D01*
X0179050Y0093183D02*
X0173450Y0093183D01*
X0173450Y0094782D02*
X0179050Y0094782D01*
X0179038Y0096380D02*
X0173450Y0096380D01*
X0173450Y0097979D02*
X0178092Y0097979D01*
X0178184Y0099577D02*
X0173450Y0099577D01*
X0173450Y0101176D02*
X0179260Y0101176D01*
X0181250Y0098667D02*
X0181250Y0053667D01*
X0183704Y0051622D02*
X0184050Y0051622D01*
X0184050Y0050023D02*
X0128450Y0050023D01*
X0128450Y0048425D02*
X0184050Y0048425D01*
X0184050Y0046826D02*
X0128450Y0046826D01*
X0128450Y0045228D02*
X0183454Y0045228D01*
X0183069Y0043629D02*
X0128450Y0043629D01*
X0128450Y0042031D02*
X0183484Y0042031D01*
X0186250Y0043667D02*
X0186250Y0088667D01*
X0184982Y0091585D02*
X0183450Y0091585D01*
X0183450Y0093183D02*
X0195827Y0093183D01*
X0194922Y0094782D02*
X0183450Y0094782D01*
X0183462Y0096380D02*
X0193677Y0096380D01*
X0193150Y0097979D02*
X0184408Y0097979D01*
X0184316Y0099577D02*
X0193150Y0099577D01*
X0193769Y0101176D02*
X0183240Y0101176D01*
X0187518Y0091585D02*
X0193956Y0091585D01*
X0193276Y0089986D02*
X0189147Y0089986D01*
X0189431Y0088388D02*
X0193150Y0088388D01*
X0193507Y0086789D02*
X0188871Y0086789D01*
X0188450Y0085191D02*
X0194513Y0085191D01*
X0196814Y0083592D02*
X0188450Y0083592D01*
X0188450Y0081994D02*
X0194365Y0081994D01*
X0195145Y0102774D02*
X0173450Y0102774D01*
X0173450Y0104373D02*
X0195331Y0104373D01*
X0193846Y0105971D02*
X0173450Y0105971D01*
X0174239Y0107570D02*
X0193184Y0107570D01*
X0193150Y0109168D02*
X0174431Y0109168D01*
X0173648Y0110767D02*
X0193600Y0110767D01*
X0194736Y0112365D02*
X0148450Y0112365D01*
X0148450Y0113964D02*
X0196276Y0113964D01*
X0194142Y0115562D02*
X0148450Y0115562D01*
X0148450Y0117161D02*
X0193353Y0117161D01*
X0193150Y0118759D02*
X0148450Y0118759D01*
X0148450Y0120358D02*
X0193430Y0120358D01*
X0194327Y0121956D02*
X0148450Y0121956D01*
X0148450Y0123555D02*
X0196725Y0123555D01*
X0194551Y0125154D02*
X0148450Y0125154D01*
X0148450Y0126752D02*
X0193523Y0126752D01*
X0193150Y0128351D02*
X0148450Y0128351D01*
X0148450Y0129949D02*
X0184311Y0129949D01*
X0184593Y0129667D02*
X0187907Y0129667D01*
X0190250Y0132010D01*
X0190250Y0135323D01*
X0187907Y0137667D01*
X0184593Y0137667D01*
X0182250Y0135323D01*
X0182250Y0132010D01*
X0184593Y0129667D01*
X0182712Y0131548D02*
X0148450Y0131548D01*
X0148450Y0133146D02*
X0182250Y0133146D01*
X0182250Y0134745D02*
X0148450Y0134745D01*
X0148450Y0136343D02*
X0183270Y0136343D01*
X0189230Y0136343D02*
X0193692Y0136343D01*
X0193150Y0137942D02*
X0148450Y0137942D01*
X0148450Y0139540D02*
X0193150Y0139540D01*
X0193754Y0141139D02*
X0148450Y0141139D01*
X0148450Y0142737D02*
X0195108Y0142737D01*
X0201300Y0144336D02*
X0148450Y0144336D01*
X0148450Y0145934D02*
X0201300Y0145934D01*
X0201300Y0147533D02*
X0148450Y0147533D01*
X0148450Y0149131D02*
X0201300Y0149131D01*
X0201300Y0150730D02*
X0148450Y0150730D01*
X0149139Y0152328D02*
X0201300Y0152328D01*
X0201300Y0153927D02*
X0149431Y0153927D01*
X0148890Y0155525D02*
X0201300Y0155525D01*
X0182749Y0171510D02*
X0164686Y0171510D01*
X0165250Y0173109D02*
X0182250Y0173109D01*
X0182250Y0174707D02*
X0165148Y0174707D01*
X0164268Y0176306D02*
X0183232Y0176306D01*
X0178363Y0185897D02*
X0128450Y0185897D01*
X0128450Y0187495D02*
X0177250Y0187495D01*
X0201300Y0182700D02*
X0150650Y0182700D01*
X0150650Y0181101D02*
X0201300Y0181101D01*
X0201300Y0179503D02*
X0150650Y0179503D01*
X0143002Y0190692D02*
X0138933Y0190692D01*
X0140250Y0192291D02*
X0141850Y0192291D01*
X0141850Y0193890D02*
X0140250Y0193890D01*
X0140085Y0195488D02*
X0141850Y0195488D01*
X0124302Y0197087D02*
X0120250Y0197087D01*
X0120250Y0195488D02*
X0123201Y0195488D01*
X0114469Y0192291D02*
X0113848Y0192291D01*
X0108652Y0192291D02*
X0089552Y0192291D01*
X0090887Y0190692D02*
X0107053Y0190692D01*
X0106850Y0189094D02*
X0091367Y0189094D01*
X0091241Y0187495D02*
X0106850Y0187495D01*
X0107797Y0185897D02*
X0090406Y0185897D01*
X0084444Y0192291D02*
X0080761Y0192291D01*
X0082587Y0190692D02*
X0083109Y0190692D01*
X0083590Y0185897D02*
X0081976Y0185897D01*
X0073450Y0181101D02*
X0124050Y0181101D01*
X0124050Y0179503D02*
X0073450Y0179503D01*
X0073450Y0177904D02*
X0124050Y0177904D01*
X0124050Y0176306D02*
X0073450Y0176306D01*
X0073450Y0174707D02*
X0124050Y0174707D01*
X0124050Y0173109D02*
X0073450Y0173109D01*
X0060524Y0185897D02*
X0058910Y0185897D01*
X0059391Y0190692D02*
X0059913Y0190692D01*
X0061739Y0192291D02*
X0058056Y0192291D01*
X0052948Y0192291D02*
X0008050Y0192291D01*
X0008050Y0174707D02*
X0013606Y0174707D01*
X0013069Y0173109D02*
X0008050Y0173109D01*
X0008050Y0171510D02*
X0013363Y0171510D01*
X0014050Y0169912D02*
X0008050Y0169912D01*
X0008050Y0168313D02*
X0014050Y0168313D01*
X0014050Y0166715D02*
X0008050Y0166715D01*
X0008050Y0165116D02*
X0014050Y0165116D01*
X0014050Y0163518D02*
X0008050Y0163518D01*
X0008050Y0161919D02*
X0014050Y0161919D01*
X0013492Y0160321D02*
X0008050Y0160321D01*
X0008050Y0158722D02*
X0013069Y0158722D01*
X0013446Y0157124D02*
X0008050Y0157124D01*
X0008050Y0155525D02*
X0009591Y0155525D01*
X0009050Y0153927D02*
X0008050Y0153927D01*
X0008050Y0152328D02*
X0009050Y0152328D01*
X0009050Y0150730D02*
X0008050Y0150730D01*
X0008050Y0149131D02*
X0009050Y0149131D01*
X0009050Y0147533D02*
X0008050Y0147533D01*
X0008050Y0145934D02*
X0009050Y0145934D01*
X0009050Y0144336D02*
X0008050Y0144336D01*
X0008050Y0142737D02*
X0008108Y0142737D01*
X0011250Y0138667D02*
X0011250Y0153667D01*
X0012231Y0153667D01*
X0013453Y0150730D02*
X0029050Y0150730D01*
X0029050Y0152328D02*
X0015120Y0152328D01*
X0015412Y0153927D02*
X0029050Y0153927D01*
X0029050Y0155525D02*
X0016979Y0155525D01*
X0015521Y0155525D02*
X0014871Y0155525D01*
X0016250Y0158667D02*
X0016250Y0172852D01*
X0019137Y0171510D02*
X0025677Y0171510D01*
X0024461Y0169912D02*
X0018450Y0169912D01*
X0018450Y0168313D02*
X0024126Y0168313D01*
X0021891Y0166715D02*
X0018450Y0166715D01*
X0018450Y0165116D02*
X0020847Y0165116D01*
X0020576Y0163588D02*
X0020576Y0163244D01*
X0020684Y0162563D01*
X0020896Y0161909D01*
X0021209Y0161295D01*
X0021614Y0160738D01*
X0022101Y0160251D01*
X0022658Y0159846D01*
X0023271Y0159534D01*
X0023926Y0159321D01*
X0024606Y0159213D01*
X0024951Y0159213D01*
X0024951Y0163588D01*
X0024951Y0163588D01*
X0024951Y0163588D01*
X0020576Y0163588D01*
X0020576Y0163518D02*
X0018450Y0163518D01*
X0018450Y0161919D02*
X0020893Y0161919D01*
X0022031Y0160321D02*
X0019008Y0160321D01*
X0019431Y0158722D02*
X0029050Y0158722D01*
X0029050Y0157124D02*
X0019054Y0157124D01*
X0024951Y0160321D02*
X0024951Y0160321D01*
X0024951Y0161919D02*
X0024951Y0161919D01*
X0024951Y0163518D02*
X0024951Y0163518D01*
X0027871Y0160321D02*
X0028896Y0160321D01*
X0031250Y0163588D02*
X0031250Y0093667D01*
X0024050Y0101176D02*
X0023240Y0101176D01*
X0024050Y0102774D02*
X0014355Y0102774D01*
X0014169Y0104373D02*
X0024050Y0104373D01*
X0024050Y0105971D02*
X0015654Y0105971D01*
X0016316Y0107570D02*
X0024050Y0107570D01*
X0024050Y0109168D02*
X0016350Y0109168D01*
X0015900Y0110767D02*
X0024050Y0110767D01*
X0024050Y0112365D02*
X0014764Y0112365D01*
X0013224Y0113964D02*
X0024050Y0113964D01*
X0024050Y0115562D02*
X0015358Y0115562D01*
X0016147Y0117161D02*
X0024050Y0117161D01*
X0024050Y0118759D02*
X0016350Y0118759D01*
X0016070Y0120358D02*
X0024050Y0120358D01*
X0023515Y0121956D02*
X0015173Y0121956D01*
X0014949Y0125154D02*
X0023423Y0125154D01*
X0023666Y0126752D02*
X0015977Y0126752D01*
X0016350Y0128351D02*
X0023069Y0128351D01*
X0023338Y0129949D02*
X0016239Y0129949D01*
X0015577Y0131548D02*
X0024050Y0131548D01*
X0024050Y0133146D02*
X0013763Y0133146D01*
X0014540Y0134745D02*
X0024050Y0134745D01*
X0024050Y0136343D02*
X0015808Y0136343D01*
X0016350Y0137942D02*
X0024050Y0137942D01*
X0024050Y0139540D02*
X0016350Y0139540D01*
X0015746Y0141139D02*
X0024050Y0141139D01*
X0023192Y0142737D02*
X0014392Y0142737D01*
X0013450Y0144336D02*
X0023084Y0144336D01*
X0024019Y0145934D02*
X0013450Y0145934D01*
X0013450Y0147533D02*
X0029050Y0147533D01*
X0029050Y0149131D02*
X0013450Y0149131D01*
X0026250Y0143667D02*
X0026250Y0128667D01*
X0026250Y0123667D02*
X0026250Y0048667D01*
X0029131Y0050023D02*
X0034050Y0050023D01*
X0034050Y0048425D02*
X0029431Y0048425D01*
X0028909Y0046826D02*
X0034050Y0046826D01*
X0033454Y0045228D02*
X0015024Y0045228D01*
X0016008Y0046826D02*
X0023591Y0046826D01*
X0023069Y0048425D02*
X0016350Y0048425D01*
X0016208Y0050023D02*
X0023369Y0050023D01*
X0024050Y0051622D02*
X0015507Y0051622D01*
X0013583Y0053221D02*
X0024050Y0053221D01*
X0024050Y0054819D02*
X0014615Y0054819D01*
X0015839Y0056418D02*
X0024050Y0056418D01*
X0024050Y0058016D02*
X0016350Y0058016D01*
X0016350Y0059615D02*
X0024050Y0059615D01*
X0024050Y0061213D02*
X0023295Y0061213D01*
X0021250Y0063667D02*
X0021250Y0098667D01*
X0019038Y0096380D02*
X0015823Y0096380D01*
X0016350Y0097979D02*
X0018092Y0097979D01*
X0018184Y0099577D02*
X0016350Y0099577D01*
X0015731Y0101176D02*
X0019260Y0101176D01*
X0019050Y0094782D02*
X0014578Y0094782D01*
X0013673Y0093183D02*
X0019050Y0093183D01*
X0019050Y0091585D02*
X0015544Y0091585D01*
X0016224Y0089986D02*
X0019050Y0089986D01*
X0019050Y0088388D02*
X0016350Y0088388D01*
X0015993Y0086789D02*
X0019050Y0086789D01*
X0019050Y0085191D02*
X0014987Y0085191D01*
X0012686Y0083592D02*
X0019050Y0083592D01*
X0019050Y0081994D02*
X0015135Y0081994D01*
X0016054Y0080395D02*
X0019050Y0080395D01*
X0019050Y0078797D02*
X0016350Y0078797D01*
X0016162Y0077198D02*
X0019050Y0077198D01*
X0019050Y0075600D02*
X0015395Y0075600D01*
X0013313Y0074001D02*
X0019050Y0074001D01*
X0019050Y0072403D02*
X0015292Y0072403D01*
X0016334Y0070804D02*
X0019050Y0070804D01*
X0019050Y0069206D02*
X0016733Y0069206D01*
X0016651Y0067607D02*
X0019050Y0067607D01*
X0019050Y0066009D02*
X0016068Y0066009D01*
X0014748Y0064410D02*
X0018115Y0064410D01*
X0018161Y0062812D02*
X0014318Y0062812D01*
X0015715Y0061213D02*
X0019205Y0061213D01*
X0028450Y0061213D02*
X0034050Y0061213D01*
X0034050Y0059615D02*
X0028450Y0059615D01*
X0028450Y0058016D02*
X0034050Y0058016D01*
X0034050Y0056418D02*
X0028450Y0056418D01*
X0028450Y0054819D02*
X0034050Y0054819D01*
X0034050Y0053221D02*
X0028450Y0053221D01*
X0028450Y0051622D02*
X0034050Y0051622D01*
X0033069Y0043629D02*
X0012596Y0043629D01*
X0015098Y0042031D02*
X0028957Y0042031D01*
X0027359Y0040432D02*
X0016039Y0040432D01*
X0016350Y0038834D02*
X0027250Y0038834D01*
X0027250Y0037235D02*
X0016177Y0037235D01*
X0015433Y0035637D02*
X0028623Y0035637D01*
X0033877Y0035637D02*
X0038657Y0035637D01*
X0039050Y0037235D02*
X0035250Y0037235D01*
X0035250Y0038834D02*
X0039050Y0038834D01*
X0039050Y0040432D02*
X0035141Y0040432D01*
X0036250Y0043667D02*
X0036250Y0123667D01*
X0023069Y0123555D02*
X0012775Y0123555D01*
X0028481Y0145934D02*
X0029050Y0145934D01*
X0041250Y0158667D02*
X0041250Y0033699D01*
X0041218Y0033699D01*
X0043779Y0035637D02*
X0045109Y0035637D01*
X0046707Y0037235D02*
X0043450Y0037235D01*
X0043450Y0038834D02*
X0047250Y0038834D01*
X0047359Y0040432D02*
X0043450Y0040432D01*
X0043450Y0042031D02*
X0048957Y0042031D01*
X0049050Y0043629D02*
X0043450Y0043629D01*
X0043450Y0045228D02*
X0049050Y0045228D01*
X0049050Y0046826D02*
X0043450Y0046826D01*
X0043450Y0048425D02*
X0049050Y0048425D01*
X0049050Y0050023D02*
X0043450Y0050023D01*
X0043450Y0051622D02*
X0049050Y0051622D01*
X0049050Y0053221D02*
X0043450Y0053221D01*
X0043450Y0054819D02*
X0049050Y0054819D01*
X0049050Y0056418D02*
X0043450Y0056418D01*
X0043450Y0058016D02*
X0049050Y0058016D01*
X0049050Y0059615D02*
X0043450Y0059615D01*
X0043450Y0061213D02*
X0049050Y0061213D01*
X0048161Y0062812D02*
X0043450Y0062812D01*
X0043450Y0064410D02*
X0048115Y0064410D01*
X0034050Y0064410D02*
X0028450Y0064410D01*
X0028450Y0062812D02*
X0034050Y0062812D01*
X0034050Y0066009D02*
X0028450Y0066009D01*
X0028450Y0067607D02*
X0034050Y0067607D01*
X0034050Y0069206D02*
X0028450Y0069206D01*
X0028450Y0070804D02*
X0034050Y0070804D01*
X0034050Y0072403D02*
X0028450Y0072403D01*
X0028450Y0074001D02*
X0034050Y0074001D01*
X0034050Y0075600D02*
X0033840Y0075600D01*
X0028660Y0075600D02*
X0028450Y0075600D01*
X0063450Y0075600D02*
X0066680Y0075600D01*
X0065944Y0077198D02*
X0063450Y0077198D01*
X0063450Y0074001D02*
X0068314Y0074001D01*
X0067773Y0072403D02*
X0063450Y0072403D01*
X0063450Y0070804D02*
X0066615Y0070804D01*
X0066150Y0069206D02*
X0063450Y0069206D01*
X0063450Y0067607D02*
X0066169Y0067607D01*
X0066831Y0066009D02*
X0063450Y0066009D01*
X0063450Y0064410D02*
X0068294Y0064410D01*
X0074726Y0072403D02*
X0079844Y0072403D01*
X0079650Y0074001D02*
X0074186Y0074001D01*
X0075820Y0075600D02*
X0080121Y0075600D01*
X0081723Y0077198D02*
X0076556Y0077198D01*
X0076471Y0080395D02*
X0081265Y0080395D01*
X0080013Y0081994D02*
X0075631Y0081994D01*
X0073698Y0083592D02*
X0079650Y0083592D01*
X0079952Y0085191D02*
X0074987Y0085191D01*
X0075993Y0086789D02*
X0081116Y0086789D01*
X0080856Y0070804D02*
X0075885Y0070804D01*
X0095250Y0058016D02*
X0124050Y0058016D01*
X0124050Y0056418D02*
X0121756Y0056418D01*
X0122241Y0055932D02*
X0121116Y0057058D01*
X0119646Y0057667D01*
X0112854Y0057667D01*
X0111384Y0057058D01*
X0110259Y0055932D01*
X0109650Y0054462D01*
X0109650Y0052871D01*
X0110259Y0051401D01*
X0111384Y0050276D01*
X0112854Y0049667D01*
X0119646Y0049667D01*
X0121116Y0050276D01*
X0122241Y0051401D01*
X0122850Y0052871D01*
X0122850Y0054462D01*
X0122241Y0055932D01*
X0122702Y0054819D02*
X0124050Y0054819D01*
X0124050Y0053221D02*
X0122850Y0053221D01*
X0122333Y0051622D02*
X0124050Y0051622D01*
X0124050Y0050023D02*
X0120507Y0050023D01*
X0119646Y0047667D02*
X0121116Y0047058D01*
X0122241Y0045932D01*
X0122850Y0044462D01*
X0122850Y0042871D01*
X0122241Y0041401D01*
X0121116Y0040276D01*
X0119646Y0039667D01*
X0112854Y0039667D01*
X0111384Y0040276D01*
X0110259Y0041401D01*
X0109650Y0042871D01*
X0109650Y0044462D01*
X0110259Y0045932D01*
X0111384Y0047058D01*
X0112854Y0047667D01*
X0119646Y0047667D01*
X0121347Y0046826D02*
X0124050Y0046826D01*
X0124050Y0045228D02*
X0122533Y0045228D01*
X0122850Y0043629D02*
X0124050Y0043629D01*
X0124050Y0042031D02*
X0122502Y0042031D01*
X0121273Y0040432D02*
X0124050Y0040432D01*
X0124050Y0038834D02*
X0103450Y0038834D01*
X0103450Y0040432D02*
X0111227Y0040432D01*
X0109998Y0042031D02*
X0103450Y0042031D01*
X0103450Y0043629D02*
X0109650Y0043629D01*
X0109967Y0045228D02*
X0103450Y0045228D01*
X0103450Y0046826D02*
X0111153Y0046826D01*
X0111993Y0050023D02*
X0103450Y0050023D01*
X0103450Y0048425D02*
X0124050Y0048425D01*
X0128450Y0051622D02*
X0178796Y0051622D01*
X0178069Y0053221D02*
X0128450Y0053221D01*
X0128450Y0054819D02*
X0178284Y0054819D01*
X0179050Y0056418D02*
X0128450Y0056418D01*
X0128450Y0058016D02*
X0179050Y0058016D01*
X0179050Y0059615D02*
X0128450Y0059615D01*
X0128450Y0061213D02*
X0174205Y0061213D01*
X0178295Y0061213D02*
X0179050Y0061213D01*
X0169050Y0062812D02*
X0128450Y0062812D01*
X0128450Y0064410D02*
X0169050Y0064410D01*
X0169050Y0066009D02*
X0128450Y0066009D01*
X0128450Y0067607D02*
X0169050Y0067607D01*
X0169050Y0069206D02*
X0128450Y0069206D01*
X0128450Y0070804D02*
X0169050Y0070804D01*
X0169050Y0072403D02*
X0128450Y0072403D01*
X0128450Y0074001D02*
X0169050Y0074001D01*
X0169050Y0101176D02*
X0159982Y0101176D01*
X0160650Y0102774D02*
X0169050Y0102774D01*
X0169050Y0104373D02*
X0160650Y0104373D01*
X0160168Y0105971D02*
X0169050Y0105971D01*
X0188189Y0129949D02*
X0193261Y0129949D01*
X0193923Y0131548D02*
X0189788Y0131548D01*
X0190250Y0133146D02*
X0195737Y0133146D01*
X0194960Y0134745D02*
X0190250Y0134745D01*
X0144050Y0134745D02*
X0122733Y0134745D01*
X0122850Y0133146D02*
X0144050Y0133146D01*
X0144050Y0131548D02*
X0122302Y0131548D01*
X0120327Y0129949D02*
X0144050Y0129949D01*
X0144050Y0136343D02*
X0121830Y0136343D01*
X0121979Y0141139D02*
X0144050Y0141139D01*
X0144050Y0142737D02*
X0122795Y0142737D01*
X0122850Y0144336D02*
X0144050Y0144336D01*
X0144050Y0145934D02*
X0122239Y0145934D01*
X0111079Y0126752D02*
X0108450Y0126752D01*
X0108450Y0125154D02*
X0109936Y0125154D01*
X0109650Y0123555D02*
X0108450Y0123555D01*
X0108450Y0121956D02*
X0110029Y0121956D01*
X0111302Y0120358D02*
X0108450Y0120358D01*
X0108450Y0107570D02*
X0112621Y0107570D01*
X0110298Y0105971D02*
X0108450Y0105971D01*
X0109401Y0104373D02*
X0109650Y0104373D01*
X0109690Y0102774D02*
X0109324Y0102774D01*
X0108258Y0101176D02*
X0110484Y0101176D01*
X0128450Y0086789D02*
X0134050Y0086789D01*
X0133438Y0085191D02*
X0128450Y0085191D01*
X0128450Y0083592D02*
X0133069Y0083592D01*
X0133500Y0081994D02*
X0128450Y0081994D01*
X0136250Y0083667D02*
X0136250Y0103667D01*
X0090850Y0107570D02*
X0089879Y0107570D01*
X0095250Y0056418D02*
X0099579Y0056418D01*
X0098284Y0054819D02*
X0095250Y0054819D01*
X0095250Y0053221D02*
X0098069Y0053221D01*
X0098796Y0051622D02*
X0095250Y0051622D01*
X0094258Y0050023D02*
X0099050Y0050023D01*
X0099050Y0048425D02*
X0092659Y0048425D01*
X0091347Y0046826D02*
X0095566Y0046826D01*
X0096934Y0046826D02*
X0099050Y0046826D01*
X0099046Y0045228D02*
X0099050Y0045228D01*
X0096250Y0043667D02*
X0096250Y0023667D01*
X0098332Y0021250D02*
X0099050Y0021250D01*
X0099050Y0019652D02*
X0091663Y0019652D01*
X0091721Y0018053D02*
X0099050Y0018053D01*
X0098381Y0016455D02*
X0091296Y0016455D01*
X0090218Y0014856D02*
X0097250Y0014856D01*
X0101250Y0013667D02*
X0101250Y0053667D01*
X0104216Y0054819D02*
X0109798Y0054819D01*
X0109650Y0053221D02*
X0104431Y0053221D01*
X0103704Y0051622D02*
X0110167Y0051622D01*
X0110744Y0056418D02*
X0102921Y0056418D01*
X0093454Y0045228D02*
X0092533Y0045228D01*
X0092850Y0043629D02*
X0093069Y0043629D01*
X0093484Y0042031D02*
X0092502Y0042031D01*
X0091273Y0040432D02*
X0094050Y0040432D01*
X0094050Y0038834D02*
X0084221Y0038834D01*
X0090687Y0037235D02*
X0094050Y0037235D01*
X0094050Y0035637D02*
X0092363Y0035637D01*
X0092850Y0034038D02*
X0094050Y0034038D01*
X0094050Y0032440D02*
X0092671Y0032440D01*
X0091682Y0030841D02*
X0094050Y0030841D01*
X0094050Y0029243D02*
X0064112Y0029243D01*
X0063220Y0022849D02*
X0054846Y0022849D01*
X0054833Y0022862D02*
X0054133Y0023371D01*
X0053361Y0023764D01*
X0052538Y0024031D01*
X0051683Y0024167D01*
X0051450Y0024167D01*
X0051450Y0018867D01*
X0056750Y0018867D01*
X0056750Y0019100D01*
X0056615Y0019955D01*
X0056347Y0020778D01*
X0055954Y0021549D01*
X0055445Y0022250D01*
X0054833Y0022862D01*
X0056106Y0021250D02*
X0061800Y0021250D01*
X0061150Y0019652D02*
X0056663Y0019652D01*
X0056721Y0018053D02*
X0061150Y0018053D01*
X0061646Y0016455D02*
X0056296Y0016455D01*
X0055218Y0014856D02*
X0062848Y0014856D01*
X0051450Y0014856D02*
X0051050Y0014856D01*
X0051050Y0016455D02*
X0051450Y0016455D01*
X0051450Y0018053D02*
X0051050Y0018053D01*
X0051050Y0019652D02*
X0051450Y0019652D01*
X0051450Y0021250D02*
X0051050Y0021250D01*
X0051050Y0022849D02*
X0051450Y0022849D01*
X0039804Y0030841D02*
X0015869Y0030841D01*
X0016350Y0029243D02*
X0038715Y0029243D01*
X0037116Y0027644D02*
X0016347Y0027644D01*
X0015685Y0026046D02*
X0035518Y0026046D01*
X0033919Y0024447D02*
X0014243Y0024447D01*
X0014846Y0022849D02*
X0028220Y0022849D01*
X0026800Y0021250D02*
X0016106Y0021250D01*
X0016663Y0019652D02*
X0026150Y0019652D01*
X0026150Y0018053D02*
X0016721Y0018053D01*
X0016296Y0016455D02*
X0026646Y0016455D01*
X0027848Y0014856D02*
X0015218Y0014856D01*
X0011450Y0014856D02*
X0011050Y0014856D01*
X0011050Y0016455D02*
X0011450Y0016455D01*
X0011450Y0018053D02*
X0011050Y0018053D01*
X0008050Y0010061D02*
X0099199Y0010061D01*
X0103301Y0010061D02*
X0109199Y0010061D01*
X0109593Y0009667D02*
X0107250Y0012010D01*
X0107250Y0015323D01*
X0109593Y0017667D01*
X0112907Y0017667D01*
X0115250Y0015323D01*
X0115250Y0012010D01*
X0112907Y0009667D01*
X0109593Y0009667D01*
X0107601Y0011659D02*
X0104899Y0011659D01*
X0105250Y0013258D02*
X0107250Y0013258D01*
X0107250Y0014856D02*
X0105250Y0014856D01*
X0104119Y0016455D02*
X0108381Y0016455D01*
X0103450Y0018053D02*
X0201300Y0018053D01*
X0201300Y0016455D02*
X0164119Y0016455D01*
X0165250Y0015323D02*
X0162907Y0017667D01*
X0159593Y0017667D01*
X0157250Y0015323D01*
X0157250Y0012010D01*
X0159593Y0009667D01*
X0162907Y0009667D01*
X0165250Y0012010D01*
X0165250Y0015323D01*
X0165250Y0014856D02*
X0201300Y0014856D01*
X0201300Y0013258D02*
X0165250Y0013258D01*
X0164899Y0011659D02*
X0201300Y0011659D01*
X0201300Y0010061D02*
X0163301Y0010061D01*
X0159199Y0010061D02*
X0123301Y0010061D01*
X0122907Y0009667D02*
X0125250Y0012010D01*
X0125250Y0015323D01*
X0122907Y0017667D01*
X0119593Y0017667D01*
X0117250Y0015323D01*
X0117250Y0012010D01*
X0119593Y0009667D01*
X0122907Y0009667D01*
X0124899Y0011659D02*
X0157601Y0011659D01*
X0157250Y0013258D02*
X0125250Y0013258D01*
X0125250Y0014856D02*
X0157250Y0014856D01*
X0158381Y0016455D02*
X0124119Y0016455D01*
X0124168Y0021250D02*
X0103450Y0021250D01*
X0103450Y0019652D02*
X0201300Y0019652D01*
X0201300Y0008462D02*
X0008050Y0008462D01*
X0008050Y0006864D02*
X0201300Y0006864D01*
X0124050Y0026046D02*
X0103450Y0026046D01*
X0103450Y0027644D02*
X0124050Y0027644D01*
X0124050Y0029243D02*
X0103450Y0029243D01*
X0103450Y0030841D02*
X0110818Y0030841D01*
X0110259Y0031401D02*
X0111384Y0030276D01*
X0112854Y0029667D01*
X0119646Y0029667D01*
X0121116Y0030276D01*
X0122241Y0031401D01*
X0122850Y0032871D01*
X0122850Y0034462D01*
X0122241Y0035932D01*
X0121116Y0037058D01*
X0119646Y0037667D01*
X0112854Y0037667D01*
X0111384Y0037058D01*
X0110259Y0035932D01*
X0109650Y0034462D01*
X0109650Y0032871D01*
X0110259Y0031401D01*
X0109829Y0032440D02*
X0103450Y0032440D01*
X0103450Y0034038D02*
X0109650Y0034038D01*
X0110137Y0035637D02*
X0103450Y0035637D01*
X0103450Y0037235D02*
X0111813Y0037235D01*
X0120687Y0037235D02*
X0124050Y0037235D01*
X0124050Y0035637D02*
X0122363Y0035637D01*
X0122850Y0034038D02*
X0124050Y0034038D01*
X0124050Y0032440D02*
X0122671Y0032440D01*
X0121682Y0030841D02*
X0124050Y0030841D01*
X0123130Y0024447D02*
X0103450Y0024447D01*
X0103450Y0022849D02*
X0123146Y0022849D01*
X0118381Y0016455D02*
X0114119Y0016455D01*
X0115250Y0014856D02*
X0117250Y0014856D01*
X0117250Y0013258D02*
X0115250Y0013258D01*
X0114899Y0011659D02*
X0117601Y0011659D01*
X0119199Y0010061D02*
X0113301Y0010061D01*
X0094168Y0021250D02*
X0091106Y0021250D01*
X0039050Y0042031D02*
X0039016Y0042031D01*
X0038037Y0034038D02*
X0013403Y0034038D01*
X0014689Y0032440D02*
X0038296Y0032440D01*
X0128450Y0166715D02*
X0132545Y0166715D01*
X0132250Y0168313D02*
X0128450Y0168313D01*
X0128450Y0169912D02*
X0132250Y0169912D01*
X0133437Y0171510D02*
X0128450Y0171510D01*
X0031976Y0171510D02*
X0030524Y0171510D01*
D19*
X0041250Y0158667D03*
X0026250Y0143667D03*
X0026250Y0128667D03*
X0026250Y0123667D03*
X0036250Y0123667D03*
X0021250Y0098667D03*
X0031250Y0093667D03*
X0061250Y0088667D03*
X0051250Y0063667D03*
X0061250Y0053667D03*
X0056250Y0048667D03*
X0041218Y0033699D03*
X0036250Y0043667D03*
X0026250Y0048667D03*
X0021250Y0063667D03*
X0061250Y0030647D03*
X0081040Y0038667D03*
X0096250Y0043667D03*
X0101250Y0053667D03*
X0096250Y0023667D03*
X0126250Y0023667D03*
X0156250Y0068667D03*
X0146250Y0078667D03*
X0136250Y0083667D03*
X0126250Y0113667D03*
X0106250Y0103667D03*
X0126250Y0153667D03*
X0106250Y0168667D03*
X0126250Y0194536D03*
X0146250Y0153667D03*
X0171250Y0108667D03*
X0181250Y0098667D03*
X0186250Y0088667D03*
X0176250Y0063667D03*
X0181250Y0053667D03*
X0186250Y0043667D03*
X0196250Y0033667D03*
X0071250Y0163667D03*
X0016250Y0158667D03*
X0012231Y0153667D03*
X0016250Y0172852D03*
M02*
