%
M48
M72
T01C0.02362
T02C0.03150
T03C0.03200
T04C0.03937
T05C0.04000
T06C0.07480
%
T01
X41218Y33699
X36250Y43667
X26250Y48667
X21250Y63667
X51250Y63667
X61250Y53667
X56250Y48667
X61250Y30647
X81040Y38667
X96250Y43667
X101250Y53667
X96250Y23667
X126250Y23667
X156250Y68667
X146250Y78667
X136250Y83667
X126250Y113667
X106250Y103667
X61250Y88667
X31250Y93667
X21250Y98667
X26250Y123667
X26250Y128667
X36250Y123667
X26250Y143667
X12231Y153667
X16250Y158667
X16250Y172852
X41250Y158667
X71250Y163667
X106250Y168667
X126250Y153667
X146250Y153667
X126250Y194536
X171250Y108667
X181250Y98667
X186250Y88667
X176250Y63667
X181250Y53667
X186250Y43667
X196250Y33667
T02
X24951Y163588
X28100Y168312
X31250Y163588
X34400Y168312
X37549Y163588
X63376Y188667
X71250Y188667
X79124Y188667
T03
X86250Y163667
X86250Y153667
X86250Y143667
X86250Y133667
X86250Y123667
X86250Y113667
X86250Y103667
X86250Y93667
X86250Y83667
X86250Y73667
X86250Y63667
X86250Y53667
X86250Y43667
X86250Y33667
X71250Y43667
X61250Y43667
X51250Y38667
X31250Y38667
X31250Y78667
X51250Y78667
X101250Y13667
X111250Y13667
X121250Y13667
X116250Y33667
X116250Y43667
X116250Y53667
X116250Y63667
X116250Y73667
X116250Y83667
X116250Y93667
X116250Y103667
X116250Y113667
X116250Y123667
X116250Y133667
X116250Y143667
X116250Y153667
X116250Y163667
X136250Y168667
X146250Y168667
X146250Y181167
X136250Y181167
X136250Y193667
X146250Y193667
X161250Y193667
X161250Y173667
X181250Y188667
X191250Y188667
X186250Y173667
X186250Y133667
X156250Y103667
X136250Y103667
X121250Y188667
X116250Y196167
X111250Y188667
X161250Y13667
T04
X55502Y188667
X86998Y188667
T05
X11250Y138667
X11250Y128667
X11250Y118667
X11250Y108667
X11250Y98667
X11250Y88667
X11250Y78667
X11250Y68667
X11250Y58667
X11250Y48667
X11250Y38667
X11250Y28667
X11250Y18667
X31250Y18667
X51250Y18667
X66250Y18667
X86250Y18667
X71250Y68667
X71250Y78667
X71250Y88667
X198250Y88667
X198250Y98667
X198250Y108667
X198250Y118667
X198250Y128667
X198250Y138667
X198250Y78667
X198250Y68667
T06
X16880Y183667
X45620Y183667
M30
