G75*
%MOIN*%
%OFA0B0*%
%FSLAX25Y25*%
%IPPOS*%
%LPD*%
%AMOC8*
5,1,8,0,0,1.08239X$1,22.5*
%
%ADD10C,0.00000*%
%ADD11OC8,0.05600*%
%ADD12C,0.05600*%
%ADD13C,0.05550*%
%ADD14C,0.11620*%
%ADD15C,0.05600*%
%ADD16C,0.06337*%
%ADD17C,0.07800*%
D10*
X0006250Y0003667D02*
X0006250Y0200517D01*
X0203100Y0200517D01*
X0203100Y0003667D01*
X0006250Y0003667D01*
D11*
X0031250Y0038667D03*
X0051250Y0038667D03*
X0061250Y0043667D03*
X0071250Y0043667D03*
X0101250Y0013667D03*
X0111250Y0013667D03*
X0121250Y0013667D03*
X0161250Y0013667D03*
X0156250Y0103667D03*
X0186250Y0133667D03*
X0186250Y0173667D03*
X0181250Y0188667D03*
X0191250Y0188667D03*
X0161250Y0193667D03*
X0146250Y0193667D03*
X0136250Y0193667D03*
X0136250Y0181167D03*
X0146250Y0181167D03*
X0146250Y0168667D03*
X0136250Y0168667D03*
X0121250Y0188667D03*
X0116250Y0196167D03*
X0111250Y0188667D03*
X0051250Y0078667D03*
X0031250Y0078667D03*
D12*
X0136250Y0103667D03*
X0161250Y0173667D03*
D13*
X0079124Y0188667D03*
X0071250Y0188667D03*
X0063376Y0188667D03*
X0037549Y0163588D03*
X0034400Y0168312D03*
X0031250Y0163588D03*
X0028100Y0168312D03*
X0024951Y0163588D03*
D14*
X0016880Y0183667D03*
X0045620Y0183667D03*
D15*
X0083650Y0163667D02*
X0088850Y0163667D01*
X0088850Y0153667D02*
X0083650Y0153667D01*
X0083650Y0143667D02*
X0088850Y0143667D01*
X0088850Y0133667D02*
X0083650Y0133667D01*
X0083650Y0123667D02*
X0088850Y0123667D01*
X0088850Y0113667D02*
X0083650Y0113667D01*
X0083650Y0103667D02*
X0088850Y0103667D01*
X0088850Y0093667D02*
X0083650Y0093667D01*
X0083650Y0083667D02*
X0088850Y0083667D01*
X0088850Y0073667D02*
X0083650Y0073667D01*
X0083650Y0063667D02*
X0088850Y0063667D01*
X0088850Y0053667D02*
X0083650Y0053667D01*
X0083650Y0043667D02*
X0088850Y0043667D01*
X0088850Y0033667D02*
X0083650Y0033667D01*
X0113650Y0033667D02*
X0118850Y0033667D01*
X0118850Y0043667D02*
X0113650Y0043667D01*
X0113650Y0053667D02*
X0118850Y0053667D01*
X0118850Y0063667D02*
X0113650Y0063667D01*
X0113650Y0073667D02*
X0118850Y0073667D01*
X0118850Y0083667D02*
X0113650Y0083667D01*
X0113650Y0093667D02*
X0118850Y0093667D01*
X0118850Y0103667D02*
X0113650Y0103667D01*
X0113650Y0113667D02*
X0118850Y0113667D01*
X0118850Y0123667D02*
X0113650Y0123667D01*
X0113650Y0133667D02*
X0118850Y0133667D01*
X0118850Y0143667D02*
X0113650Y0143667D01*
X0113650Y0153667D02*
X0118850Y0153667D01*
X0118850Y0163667D02*
X0113650Y0163667D01*
D16*
X0086998Y0188667D03*
X0055502Y0188667D03*
D17*
X0011250Y0138667D03*
X0011250Y0128667D03*
X0011250Y0118667D03*
X0011250Y0108667D03*
X0011250Y0098667D03*
X0011250Y0088667D03*
X0011250Y0078667D03*
X0011250Y0068667D03*
X0011250Y0058667D03*
X0011250Y0048667D03*
X0011250Y0038667D03*
X0011250Y0028667D03*
X0011250Y0018667D03*
X0031250Y0018667D03*
X0051250Y0018667D03*
X0066250Y0018667D03*
X0086250Y0018667D03*
X0071250Y0068667D03*
X0071250Y0078667D03*
X0071250Y0088667D03*
X0198250Y0088667D03*
X0198250Y0098667D03*
X0198250Y0108667D03*
X0198250Y0118667D03*
X0198250Y0128667D03*
X0198250Y0138667D03*
X0198250Y0078667D03*
X0198250Y0068667D03*
M02*
